<svg xmlns="http://www.w3.org/2000/svg" width="1198.943" height="1218.542" viewBox="0 0 1198.943 1218.542">
  <g id="Email_campaign-amico" data-name="Email campaign-amico" transform="translate(-29.443 -29.122)">
    <g id="freepik--Floor--inject-110" transform="translate(31.44 515.178)">
      <ellipse id="freepik--floor--inject-110-2" data-name="freepik--floor--inject-110" cx="598.473" cy="366.243" rx="598.473" ry="366.243" fill="#f5f5f5"/>
    </g>
    <g id="freepik--Shadows--inject-110" transform="translate(47.152 498.985)">
      <path id="freepik--Shadow--inject-110" d="M442.943,521.42a17.884,17.884,0,0,1-8.929-2.112L328.205,458.089a10.961,10.961,0,0,1,0-19.6L503.521,337.336a18.927,18.927,0,0,1,17.884,0l105.81,61.085a10.961,10.961,0,0,1,0,19.6L451.9,519.308a17.992,17.992,0,0,1-8.956,2.112Z" transform="translate(442.649 12.993)" fill="#e0e0e0"/>
      <path id="freepik--shadow--inject-110-2" data-name="freepik--shadow--inject-110" d="M369.467,566.417a171.093,171.093,0,0,1-39.645-4.518,145.994,145.994,0,0,1-34.993-12.912l-.241-.134c-2.139-1.2-4.865-2.834-8.394-5.026s-6.683-4.251-10.159-6.523-6.79-4.491-9.838-6.6-5.641-3.93-7.458-5.347a71.245,71.245,0,0,1-20.371-24.06,47.665,47.665,0,0,1-4.277-30.9,63.757,63.757,0,0,1,16.04-29.941c8.234-9.223,19.782-17.7,35.288-25.9a232.585,232.585,0,0,1,49.429-19.863,183.151,183.151,0,0,1,44.885-6.443h1.337a146.312,146.312,0,0,1,38.923,5.052A168.426,168.426,0,0,1,454.4,407.035q6.282,3.5,13.554,8.26c4.919,3.208,9.036,6.1,12.565,8.822a40.926,40.926,0,0,1,13.768,16.04,30.449,30.449,0,0,1,2.379,17.029h1.925a22.187,22.187,0,0,1,13.367,4.25,16.04,16.04,0,0,1,6.71,15.719,93.551,93.551,0,0,1-3.261,13.661,55.39,55.39,0,0,1-9.731,17.483,106.075,106.075,0,0,1-17.724,17.082,213.487,213.487,0,0,1-73.863,35.475,190.772,190.772,0,0,1-43.655,5.534Zm-9.383-90.6c.481.348,1.016.722,1.631,1.1a31.917,31.917,0,0,0,13.928,5.347c.855,0,1.684.134,2.459.134a16.892,16.892,0,0,0,5.721-.936c-.428-.321-.909-.642-1.444-.989a33.87,33.87,0,0,0-14.088-5.587,19.312,19.312,0,0,0-2.459-.161A16.87,16.87,0,0,0,360.083,475.819Z" transform="translate(293.761 101.928)" fill="#e0e0e0"/>
      <path id="freepik--shadow--inject-110-3" data-name="freepik--shadow--inject-110" d="M385.636,824.494,41.5,626.242c-7.245-4.17-7.245-10.961,0-15.158L739.9,208.03a29.006,29.006,0,0,1,26.279,0l344.135,198.226c7.271,4.17,7.271,10.987,0,15.158l-698.4,403.081a29.166,29.166,0,0,1-26.279,0Z" transform="translate(-36.067 -204.883)" fill="#e0e0e0"/>
    </g>
    <g id="freepik--Clouds--inject-110" transform="translate(136.474 29.122)">
      <g id="freepik--clouds--inject-110-2" data-name="freepik--clouds--inject-110" transform="translate(0)">
        <path id="Path_5297" data-name="Path 5297" d="M222.522,65.412l-17.51,10.105a22.675,22.675,0,0,0,.16-2.3V68.139c0-9.036-6.336-12.7-14.169-8.18a27.642,27.642,0,0,0-8.448,8.02c-1.283-11.362-10.185-15.585-21.012-9.357a46.863,46.863,0,0,0-21.173,36.7v7.592a19.943,19.943,0,0,0,1.791,8.8l-14.543,8.394a17.376,17.376,0,0,0-7.859,13.848c0,5,3.529,7.031,7.86,4.518l94.9-54.776a17.35,17.35,0,0,0,7.86-13.607C230.381,64.931,226.879,62.9,222.522,65.412Z" transform="translate(14.654 15.424)" fill="#ebebeb"/>
        <path id="Path_5298" data-name="Path 5298" d="M190.875,63.549l-9.651,3.716V45.879c0-16.9-13.367-20.932-28.07-12.484h0c-14.623,8.421-26.466,28.952-26.466,45.82v3.048a14.222,14.222,0,0,0-12.27,1.9h0a42.131,42.131,0,0,0-19.034,32.989v1.39l-13.367,7.779A27.776,27.776,0,0,0,69.48,148.053c0,8.02,5.614,11.228,12.538,7.218l108.964-62.9A27.722,27.722,0,0,0,203.52,70.634C203.413,62.667,197.8,59.432,190.875,63.549Z" transform="translate(-69.48 -29.122)" fill="#ebebeb"/>
      </g>
    </g>
    <g id="freepik--Plant--inject-110" transform="translate(29.443 672.789)">
      <g id="freepik--Plants--inject-110">
        <path id="Path_5299" data-name="Path 5299" d="M88.878,440.06l18.205-10.506s10.827-44.992,6.523-85.546c-6.068-56.915-43.548-78.328-57.8-73.436s-18.366,21.386,5.213,55.391C74.924,346.013,92.006,387.8,88.878,440.06Z" transform="translate(-4.704 -269.897)" fill="#ff5b36"/>
        <g id="Group_2554" data-name="Group 2554" transform="translate(39.523)" opacity="0.15">
          <path id="Path_5300" data-name="Path 5300" d="M88.878,440.06l18.205-10.506s10.827-44.992,6.523-85.546c-6.068-56.915-43.548-78.328-57.8-73.436s-18.366,21.386,5.213,55.391C74.924,346.013,92.006,387.8,88.878,440.06Z" transform="translate(-44.228 -269.897)"/>
        </g>
        <path id="Path_5301" data-name="Path 5301" d="M84.165,412.721H84a1.257,1.257,0,0,1-1.016-1.47c9.865-52.531-8.367-111.557-31.064-136.071a1.257,1.257,0,0,1,0-1.791,1.283,1.283,0,0,1,1.791,0c23.1,25.076,41.81,85.118,31.759,138.317A1.2,1.2,0,0,1,84.165,412.721Z" transform="translate(7.548 -264.666)" fill="#fff"/>
        <path id="Path_5302" data-name="Path 5302" d="M63.359,441.841c-2.887,1.47-10.533-5.079-12.645-6.656a26.52,26.52,0,0,1-8.367-10.693,25.183,25.183,0,0,1-1.47-15.1,61.94,61.94,0,0,1,2.3-7.886c.882-2.54,1.764-5.079,2.673-7.646A19.488,19.488,0,0,0,47.4,386.1c-.428-5.347-4.946-9.276-9.063-12.7-4.545-3.769-9.223-8.688-8.875-15.051a22.536,22.536,0,0,1,6.282-13.073c3.261-3.716,7.058-6.951,10-10.88A15.719,15.719,0,0,0,49.4,324.67a16.039,16.039,0,0,0-1.845-6.282,91.582,91.582,0,0,1-6.149-12.752c-1.337-4.545-.829-10.078,2.673-13.1a14.73,14.73,0,0,1,11.121-2.192,25.5,25.5,0,0,1,10.025,4.117c9.838,6.149,15,18.419,25.53,23.284a105.865,105.865,0,0,0,12.832,3.85,16.04,16.04,0,0,1,10.372,7.886c3.529,8.02-4.277,17.4-1.925,25.9,2.085,7.539,9.143,10.693,12.832,17.59a15.558,15.558,0,0,1,1.39,9.784,46.088,46.088,0,0,1-4.892,16.04,142.443,142.443,0,0,1-9.731,14.944S63.787,441.627,63.359,441.841Z" transform="translate(-29.443 -236.176)" fill="#ff5b36"/>
        <path id="Path_5303" data-name="Path 5303" d="M73.862,420.782h0a1.256,1.256,0,0,1-1.15-1.363c4.6-49.937-16.2-106.4-32.534-123.293a1.283,1.283,0,0,1,0-1.791,1.256,1.256,0,0,1,1.791,0c16.655,17.3,37.881,74.585,33.1,125.378a1.23,1.23,0,0,1-1.2,1.069Z" transform="translate(-12.09 -229.634)" fill="#fff"/>
        <path id="Path_5304" data-name="Path 5304" d="M74.185,324.767a.936.936,0,0,1-.374,0A168.428,168.428,0,0,0,37.8,317.094a1.31,1.31,0,0,1-1.15-1.39,1.23,1.23,0,0,1,1.363-1.15,174.007,174.007,0,0,1,36.678,7.833,1.283,1.283,0,0,1-.508,2.459Z" transform="translate(-17.386 -195.185)" fill="#fff"/>
      </g>
    </g>
    <g id="freepik--Device--inject-110" transform="translate(56.97 474.136)">
      <g id="freepik--device--inject-110-2" data-name="freepik--device--inject-110">
        <g id="freepik--Mobile--inject-110">
          <path id="Path_5305" data-name="Path 5305" d="M58.132,629.151l319.941,184.7a34.485,34.485,0,0,0,33.39.615L1055.6,442.634c10.159-5.855,18.366-18.98,18.392-29.406s-8.234-23.418-18.392-29.273L736.831,199.978a40.608,40.608,0,0,0-36.731,0L58.132,570.605c-10.159,5.881-18.392,18.981-18.392,29.273S47.974,623.3,58.132,629.151Z" transform="translate(-39.74 -195.588)" fill="#37474f"/>
          <path id="Path_5306" data-name="Path 5306" d="M378.074,701.048,58.132,516.349C47.974,510.495,39.74,497.4,39.74,487.076s8.234-23.391,18.392-29.273L395.477,263V705.619a33.923,33.923,0,0,1-17.4-4.571Z" transform="translate(-39.74 -82.786)" fill="#263238"/>
          <path id="Path_5307" data-name="Path 5307" d="M378.907,780.941a36.01,36.01,0,0,0,32.4,0l637.583-368.114c13.714-8.02,13.714-20.878,0-28.791L730.073,199.978a40.608,40.608,0,0,0-36.731,0L51.374,570.605c-10.105,5.855-10.105,15.4,0,21.226Z" transform="translate(-32.955 -195.588)" fill="#455a64"/>
          <path id="Path_5308" data-name="Path 5308" d="M372.964,722.54a38.468,38.468,0,0,0,34.913,0L956.466,405.78c9.651-5.56,9.651-14.6,0-20.157L656.6,212.5a38.629,38.629,0,0,0-34.913,0L73.045,529.233c-9.6,5.56-9.6,14.623,0,20.183Z" transform="translate(3.946 -174.265)" fill="#37474f"/>
          <path id="Path_5309" data-name="Path 5309" d="M280.69,208.35a35.341,35.341,0,0,1,16.414,4.117L596.969,385.59c9.651,5.56,9.651,14.6,0,20.157l-59.4,34.245L280.69,275.958Z" transform="translate(363.443 -174.232)" fill="#263238"/>
          <path id="Path_5310" data-name="Path 5310" d="M619.813,217.4a38.629,38.629,0,0,1,34.913,0L954.645,390.523a18.177,18.177,0,0,1,4.571,3.662,17.615,17.615,0,0,1-4.357,3.4L406.216,714.341a38.468,38.468,0,0,1-34.913,0L71.385,541.217a17.859,17.859,0,0,1-4.545-3.636,17.509,17.509,0,0,1,4.331-3.422Z" transform="translate(5.607 -166.066)" fill="#fafafa"/>
          <path id="Path_5311" data-name="Path 5311" d="M392.828,268.362l-53.145-30.69c-3.181-1.845-3.342-4.705-.374-6.416a12.324,12.324,0,0,1,11.148.187l53.065,30.609c3.181,1.845,3.342,4.705.348,6.443a12.351,12.351,0,0,1-11.041-.134Z" transform="translate(457.978 -137.979)" fill="#263238"/>
          <path id="Path_5312" data-name="Path 5312" d="M325.268,229.369a3.288,3.288,0,0,1,0-6.229,11.95,11.95,0,0,1,10.693,0,3.288,3.288,0,0,1,0,6.229A11.95,11.95,0,0,1,325.268,229.369Z" transform="translate(434.299 -151.597)" fill="#263238"/>
          <path id="Path_5313" data-name="Path 5313" d="M317.208,224.689a3.288,3.288,0,0,1,0-6.229,11.95,11.95,0,0,1,10.693,0,3.288,3.288,0,0,1,0,6.229A11.95,11.95,0,0,1,317.208,224.689Z" transform="translate(420.812 -159.428)" fill="#263238"/>
          <path id="Path_5314" data-name="Path 5314" d="M381.688,261.939a3.288,3.288,0,0,1,0-6.229,11.95,11.95,0,0,1,10.693,0,3.288,3.288,0,0,1,0,6.229,11.95,11.95,0,0,1-10.693,0Z" transform="translate(528.706 -97.097)" fill="#263238"/>
          <path id="Path_5315" data-name="Path 5315" d="M373.628,257.279a3.288,3.288,0,0,1,0-6.229,11.949,11.949,0,0,1,10.693,0,3.288,3.288,0,0,1,0,6.229,11.95,11.95,0,0,1-10.693,0Z" transform="translate(515.22 -104.895)" fill="#263238"/>
        </g>
        <g id="freepik--mail-notification--inject-110" transform="translate(363.516 383.741)">
          <path id="Path_5316" data-name="Path 5316" d="M175.72,408.527v1.1a6.416,6.416,0,0,0,2.887,5.053l62.422,36.036a6.576,6.576,0,0,0,5.828,0L350.233,391.1a6.469,6.469,0,0,0,2.887-5.053v-1.149a6.416,6.416,0,0,0-2.887-5.053l-62.422-36.036a6.577,6.577,0,0,0-5.828,0L178.607,403.474A6.416,6.416,0,0,0,175.72,408.527Z" transform="translate(-175.72 -332.453)" fill="#ff5b36"/>
          <path id="Path_5317" data-name="Path 5317" d="M175.72,408.527v1.1a6.416,6.416,0,0,0,2.887,5.053l62.422,36.036a6.576,6.576,0,0,0,5.828,0L350.233,391.1a6.469,6.469,0,0,0,2.887-5.053v-1.149a6.416,6.416,0,0,0-2.887-5.053l-62.422-36.036a6.577,6.577,0,0,0-5.828,0L178.607,403.474A6.416,6.416,0,0,0,175.72,408.527Z" transform="translate(-175.72 -332.453)" fill="#ff5b36"/>
          <path id="Path_5318" data-name="Path 5318" d="M307.514,379.842l-62.422-36.036a6.577,6.577,0,0,0-5.828,0L201.25,365.781v85.546h0a6.1,6.1,0,0,0,2.914-.7L307.514,391.1a6.469,6.469,0,0,0,2.887-5.053v-1.149a6.416,6.416,0,0,0-2.887-5.053Z" transform="translate(-133 -332.453)" fill="#fff" opacity="0.3"/>
          <path id="Path_5319" data-name="Path 5319" d="M307.514,379.842l-62.422-36.036a6.577,6.577,0,0,0-5.828,0L201.25,365.781v85.546h0a6.1,6.1,0,0,0,2.914-.7L307.514,391.1a6.469,6.469,0,0,0,2.887-5.053v-1.149a6.416,6.416,0,0,0-2.887-5.053Z" transform="translate(-133 -332.453)" opacity="0.15"/>
          <path id="Path_5320" data-name="Path 5320" d="M243.943,351.6l-65.336,37.694a6.416,6.416,0,0,0-2.887,5.053v1.1a6.416,6.416,0,0,0,2.887,5.053l62.422,36.036a6.015,6.015,0,0,0,2.914.7h0Z" transform="translate(-175.72 -318.272)" fill="#fff" opacity="0.3"/>
          <path id="Path_5321" data-name="Path 5321" d="M243.943,351.6l-65.336,37.694a6.416,6.416,0,0,0-2.887,5.053v1.1a6.416,6.416,0,0,0,2.887,5.053l62.422,36.036a6.015,6.015,0,0,0,2.914.7h0Z" transform="translate(-175.72 -318.272)" opacity="0.2"/>
          <path id="Path_5322" data-name="Path 5322" d="M229.963,437.038,177.54,406.883a1.791,1.791,0,0,1,0-3.368l103.35-59.668a6.576,6.576,0,0,1,5.828,0l62.448,35.929a1.791,1.791,0,0,1,0,3.368L332,393.035l-5.988,3.475-80.2,46.3a6.389,6.389,0,0,1-5.828,0l-5.079-2.941Z" transform="translate(-174.652 -332.385)" fill="#ff5b36"/>
          <path id="Path_5323" data-name="Path 5323" d="M229.963,437.038,177.54,406.883a1.791,1.791,0,0,1,0-3.368l103.35-59.668a6.576,6.576,0,0,1,5.828,0l62.448,35.929a1.791,1.791,0,0,1,0,3.368L332,393.035l-5.988,3.475-80.2,46.3a6.389,6.389,0,0,1-5.828,0l-5.079-2.941Z" transform="translate(-174.652 -332.385)" fill="#fff" opacity="0.3"/>
          <path id="Path_5324" data-name="Path 5324" d="M277.528,386.85l71.618-6.977-70.95,4.01,8.528-40.1a6.469,6.469,0,0,0-3.181-.668l-13.367,54.134L176.37,405a2.005,2.005,0,0,0,1.176,1.818l75.761-4.384L242.882,443.55l13.367-41.3h0l12.939-.749a6.87,6.87,0,0,0,4.251-1.791h0a7.085,7.085,0,0,0,2.165-3.743Z" transform="translate(-174.632 -332.483)" opacity="0.15"/>
          <path id="Path_5325" data-name="Path 5325" d="M198.736,403.172l71.431-5.908,2.673-10.212,1.417-5.694,9.437-38.228a6.175,6.175,0,0,0-2.673.668l-51.675,29.834-51.809,29.834a2.139,2.139,0,0,0-1.176,1.55l14.329-1.176Z" transform="translate(-174.649 -332.445)" fill="#fff" opacity="0.3"/>
          <path id="Path_5326" data-name="Path 5326" d="M215.192,341.959a26.118,26.118,0,0,1,23.632,0c6.523,3.769,6.523,9.865,0,13.634a26.118,26.118,0,0,1-23.632,0C208.669,351.823,208.669,345.728,215.192,341.959Z" transform="translate(-117.857 -339.133)" fill="#f28f8f"/>
          <path id="Path_5327" data-name="Path 5327" d="M213.848,348.014a1.122,1.122,0,0,1-.481-.16.374.374,0,0,1-.134-.348l.989-4.277v-.4a.668.668,0,0,1,.348-.374l2.406-1.39a1.016,1.016,0,0,1,.508-.134,1.042,1.042,0,0,1,.535.134l12.672,7.3a.321.321,0,0,1,0,.615l-2.673,1.5a1.125,1.125,0,0,1-.535,0,1.069,1.069,0,0,1-.535,0l-8.555-4.946-.561,2.352c0,.134-.134.214-.294.294a.963.963,0,0,1-.561,0Z" transform="translate(-112.957 -336.126)" fill="#fafafa"/>
        </g>
        <g id="freepik--Notification--inject-110" transform="translate(509.398 222.678)">
          <path id="Path_5328" data-name="Path 5328" d="M301.694,470.468l-70.2-40.527c-1.6-.936-1.6-2.433,0-3.342l254.82-147.032a6.443,6.443,0,0,1,5.774,0l70.228,40.554c1.6.909,1.6,2.406,0,3.342L307.495,470.5a6.335,6.335,0,0,1-5.8-.027Z" transform="translate(-230.29 -278.884)" fill="#ff5b36"/>
          <path id="Path_5329" data-name="Path 5329" d="M266.943,339.344a1.392,1.392,0,0,1-.722.187h-.561l-14.6-1.657,8.635,5a.347.347,0,0,1,0,.641l-1.711.989a.934.934,0,0,1-.561,0,.964.964,0,0,1-.561,0L243.311,336.7c-.16,0-.241-.214-.241-.348a.4.4,0,0,1,.241-.321l1.47-.855a1.444,1.444,0,0,1,.722-.187h.588l14.6,1.657-8.661-5a.348.348,0,0,1,0-.642l1.711-.989a1.228,1.228,0,0,1,.561-.134,1.1,1.1,0,0,1,.561.134l13.554,7.833a.321.321,0,0,1,0,.642Z" transform="translate(-208.905 -193.554)" fill="#fafafa"/>
          <path id="Path_5330" data-name="Path 5330" d="M253.294,335.936a7.081,7.081,0,0,1-1.845-1.47,3.047,3.047,0,0,1-.775-1.631,2.673,2.673,0,0,1,.428-1.657,4.438,4.438,0,0,1,1.684-1.47,9.144,9.144,0,0,1,2.54-.989,12.482,12.482,0,0,1,2.807-.267,13.372,13.372,0,0,1,2.673.374,9.672,9.672,0,0,1,2.406.989l.936.535a.347.347,0,0,1,0,.642l-7,4.063a3.369,3.369,0,0,0,1.069.374,5.337,5.337,0,0,0,1.149,0,8.775,8.775,0,0,0,1.15-.241,5.074,5.074,0,0,0,1.016-.454,4.064,4.064,0,0,0,.962-.7,1.336,1.336,0,0,0,.348-.615.856.856,0,0,1,.16-.348,1.174,1.174,0,0,1,.321-.267l1.684-.962a1.23,1.23,0,0,1,.561-.134.883.883,0,0,1,.561.134.989.989,0,0,1,.428.615,1.738,1.738,0,0,1,0,1.043,3.342,3.342,0,0,1-.748,1.31,6.577,6.577,0,0,1-1.738,1.39,10.449,10.449,0,0,1-2.54.989,12.19,12.19,0,0,1-2.807.267,12.564,12.564,0,0,1-2.673-.455A12.32,12.32,0,0,1,253.294,335.936Zm2.005-4.785a3.046,3.046,0,0,0-.856.7,1.336,1.336,0,0,0-.267.7,1.042,1.042,0,0,0,.187.615,1.39,1.39,0,0,0,.454.508l4.732-2.673a5.6,5.6,0,0,0-.8-.294,4.035,4.035,0,0,0-1.016-.16,5.831,5.831,0,0,0-1.15.134,6.242,6.242,0,0,0-1.283.481Z" transform="translate(-196.193 -195.947)" fill="#fafafa"/>
          <path id="Path_5331" data-name="Path 5331" d="M271.747,330.445l-4.09-4.571a.642.642,0,0,1-.16-.294.375.375,0,0,1,.241-.321l1.577-.936a1.284,1.284,0,0,1,.588-.134,1.229,1.229,0,0,1,.561.134h0l6.523,7.405a.91.91,0,0,1,.16.321.428.428,0,0,1-.241.348l-1.6.909a.962.962,0,0,1-.588.134h-.561l-7.619-2.058,3.555,4.411a.91.91,0,0,1,.161.321.375.375,0,0,1-.241.321l-1.577.936a.989.989,0,0,1-.588.134,1.9,1.9,0,0,1-.561,0l-12.832-3.742h-.16a.321.321,0,0,1,0-.642l1.577-.936a.99.99,0,0,1,.588-.134h.508l7.886,2.352-3.983-4.625a.375.375,0,0,1,0-.294.321.321,0,0,1,.214-.321l1.6-.936a1.176,1.176,0,0,1,.561,0,1.606,1.606,0,0,1,.535,0Z" transform="translate(-190.666 -203.074)" fill="#fafafa"/>
          <path id="Path_5332" data-name="Path 5332" d="M265.823,328.7a7.136,7.136,0,0,1-1.845-1.5,2.967,2.967,0,0,1-.775-1.631,2.3,2.3,0,0,1,.4-1.631,4.944,4.944,0,0,1,1.684-1.5,9.649,9.649,0,0,1,2.673-.989,14.012,14.012,0,0,1,2.673-.267,12.023,12.023,0,0,1,2.673.4,8.72,8.72,0,0,1,2.406.962l.936.535q.241.16.241.321c0,.134,0,.241-.241.348l-7,4.037a2.862,2.862,0,0,0,1.043.374,5.541,5.541,0,0,0,1.15,0,4.606,4.606,0,0,0,1.176-.241,3.9,3.9,0,0,0,1.016-.454,3.422,3.422,0,0,0,.962-.7,1.523,1.523,0,0,0,.348-.588,1.016,1.016,0,0,1,.134-.374.776.776,0,0,1,.348-.24l1.684-.989a1.256,1.256,0,0,1,1.123,0,1.283,1.283,0,0,1,.428.642,1.738,1.738,0,0,1,0,1.043,4.5,4.5,0,0,1-.749,1.31,6.738,6.738,0,0,1-1.764,1.363,9.141,9.141,0,0,1-2.54.989,10.7,10.7,0,0,1-2.673.267,11.385,11.385,0,0,1-2.834-.454A10.85,10.85,0,0,1,265.823,328.7Zm2.005-4.785a2.353,2.353,0,0,0-.856.7,1.1,1.1,0,0,0-.267.7,1.016,1.016,0,0,0,.16.615,2.676,2.676,0,0,0,.455.481l4.758-2.673a4.949,4.949,0,0,0-.829-.294,3.845,3.845,0,0,0-.989-.134,3.476,3.476,0,0,0-1.149.134,3.741,3.741,0,0,0-1.283.561Z" transform="translate(-175.251 -208.094)" fill="#fafafa"/>
          <path id="Path_5333" data-name="Path 5333" d="M270.358,324.355a1.791,1.791,0,0,1,.294-1.256,3.127,3.127,0,0,1,1.149-1.043,7.512,7.512,0,0,1,2.673-.962,9.381,9.381,0,0,1,2.673,0,2.059,2.059,0,0,1,0-.8,2.38,2.38,0,0,1,.294-.829,3.027,3.027,0,0,1,.588-.748,5.145,5.145,0,0,1,.829-.615,7.648,7.648,0,0,1,2.379-.909,8.767,8.767,0,0,1,2.353-.134,9.328,9.328,0,0,1,2.272.508,13.182,13.182,0,0,1,2.059.962l5.667,3.262a.374.374,0,0,1,0,.668l-1.6.909a1.229,1.229,0,0,1-.561.134,1.284,1.284,0,0,1-.588-.134l-5.534-3.208a5.64,5.64,0,0,0-2.54-.829,4.145,4.145,0,0,0-2.085.561,1.471,1.471,0,0,0-.882,1.15c0,.428.374.936,1.257,1.47l5.641,3.261a.321.321,0,1,1,0,.642l-1.6.936a1.1,1.1,0,0,1-.561.134,1.23,1.23,0,0,1-.561-.133l-5.534-3.208a5.132,5.132,0,0,0-2.54-.829,3.609,3.609,0,0,0-2.085.561,1.47,1.47,0,0,0-.909,1.176c0,.454.428.962,1.39,1.5l5.534,3.181a.454.454,0,0,1,.214.348.4.4,0,0,1-.214.321l-1.6.909a1.256,1.256,0,0,1-1.123,0l-9.784-5.641a.321.321,0,0,1,0-.642l1.6-.936a1.1,1.1,0,0,1,.561-.134,1.229,1.229,0,0,1,.561.134Z" transform="translate(-168.88 -215.055)" fill="#fafafa"/>
          <path id="Path_5334" data-name="Path 5334" d="M275.462,320.068a2.3,2.3,0,0,1-.561-.775,1.711,1.711,0,0,1,0-1.043,2.674,2.674,0,0,1,.615-1.2,5.48,5.48,0,0,1,1.6-1.256,11.6,11.6,0,0,1,2.219-.962,11.15,11.15,0,0,1,2.3-.374,7.7,7.7,0,0,1,2.326.267,8.924,8.924,0,0,1,2.246.882l6.175,3.556a.454.454,0,0,1,.214.348.374.374,0,0,1-.214.321l-1.6.909a.962.962,0,0,1-.561.134.881.881,0,0,1-.561-.134l-.7-.4a1.791,1.791,0,0,1-.24,1.337,4.278,4.278,0,0,1-1.684,1.47,8.018,8.018,0,0,1-1.845.8,7.783,7.783,0,0,1-1.871.294,9.718,9.718,0,0,1-1.791-.16,5.884,5.884,0,0,1-1.577-.615c-.962-.561-1.363-1.2-1.23-1.9a4.063,4.063,0,0,1,1.631-2.246l2.834-2.3a2.674,2.674,0,0,0-1.791-.374,4.756,4.756,0,0,0-1.764.588,2.162,2.162,0,0,0-.668.561,1.5,1.5,0,0,0-.16.561,1.341,1.341,0,0,1,0,.348.827.827,0,0,1-.294.214l-1.952,1.149a.909.909,0,0,1-.481,0,.534.534,0,0,1-.615,0Zm9.41,1.39a4.142,4.142,0,0,0,1.069-.855,1.577,1.577,0,0,0,.4-.856,1.2,1.2,0,0,0-.187-.748,1.871,1.871,0,0,0-.668-.615l-.214-.134-2.353,1.952a2.085,2.085,0,0,0-.8.962.613.613,0,0,0,.374.668,1.631,1.631,0,0,0,1.1,0,4.381,4.381,0,0,0,1.283-.374Z" transform="translate(-155.778 -219.376)" fill="#fafafa"/>
          <path id="Path_5335" data-name="Path 5335" d="M279.162,312.083a1.256,1.256,0,0,1,1.123,0l1.631.936a.4.4,0,0,1,.241.321c0,.134,0,.241-.241.348l-1.791,1.043a1.23,1.23,0,0,1-.561.134,1.284,1.284,0,0,1-.588-.133l-1.631-.962a.348.348,0,0,1,0-.642Zm14.783,8.02c.16,0,.241.214.241.348s0,.214-.241.321l-1.6.909a1.149,1.149,0,0,1-.561.134.963.963,0,0,1-.561-.134l-9.784-5.641a.374.374,0,0,1-.214-.321.321.321,0,0,1,.214-.321l1.6-.936a1.229,1.229,0,0,1,.561-.134,1.1,1.1,0,0,1,.561.134Z" transform="translate(-151.912 -223.555)" fill="#fafafa"/>
          <path id="Path_5336" data-name="Path 5336" d="M295.978,318.857a.347.347,0,0,1,0,.642l-1.577.936a1.228,1.228,0,0,1-.561.134,1.283,1.283,0,0,1-.588-.134l-13.768-8.02a.454.454,0,0,1-.214-.348.4.4,0,0,1,.214-.321l1.6-.909a.965.965,0,0,1,.561,0,1.017,1.017,0,0,1,.588,0Z" transform="translate(-148.332 -225.49)" fill="#fafafa"/>
          <path id="Path_5337" data-name="Path 5337" d="M255.776,413.562l207.93-120.031a9.276,9.276,0,0,1,8.341-.508c2.058,1.176,1.657,3.342-.882,4.812L263.235,417.893a9.357,9.357,0,0,1-8.367.508C252.809,417.2,253.237,415.059,255.776,413.562Z" transform="translate(-191.35 -256.491)" fill="#fafafa"/>
          <path id="Path_5338" data-name="Path 5338" d="M261.229,416.73,469.159,296.7a9.3,9.3,0,0,1,8.341-.535c2.085,1.2,1.657,3.341-.882,4.839L268.688,421.034a9.356,9.356,0,0,1-8.367.535C258.289,420.366,258.69,418.2,261.229,416.73Z" transform="translate(-182.206 -251.211)" fill="#fafafa"/>
        </g>
      </g>
    </g>
    <g id="freepik--Character--inject-110" transform="translate(228.115 117.7)">
      <g id="freepik--character-envelope--inject-110">
        <path id="freepik--shadow--inject-110-4" data-name="freepik--shadow--inject-110" d="M212.35,584.977,103.76,522.287,590.195,241.43,701,302.863Z" transform="translate(-103.76 237.557)" fill="#e0e0e0"/>
        <g id="freepik--Back--inject-110" transform="translate(79.21 52.258)">
          <path id="Path_5339" data-name="Path 5339" d="M133.39,390.927,596.032,123.81l18.5,10.693a19.354,19.354,0,0,1,8.715,15.077V490.855a19.3,19.3,0,0,1-8.715,15.077L169.319,763a19.355,19.355,0,0,1-17.4,0L142.1,757.33a19.355,19.355,0,0,1-8.715-15.078Z" transform="translate(-133.39 -11.516)" fill="#ff5b36"/>
          <path id="Path_5340" data-name="Path 5340" d="M133.39,390.927,596.032,123.81l18.5,10.693a19.354,19.354,0,0,1,8.715,15.077V490.855a19.3,19.3,0,0,1-8.715,15.077L169.319,763a19.355,19.355,0,0,1-17.4,0L142.1,757.33a19.355,19.355,0,0,1-8.715-15.078Z" transform="translate(-133.39 -11.516)" opacity="0.2"/>
          <path id="Path_5341" data-name="Path 5341" d="M593.466,164.077l1.9-1.016-7.191-4.2h0a13.877,13.877,0,0,0-1.9-.936l-203.6-75.414a14.062,14.062,0,0,0-15.639,4.972L139.271,420.1a39.459,39.459,0,0,0-5.881,18.981v22.108l7.058,4.09L596.032,194.071V171.99A14.863,14.863,0,0,0,593.466,164.077Z" transform="translate(-133.39 -81.777)" fill="#ff5b36"/>
          <path id="Path_5342" data-name="Path 5342" d="M375.426,87.016a12.38,12.38,0,0,0-2.352,2.513L145.308,422.115a34.754,34.754,0,0,0-4.224,9.517L134,427.542a41.412,41.412,0,0,1,1.845-5.026,1.117,1.117,0,0,1,0-.16c.321-.7.642-1.337.989-2a1.794,1.794,0,0,1,.16-.321,19.871,19.871,0,0,1,1.2-2.005L366.016,85.573a11.58,11.58,0,0,1,1.123-1.39c.4-.374.8-.775,1.23-1.123Z" transform="translate(-132.369 -79.703)" opacity="0.1"/>
          <path id="Path_5343" data-name="Path 5343" d="M447.564,163.035a10.908,10.908,0,0,0-1.952-.936L241.987,86.632a13.981,13.981,0,0,0-13.367,2.486L221.67,85a14.115,14.115,0,0,1,13.367-2.486l203.519,75.467a11.361,11.361,0,0,1,1.9.936Z" transform="translate(14.329 -81.804)" fill="#fff" opacity="0.35"/>
          <path id="Path_5344" data-name="Path 5344" d="M135.14,210.365a18.068,18.068,0,0,1,1.2-2.005,18.073,18.073,0,0,0-1.2,2.005Z" transform="translate(-130.462 129.962)" fill="#ff5b36"/>
          <path id="Path_5345" data-name="Path 5345" d="M221.22,84.133a11.961,11.961,0,0,1,1.2-1.123A11.961,11.961,0,0,0,221.22,84.133Z" transform="translate(13.577 -79.787)" fill="#ff5b36"/>
          <path id="Path_5346" data-name="Path 5346" d="M134,215.083a43.66,43.66,0,0,1,1.871-5.053A43.66,43.66,0,0,0,134,215.083Z" transform="translate(-132.369 132.757)" fill="#ff5b36"/>
          <path id="Path_5347" data-name="Path 5347" d="M134.71,211.255c.294-.7.642-1.363.962-2.005C135.485,209.838,135,210.506,134.71,211.255Z" transform="translate(-131.181 131.452)" fill="#ff5b36"/>
          <path id="Path_5348" data-name="Path 5348" d="M134.69,210.107v0Z" transform="translate(-131.215 132.599)" opacity="0.2"/>
          <path id="Path_5349" data-name="Path 5349" d="M133.99,211.92Z" transform="translate(-132.386 135.919)" opacity="0.2"/>
          <path id="Path_5350" data-name="Path 5350" d="M221.67,83.01Z" transform="translate(14.329 -79.787)" opacity="0.2"/>
          <path id="Path_5351" data-name="Path 5351" d="M135.07,209.431a2,2,0,0,1,.187-.321,2,2,0,0,0-.187.321Z" transform="translate(-130.579 131.217)" opacity="0.2"/>
          <path id="Path_5352" data-name="Path 5352" d="M220.79,84.793a9.141,9.141,0,0,1,1.15-1.363A9.141,9.141,0,0,0,220.79,84.793Z" transform="translate(12.857 -79.084)" opacity="0.2"/>
          <path id="Path_5353" data-name="Path 5353" d="M369.727,89.035,141.961,421.621A39.646,39.646,0,0,0,136,440.629V462.71L598.642,195.593V173.512a16.04,16.04,0,0,0-9.757-14.008L385.366,84.063A13.981,13.981,0,0,0,369.727,89.035Z" transform="translate(-129.023 -79.209)" fill="#ff5b36"/>
          <path id="Path_5354" data-name="Path 5354" d="M598.722,121.949a14.943,14.943,0,0,0-2.486-7.779l-458.5,265.406h0a34.38,34.38,0,0,0-1.738,9.49v22.081L598.642,144.031Z" transform="translate(-129.023 -27.646)" opacity="0.05"/>
        </g>
        <g id="freepik--Paper--inject-110" transform="translate(120.353 39.444)">
          <path id="Path_5355" data-name="Path 5355" d="M557.582,90.349a5.347,5.347,0,0,0-2.165-4.839l-14.142-8.02a5.347,5.347,0,0,0-5.347.535L156.318,297.236a16.628,16.628,0,0,0-7.512,13.019V764.717A5.346,5.346,0,0,0,151,769.582l14.088,8.02a5.347,5.347,0,0,0,5.347-.508L550.043,558.017a16.655,16.655,0,0,0,7.539-13.206Z" transform="translate(-148.78 -77.011)" fill="#ff5b36"/>
          <path id="Path_5356" data-name="Path 5356" d="M557.582,90.349a5.347,5.347,0,0,0-2.165-4.839l-14.142-8.02a5.347,5.347,0,0,0-5.347.535L156.318,297.236a16.628,16.628,0,0,0-7.512,13.019V764.717A5.346,5.346,0,0,0,151,769.582l14.088,8.02a5.347,5.347,0,0,0,5.347-.508L550.043,558.017a16.655,16.655,0,0,0,7.539-13.206Z" transform="translate(-148.78 -77.011)" fill="#fff" opacity="0.95"/>
          <path id="Path_5357" data-name="Path 5357" d="M161.642,771.934,541.251,552.857a16.655,16.655,0,0,0,7.378-13.046V85.349c0-4.785-3.368-6.71-7.512-4.331L161.642,300.229a16.655,16.655,0,0,0-7.512,13.019V767.71C154.13,772.388,157.5,774.313,161.642,771.934Z" transform="translate(-139.828 -72.01)" fill="#ff5b36"/>
          <path id="Path_5358" data-name="Path 5358" d="M161.642,771.934,541.251,552.857a16.655,16.655,0,0,0,7.378-13.046V85.349c0-4.785-3.368-6.71-7.512-4.331L161.642,300.229a16.655,16.655,0,0,0-7.512,13.019V767.71C154.13,772.388,157.5,774.313,161.642,771.934Z" transform="translate(-139.828 -72.01)" fill="#fff" opacity="0.8"/>
          <path id="Path_5359" data-name="Path 5359" d="M162.968,631.35a5.641,5.641,0,0,0,1.764,4.6c-2.54-1.444-12.377-7.165-13.634-7.86a5.186,5.186,0,0,1-2.219-4.839V168.788a15.024,15.024,0,0,1,2.219-7.378l14.088,8.02a15.292,15.292,0,0,0-2.219,7.432Z" transform="translate(-148.666 64.216)" fill="#ff5b36"/>
          <path id="Path_5360" data-name="Path 5360" d="M162.968,631.35a5.641,5.641,0,0,0,1.764,4.6c-2.54-1.444-12.377-7.165-13.634-7.86a5.186,5.186,0,0,1-2.219-4.839V168.788a15.024,15.024,0,0,1,2.219-7.378l14.088,8.02a15.292,15.292,0,0,0-2.219,7.432Z" transform="translate(-148.666 64.216)" fill="#fff" opacity="0.7"/>
          <path id="Path_5361" data-name="Path 5361" d="M162.968,631.35a5.641,5.641,0,0,0,1.764,4.6c-2.54-1.444-12.377-7.165-13.634-7.86a5.186,5.186,0,0,1-2.219-4.839V168.788a15.024,15.024,0,0,1,2.219-7.378l14.088,8.02a15.292,15.292,0,0,0-2.219,7.432Z" transform="translate(-148.666 64.216)" opacity="0.05"/>
        </g>
        <g id="freepik--character--inject-110-2" data-name="freepik--character--inject-110" transform="translate(271.554)">
          <path id="Path_5362" data-name="Path 5362" d="M206.256,213.64c-1.657,42.292,1.176,132.89,1.176,132.89s44.831,13.527,75.28,8.5,95.624-51.221,95.624-51.221l-10.854-98.03Z" transform="translate(-204.678 177.904)" fill="#37474f"/>
          <path id="Path_5363" data-name="Path 5363" d="M249.836,326.522l7.271-69.1c28.578-17.029,37.854-40.607,37.854-40.607-25.984,34.031-53.092,28.524-53.092,28.524v84.8C244.463,329.062,247.136,327.832,249.836,326.522Z" transform="translate(-144.214 196.36)" fill="#263238"/>
          <path id="Path_5364" data-name="Path 5364" d="M386.029,221.131c7.271-36.811,10.56-85.706-21.386-94.688-8.341-2.326-29.567-.7-29.567-.7l-34.512,1.711c-19.221,2.433-46.168,6.256-53.226,8.02-18.553,4.571-24.06,34.753-32.374,101.96-5.186,42.024-9.624,74.853-9.624,115.754,33.9,30.4,139.894,18.419,164.007-1.363C370.176,305.447,372.849,288.258,386.029,221.131Z" transform="translate(-205.34 43.055)" fill="#455a64"/>
          <path id="Path_5365" data-name="Path 5365" d="M248.6,124.411c-.321,6.71,7.405,18.045,19.248,26.011s22.028,11.2,23.311,14.516c-5.614,1.043-10.693,3.823-14.864,13.367-3.983,9.2-3.956,9.49-17.617,0S232.8,147,232.85,139.729s10.693-21.386,16.04-20.13Z" transform="translate(-159.307 33.565)" fill="#37474f"/>
          <path id="Path_5366" data-name="Path 5366" d="M254.66,159.886c4.01-4.384,7.806-15.372,8.287-20.1l1.738-17.243a9.2,9.2,0,0,1,4.732,3.074c1.47,2.246,8.742,17.27,8.5,25.637s-2.192,19.729-5.026,24.514-4.732-3.636-6.6-6.924C263.883,164.618,260.595,159.993,254.66,159.886Z" transform="translate(-122.812 38.618)" fill="#37474f"/>
          <path id="Path_5367" data-name="Path 5367" d="M256.187,140.11s.668,30.289-2.139,46.409a49.028,49.028,0,0,0,18.045-.481s-4.625,5.694-21.574,3.074C250.52,189.112,255.733,157.486,256.187,140.11Z" transform="translate(-129.74 68.018)" fill="#37474f"/>
          <path id="Path_5368" data-name="Path 5368" d="M363.856,116.97a48.12,48.12,0,0,0-95.945-3.636L246.07,97.8a17.056,17.056,0,0,0-14.062,5.159c-5.988,6.309-2.3,25.69,5.534,44.618,0,0,7.886,34.512,10.934,40.1a15.692,15.692,0,0,0,9.169,7.164l-.749-21.012,87.337-6.282L335.6,161.4A48.119,48.119,0,0,0,363.856,116.97Z" transform="translate(-165.684 -48.763)" fill="#263238"/>
          <path id="Path_5369" data-name="Path 5369" d="M259.309,145.651c-2.673,1.684-5.347-4.144-10.292-7.138-4.277-2.673-13.874-7.031-20.183,3.582-6.817,11.415,5.56,27.188,14.222,30.449,12.832,4.812,17.4-5.347,17.4-5.347l-2.673,53.466c17.564,31.919,69.292,29.995,51.675,3.261l2.112-20.611s13.821,1.871,20.531.749c11.148-1.9,18.072-10.693,21.386-22.99,5.159-19.542,7-35.288,1.818-73.462-5.694-41.864-54.482-41.57-80.573-24.621S259.309,145.651,259.309,145.651Z" transform="translate(-169.325 -45.498)" fill="#ffa8a7"/>
          <path id="Path_5370" data-name="Path 5370" d="M362.064,85.257a18.018,18.018,0,0,0-11.789-1.363,14.275,14.275,0,0,0-8.555-14.356,16.521,16.521,0,0,0-18.072,2.433c1.176-4.251-2.673-8.581-7-9.544a23.044,23.044,0,0,0-12.859,2.139c-6.122,2.326-12.164,4.946-18.392,7.031-10.987,3.662-22.67,5.748-32.588,11.709a19.676,19.676,0,0,0-6.2,5.347,17.083,17.083,0,0,0-2.673,10.88,21.766,21.766,0,0,0,.535,3.743,9.837,9.837,0,0,0-2.673-2.032,9.25,9.25,0,0,0-12.672,4.411l16.521,8.555c-.4,3.342-.829,6.683-1.15,10.025-.909,8.8-2.673,19.087-.615,27.856a6.418,6.418,0,0,0,1.069,2.941,52.236,52.236,0,0,1,8.608,8.367c1.283,1.55,2.834,4.063,4.892,4.678a4.972,4.972,0,0,0,5.721-2.673,9.116,9.116,0,0,0,.187-3.9l-1.6-16.307a9.33,9.33,0,0,1,.267-4.3A12.324,12.324,0,0,1,267,136.638a18.713,18.713,0,0,0,6.5-13.046,19.437,19.437,0,0,1,.428-4.678c.348-1.15,1.256-2.941,2.673-2.941,2.54,0,16.387,2.994,19.863,3.475,18.125,2.486,37.587,2.967,53.466-5.935,6.229-3.449,16.708-10.693,17.8-18.339a10.265,10.265,0,0,0-5.667-9.918Z" transform="translate(-165.549 -62.256)" fill="#263238"/>
          <path id="Path_5371" data-name="Path 5371" d="M287.4,134.4s-25.049-4.678-33.844-9.2A28.6,28.6,0,0,1,241.31,113.44a39.058,39.058,0,0,0,7.057,13.981c6.5,8.02,38.362,13.607,38.362,13.607Z" transform="translate(-145.151 23.391)" fill="#f28f8f"/>
          <path id="Path_5372" data-name="Path 5372" d="M264.039,101.012a4.705,4.705,0,1,1-4.758-4.812,4.758,4.758,0,0,1,4.758,4.812Z" transform="translate(-122.862 -5.457)" fill="#263238"/>
          <path id="Path_5373" data-name="Path 5373" d="M261.993,93.76l-11.014,5.347a6.443,6.443,0,0,1,2.941-8.394,5.988,5.988,0,0,1,8.073,3.048Z" transform="translate(-129.932 -15.609)" fill="#263238"/>
          <path id="Path_5374" data-name="Path 5374" d="M255.162,109l19.863,7.111a10.4,10.4,0,0,1-13.367,6.763,11.041,11.041,0,0,1-6.5-13.875Z" transform="translate(-122.967 15.961)" fill="#b16668"/>
          <path id="Path_5375" data-name="Path 5375" d="M267.545,119.873a10.373,10.373,0,0,0-11.6-8.849,9.946,9.946,0,0,0-1.283.294,10.854,10.854,0,0,0,6.87,8.314,10.079,10.079,0,0,0,6.015.241Z" transform="translate(-122.812 19.203)" fill="#f28f8f"/>
          <path id="Path_5376" data-name="Path 5376" d="M280.933,98.343,270.24,92.809a5.8,5.8,0,0,1,8.02-2.513,6.1,6.1,0,0,1,2.673,8.047Z" transform="translate(-96.742 -16.555)" fill="#263238"/>
          <path id="Path_5377" data-name="Path 5377" d="M278.1,100.84a4.758,4.758,0,0,1-4.6,4.919,4.812,4.812,0,0,1-4.785-4.812,4.705,4.705,0,1,1,9.383,0Z" transform="translate(-99.311 -5.981)" fill="#263238"/>
          <path id="Path_5378" data-name="Path 5378" d="M263.27,96.65l.936,30.342,17.884-4.17Z" transform="translate(-108.405 -4.704)" fill="#f28f8f"/>
        </g>
        <g id="freepik--Front--inject-110" transform="translate(79.103 168.643)">
          <path id="Path_5379" data-name="Path 5379" d="M596.752,305.156a3.606,3.606,0,0,1-.481.7l-192.8-61.138a33.229,33.229,0,0,0-41.65,12.832L155.71,563.879l-7.619,4.411h0a6.148,6.148,0,0,1-5.881.642L354.176,253.187a33.309,33.309,0,0,1,41.677-12.859Z" transform="translate(-118.525 62.343)" fill="#ff5b36"/>
          <path id="Path_5380" data-name="Path 5380" d="M342.875,259.044l.481-.428L155.744,535.3l-7.646,4.411h0a6.309,6.309,0,0,1-5.908.668L335.5,254.58Z" transform="translate(-118.558 90.918)" fill="#fff" opacity="0.4"/>
          <path id="Path_5381" data-name="Path 5381" d="M464.076,305.186a4.671,4.671,0,0,1-.481.7L270.8,244.716a33.2,33.2,0,0,0-41.677,12.832L221.5,253.11a33.283,33.283,0,0,1,41.623-12.778Z" transform="translate(14.152 62.34)" fill="#fff" opacity="0.4"/>
          <path id="Path_5382" data-name="Path 5382" d="M603.14,144.828h0c-.428-2.486-1.738-3.181-3.449-2a10.186,10.186,0,0,0-2.219,2.3l-.962,1.337L406.251,435.711l-28.391,39.565A16.2,16.2,0,0,1,362.2,481.13L337.681,475.3,150.55,406.411a9.838,9.838,0,0,0-3.823-.16,8.743,8.743,0,0,0-1.417.454l7.058-4.063,179.459,65.763,23.632,8.448a16.04,16.04,0,0,0,15.639-5.881l28.417-39.538L590.683,140.845a8.02,8.02,0,0,1,2.165-1.978L576.3,129.323l6.951-3.983,11.442,6.6a19.943,19.943,0,0,1,8.448,12.885Z" transform="translate(-113.337 -125.34)" fill="#ff5b36"/>
          <path id="Path_5383" data-name="Path 5383" d="M285.83,243.823l-28.417,39.592a16.2,16.2,0,0,1-15.639,5.855l-24.514-5.828.481-.428,1.176-1.871,16.04,3.823A16.04,16.04,0,0,0,250.6,279.11L278.746,240Z" transform="translate(7.057 66.521)" fill="#fff" opacity="0.4"/>
          <path id="Path_5384" data-name="Path 5384" d="M435.722,131.916,424.28,125.34l-6.924,3.983,16.521,9.544h0a8.021,8.021,0,0,0-2.165,1.978L240.517,431.434l-.267.374h0l7.084,3.85L437.567,146.432l.989-1.363a8.982,8.982,0,0,1,2.219-2.272c1.684-1.176,3.021-.508,3.422,2h0A19.809,19.809,0,0,0,435.722,131.916Z" transform="translate(45.526 -125.34)" opacity="0.1"/>
          <path id="Path_5385" data-name="Path 5385" d="M174.211,247.309,133.39,223.73V575.056a19.355,19.355,0,0,0,8.715,15.077l9.811,5.667a19.355,19.355,0,0,0,17.4,0l4.892-2.834Z" transform="translate(-133.283 39.297)" fill="#ff5b36"/>
          <path id="Path_5386" data-name="Path 5386" d="M174.211,247.309,133.39,223.73V575.056a19.355,19.355,0,0,0,8.715,15.077l9.811,5.667a19.355,19.355,0,0,0,17.4,0l4.892-2.834Z" transform="translate(-133.283 39.297)" opacity="0.15"/>
          <path id="Path_5387" data-name="Path 5387" d="M606.165,136.441V477.716a17.672,17.672,0,0,1-2.673,8.8,19.063,19.063,0,0,1-5.106,5.748l-.348.16-.535.374L152.238,749.831h0a6.229,6.229,0,0,1-5.935.7,5.346,5.346,0,0,1-2.673-4.17,9.627,9.627,0,0,1,0-1.55V403.531a7.565,7.565,0,0,1,9.784-7.7l187.131,68.891,24.514,5.828a16.2,16.2,0,0,0,15.666-5.855l28.391-39.565L599.375,135.88l.962-1.337C603.545,130.052,606.165,130.908,606.165,136.441Z" transform="translate(-116.201 -114.761)" fill="#ff5b36"/>
          <path id="Path_5388" data-name="Path 5388" d="M431.3,309.1a4.616,4.616,0,0,0,.561-.347l.321-.214a18.713,18.713,0,0,0,5.106-5.694,17.911,17.911,0,0,0,2.673-8.661L242.91,241.44,374.864,341.662Z" transform="translate(49.977 68.931)" fill="#ff5b36"/>
          <path id="Path_5389" data-name="Path 5389" d="M431.3,309.1a4.616,4.616,0,0,0,.561-.347l.321-.214a18.713,18.713,0,0,0,5.106-5.694,17.911,17.911,0,0,0,2.673-8.661L242.91,241.44,374.864,341.662Z" transform="translate(49.977 68.931)" opacity="0.2"/>
          <path id="Path_5390" data-name="Path 5390" d="M143.6,536.3a5.961,5.961,0,0,0,2.673,5.721,6.2,6.2,0,0,0,5.935-.668h0l153.287-88.486,35.02-196.622L143.624,530.682Z" transform="translate(-116.276 93.696)" fill="#ff5b36"/>
          <path id="Path_5391" data-name="Path 5391" d="M359.46,247.711,146.291,563.589a5.962,5.962,0,0,1-2.673-5.721V552.2L351.841,243.38h0Z" transform="translate(-116.243 72.177)" opacity="0.15"/>
          <path id="Path_5392" data-name="Path 5392" d="M601.772,306.759a18.712,18.712,0,0,1-5.106,5.694l-.321.214-445.8,257.386h0a6.2,6.2,0,0,1-5.935.668L357.753,254.87a33.47,33.47,0,0,1,41.864-12.939Z" transform="translate(-114.509 65.018)" fill="#ff5b36"/>
          <path id="Path_5393" data-name="Path 5393" d="M135.088,211.92l7.084,4.09a34.006,34.006,0,0,0-1.738,9.49v22.055l-7.084-4.09V221.384A34,34,0,0,1,135.088,211.92Z" transform="translate(-133.35 19.535)" opacity="0.15"/>
          <path id="Path_5394" data-name="Path 5394" d="M167.816,237.989l-7.058,4.063-7.164-4.117L136.03,227.8l6.817-4.063Z" transform="translate(-128.866 39.313)" fill="#ff5b36"/>
          <path id="Path_5395" data-name="Path 5395" d="M168.08,238.122,142.817,223.74,136,227.8l17.564,10.132,7.164,4.117h0a5.587,5.587,0,0,1,1.337-.428,9.2,9.2,0,0,1,3.8.134l14.222,5.347L343.5,307.281l2.673-3.8Z" transform="translate(-128.916 39.313)" opacity="0.1"/>
        </g>
        <g id="freepik--Arm--inject-110" transform="translate(196.782 177.463)">
          <path id="Path_5396" data-name="Path 5396" d="M294.006,129c-22.7,1.631-38.255,7.031-52.851,42.158-9.464,22.7-46.516,104.259-50.1,117.786-4.2,15.826-13.687,136.2-13.687,136.2l21.654,8.02s-7.405,25.9-13.687,40.688c-7.218,17.082,28.043,13.5,39.378-2.005s19.034-36.277,12.832-43.575A101.583,101.583,0,0,0,220.384,412.4L244.069,305.01l49.7-105.649S318.761,147.713,294.006,129Z" transform="translate(-177.37 -128.036)" fill="#ffa8a7"/>
          <path id="Path_5397" data-name="Path 5397" d="M207.235,240.006a46.728,46.728,0,0,0-21.975-6.282,42.426,42.426,0,0,1,22.99,0Z" transform="translate(-164.168 44.543)" fill="#f28f8f"/>
          <path id="Path_5398" data-name="Path 5398" d="M278.678,128.641c-12.725,0-36.491-.668-51.889,27.134s-37.159,80.761-37.159,80.761,9.036,22.242,57.476,26.893l37.079-79.05S293.247,148.156,278.678,128.641Z" transform="translate(-156.855 -128.639)" fill="#37474f"/>
        </g>
        <g id="freepik--arm--inject-110-2" data-name="freepik--arm--inject-110" transform="translate(421.901 18.14)">
          <path id="Path_5399" data-name="Path 5399" d="M315.577,151.909c19.141,15.1,50.2,38.816,65.309,48.307,11.415-13.794,32.427-41.757,37.426-47.879,6.576-7.779,27.134-20.371,27.134-20.371l7.726,30.984s-38.816,71.591-52.878,84.824c-14.81,13.955-25.53,8.18-54.482-5.079-27.348-12.538-57.048-28.1-57.048-28.1,5.881-52.023,1.9-80.2-22.964-88.968C282.374,127.581,299.51,139.264,315.577,151.909Z" transform="translate(-254.518 25.648)" fill="#ffa8a7"/>
          <path id="Path_5400" data-name="Path 5400" d="M372.6,190.78c-10,2.673-30.663,32.08-26.893,50.793l-52.664-26.038c6.362-35.9,7.753-80.2-22.589-88.78a42.183,42.183,0,0,0-8.875-1.123h0c15.1-1.5,24.969-1.043,40.795,10.854S372.6,190.78,372.6,190.78Z" transform="translate(-261.58 24.631)" fill="#37474f"/>
          <path id="Path_5401" data-name="Path 5401" d="M316.07,155.3c-7.539,6.63-9.971,18.553-11.442,23.284a41.543,41.543,0,0,1,7.084-26.118Z" transform="translate(-189.703 70.56)" fill="#f28f8f"/>
          <path id="Path_5402" data-name="Path 5402" d="M336.28,121.861,354.352,110.9s2.058,97.442,2.139,100.6a10.692,10.692,0,0,0,3.8,6.256l-18.072,11.041a10.828,10.828,0,0,1-3.8-6.256C338.365,219.222,336.28,121.861,336.28,121.861Z" transform="translate(-136.584 1)" fill="#37474f"/>
          <path id="Path_5403" data-name="Path 5403" d="M352.441,126.07s5.186,1.23,7.164,9.276,2.994,23.418-1.631,28.471-10.934,7.271-15.131,5.347c-7.833-3.4-5.347-19.3.829-22.99,10.052-5.855,8.849-12.324,8.849-12.324Z" transform="translate(-133.818 26.385)" fill="#ffa8a7"/>
          <path id="Path_5404" data-name="Path 5404" d="M328,115.09l8.02,9.651,1.417,68.7-8.02,13.367,26.733,14.757a9.838,9.838,0,0,1-3.8-6.256l-1.871-87.952Z" transform="translate(-150.439 8.012)" fill="#455a64"/>
          <path id="Path_5405" data-name="Path 5405" d="M328.46,149.43l.08,4.2,26.867,14.783-.107-4.224Z" transform="translate(-149.669 65.473)" fill="#ff5b36"/>
          <path id="Path_5406" data-name="Path 5406" d="M338.607,166.034l18.045-10.961-.107-4.224L338.5,161.811Z" transform="translate(-132.869 67.849)" fill="#ff5b36"/>
          <path id="Path_5407" data-name="Path 5407" d="M338.607,166.034l18.045-10.961-.107-4.224L338.5,161.811Z" transform="translate(-132.869 67.849)" opacity="0.1"/>
          <path id="Path_5408" data-name="Path 5408" d="M342.661,97.414h0c-3.529-.882-7.592.588-11.362,4.625l-.134.16a37.8,37.8,0,0,0-7.726,33.336v.187c1.657,5.347,4.758,8.555,8.421,9.223h0l15.612,3.743,9.544-47.8Z" transform="translate(-159.913 -21.978)" fill="#ff5b36"/>
          <path id="Path_5409" data-name="Path 5409" d="M342.661,97.414h0c-3.529-.882-7.592.588-11.362,4.625l-.134.16a37.8,37.8,0,0,0-7.726,33.336v.187c1.657,5.347,4.758,8.555,8.421,9.223h0l15.612,3.743,9.544-47.8Z" transform="translate(-159.913 -21.978)" fill="#fff" opacity="0.7"/>
          <path id="Path_5410" data-name="Path 5410" d="M331.955,126.7h0l15.612,3.743,3.154-15.853-28.39-6.576a29.857,29.857,0,0,0,1.149,9.276v.187C325.191,122.98,328.292,126.135,331.955,126.7Z" transform="translate(-159.954 -3.835)" opacity="0.05"/>
          <path id="Path_5411" data-name="Path 5411" d="M368.067,100.089h0a14.2,14.2,0,0,0-12.7,4.545c-.455.4-.909.855-1.363,1.337s-1.016,1.123-1.5,1.738a31.915,31.915,0,0,0-2.3,3.235,42.769,42.769,0,0,0-3.475,6.71,51.86,51.86,0,0,0-3.876,20.424,36.5,36.5,0,0,0,1.47,9.7c1.951,6.389,5.507,10.239,9.757,11.362l-14.81-3.422h0A17.189,17.189,0,0,1,327.513,143.9a37,37,0,0,1-1.444-9.276,51.433,51.433,0,0,1,3.876-20.879,43.67,43.67,0,0,1,3.449-6.683,36.774,36.774,0,0,1,2.3-3.235q.722-.909,1.524-1.764a15.789,15.789,0,0,1,1.364-1.31,16.9,16.9,0,0,1,14.382-4.117h.962Z" transform="translate(-153.695 -23.316)" fill="#ff5b36"/>
          <path id="Path_5412" data-name="Path 5412" d="M339.266,131.772h0A17.189,17.189,0,0,1,327.5,119.956a37,37,0,0,1-1.444-9.276l16.842,3.475a36.495,36.495,0,0,0,1.47,9.7c1.952,6.389,5.507,10.239,9.758,11.362Z" transform="translate(-153.685 0.632)" opacity="0.1"/>
          <path id="Path_5413" data-name="Path 5413" d="M367.661,109.338c3.983,13.1-.348,31.812-9.7,41.811-4.678,5.026-9.758,6.9-14.142,5.855h-.241c-4.251-1.123-7.806-4.972-9.758-11.362-3.983-13.1.348-31.812,9.677-41.81,4.678-5,9.7-6.87,14.062-5.881S365.656,102.762,367.661,109.338Z" transform="translate(-143.183 -21.096)" fill="#ff5b36"/>
          <path id="Path_5414" data-name="Path 5414" d="M367.661,109.338c3.983,13.1-.348,31.812-9.7,41.811-4.678,5.026-9.758,6.9-14.142,5.855h-.241c-4.251-1.123-7.806-4.972-9.758-11.362-3.983-13.1.348-31.812,9.677-41.81,4.678-5,9.7-6.87,14.062-5.881S365.656,102.762,367.661,109.338Z" transform="translate(-143.183 -21.096)" opacity="0.2"/>
          <path id="Path_5415" data-name="Path 5415" d="M428.723,93.6s-17.483,16.949-25.824,52.985a141.356,141.356,0,0,0-3.181,19.649c-2.246,24.488,3.074,39.271,3.074,39.271-10.693-13.367-23.231-26.546-39.7-34.753a205.253,205.253,0,0,0-19.756-8.367h0c-3.983-.936-7.271-4.6-9.062-10.479a36.867,36.867,0,0,1-1.337-12.778,47.37,47.37,0,0,1,1.2-8.581,42.186,42.186,0,0,1,9.517-19.114c4.2-4.491,8.768-6.362,12.752-5.347h0a208.293,208.293,0,0,0,21.386,1.176C396.162,107.234,413.217,100.738,428.723,93.6Z" transform="translate(-142.331 -27.948)" fill="#ff5b36"/>
          <path id="Path_5416" data-name="Path 5416" d="M428.723,93.6s-17.483,16.949-25.824,52.985a141.356,141.356,0,0,0-3.181,19.649c-2.246,24.488,3.074,39.271,3.074,39.271-10.693-13.367-23.231-26.546-39.7-34.753a205.253,205.253,0,0,0-19.756-8.367h0c-3.983-.936-7.271-4.6-9.062-10.479a36.867,36.867,0,0,1-1.337-12.778,47.37,47.37,0,0,1,1.2-8.581,42.186,42.186,0,0,1,9.517-19.114c4.2-4.491,8.768-6.362,12.752-5.347h0a208.293,208.293,0,0,0,21.386,1.176C396.162,107.234,413.217,100.738,428.723,93.6Z" transform="translate(-142.331 -27.948)" fill="#fff" opacity="0.7"/>
          <path id="Path_5417" data-name="Path 5417" d="M399.717,137.737c-2.246,24.487,3.074,39.271,3.074,39.271-10.693-13.367-23.231-26.546-39.7-34.753a205.253,205.253,0,0,0-19.756-8.367h0c-3.983-.936-7.271-4.6-9.062-10.479a36.867,36.867,0,0,1-1.337-12.778C351.01,113.811,380.817,120.575,399.717,137.737Z" transform="translate(-142.331 0.549)" opacity="0.05"/>
          <path id="Path_5418" data-name="Path 5418" d="M439.338,117.665a100.889,100.889,0,0,1,1.738,45.82h0c-3.529,20.451-12.324,40.313-24.915,53.68C393.945,240.984,368.228,235,358.711,203.8a87.516,87.516,0,0,1-3.5-23.071,121.982,121.982,0,0,1,14.3-59.187,75.47,75.47,0,0,1,4.277-7.084l1.925-2.673h0c.936-1.31,1.871-2.54,2.86-3.743s2.085-2.486,3.181-3.636C404.13,80.559,429.847,86.494,439.338,117.665Z" transform="translate(-104.934 -34.342)" fill="#ff5b36"/>
          <path id="Path_5419" data-name="Path 5419" d="M441.067,117.35c-3.529,20.451-12.324,40.313-24.915,53.68-22.215,23.819-47.932,17.831-57.449-13.367a87.516,87.516,0,0,1-3.5-23.071h0c3.048,3.475,11.362,7.218,13.072,2.3a78.754,78.754,0,0,0,3.128,20.451c2.673,8.956,6.924,15.585,12.137,19.141a16.735,16.735,0,0,0,15,2.085,39.163,39.163,0,0,0,16.254-11.148c10.693-11.362,18.392-28.364,22.188-46.061C437.11,121.413,439.222,122.322,441.067,117.35Z" transform="translate(-104.925 11.793)" opacity="0.1"/>
          <path id="Path_5420" data-name="Path 5420" d="M428.256,115.043c4.2,13.768,4.09,30.77.588,47.13-3.8,17.7-11.549,34.753-22.188,46.061A39.163,39.163,0,0,1,390.4,219.382a16.735,16.735,0,0,1-15-2.085c-5.347-3.555-9.41-10.185-12.137-19.141a78.754,78.754,0,0,1-3.128-20.451c0-2.673,0-5.534,0-8.341a108.925,108.925,0,0,1,1.764-14.837c.187-1.016.374-2.032.588-3.021.348-1.684.722-3.368,1.149-5.026a115.574,115.574,0,0,1,5.507-16.468v-.187a103.1,103.1,0,0,1,4.919-10.052c1.283-2.3,2.673-4.491,4.063-6.576l1.845-2.673c.775-.989,1.55-1.978,2.326-2.914s1.577-1.818,2.379-2.673A38.9,38.9,0,0,1,400.935,93.79C412.964,90.341,423.123,98.174,428.256,115.043Z" transform="translate(-96.659 -28.967)" fill="#ff5b36"/>
          <path id="Path_5421" data-name="Path 5421" d="M428.256,115.043c4.2,13.768,4.09,30.77.588,47.13-3.8,17.7-11.549,34.753-22.188,46.061A39.163,39.163,0,0,1,390.4,219.382a16.735,16.735,0,0,1-15-2.085c-5.347-3.555-9.41-10.185-12.137-19.141a78.754,78.754,0,0,1-3.128-20.451c0-2.673,0-5.534,0-8.341a108.925,108.925,0,0,1,1.764-14.837c.187-1.016.374-2.032.588-3.021.348-1.684.722-3.368,1.149-5.026a115.574,115.574,0,0,1,5.507-16.468v-.187a103.1,103.1,0,0,1,4.919-10.052c1.283-2.3,2.673-4.491,4.063-6.576l1.845-2.673c.775-.989,1.55-1.978,2.326-2.914s1.577-1.818,2.379-2.673A38.9,38.9,0,0,1,400.935,93.79C412.964,90.341,423.123,98.174,428.256,115.043Z" transform="translate(-96.659 -28.967)" opacity="0.3"/>
          <path id="Path_5422" data-name="Path 5422" d="M389.105,113.659l-7.378,37.212c-5.347-.321-14.409-.749-21.547-.4V147.8a113.325,113.325,0,0,1,1.764-14.837c.187-1.016.4-2,.588-3.021.348-1.684.748-3.368,1.176-5a115.83,115.83,0,0,1,5.48-16.494.558.558,0,0,0,0-.187c.348-.775.668-1.551,1.016-2.3a115.728,115.728,0,0,0,18.9,7.7Z" transform="translate(-96.592 -7.266)" fill="#ff5b36"/>
          <g id="Group_2555" data-name="Group 2555" transform="translate(263.588 98.694)" opacity="0.4">
            <path id="Path_5423" data-name="Path 5423" d="M389.105,113.659l-7.378,37.212c-5.347-.321-14.409-.749-21.547-.4V147.8a113.325,113.325,0,0,1,1.764-14.837c.187-1.016.4-2,.588-3.021.348-1.684.748-3.368,1.176-5a115.83,115.83,0,0,1,5.48-16.494.558.558,0,0,0,0-.187c.348-.775.668-1.551,1.016-2.3a115.728,115.728,0,0,0,18.9,7.7Z" transform="translate(-360.18 -105.96)" fill="#fff"/>
          </g>
          <path id="Path_5424" data-name="Path 5424" d="M374.746,145.509c-3.876,1.176-7.164-1.23-8.742-6.5v-.16a29.941,29.941,0,0,1,6.1-26.359h0a11.627,11.627,0,0,1,4.892-3.342c3.876-1.176,7.138,1.257,8.742,6.5v.16a29.915,29.915,0,0,1-6.1,26.359h0a11.976,11.976,0,0,1-4.892,3.315Z" transform="translate(-88.301 -2.411)" fill="#ff5b36"/>
          <g id="Group_2556" data-name="Group 2556" transform="translate(276.834 106.45)" opacity="0.7">
            <path id="Path_5425" data-name="Path 5425" d="M374.746,145.509c-3.876,1.176-7.164-1.23-8.742-6.5v-.16a29.941,29.941,0,0,1,6.1-26.359h0a11.627,11.627,0,0,1,4.892-3.342c3.876-1.176,7.138,1.257,8.742,6.5v.16a29.915,29.915,0,0,1-6.1,26.359h0a11.976,11.976,0,0,1-4.892,3.315Z" transform="translate(-365.135 -108.861)" fill="#fff"/>
          </g>
          <path id="Path_5426" data-name="Path 5426" d="M375.679,114.821a3.983,3.983,0,0,1-5.026-2.673L359.292,74.882a4.037,4.037,0,0,1,7.7-2.352L378.353,109.8a3.983,3.983,0,0,1-2.673,5.026Z" transform="translate(-98.244 -67.508)" fill="#e0e0e0"/>
          <path id="Path_5427" data-name="Path 5427" d="M374.911,115.779a4.037,4.037,0,0,1-3.93-.909L342.51,88.137a4.037,4.037,0,1,1,5.507-5.881l28.471,26.733a4.01,4.01,0,0,1,.187,5.694A3.715,3.715,0,0,1,374.911,115.779Z" transform="translate(-128.619 -49.057)" fill="#e0e0e0"/>
          <path id="Path_5428" data-name="Path 5428" d="M364.261,194.075a4.223,4.223,0,0,1-2.085,0,4.037,4.037,0,0,1-3.021-4.839l8.8-37.961a4.037,4.037,0,1,1,7.86,1.818l-8.875,38.041a4.037,4.037,0,0,1-2.673,2.941Z" transform="translate(-98.481 63.066)" fill="#e0e0e0"/>
          <path id="Path_5429" data-name="Path 5429" d="M397.88,187.654a4.037,4.037,0,0,1-5.026-2.673l-11.362-37.266a4.037,4.037,0,1,1,7.7-2.353l11.362,37.266A4.037,4.037,0,0,1,397.88,187.654Z" transform="translate(-61.391 53.394)" fill="#e0e0e0"/>
          <path id="Path_5430" data-name="Path 5430" d="M424.119,161.753a4.037,4.037,0,0,1-3.93-.909l-28.471-26.733a4.037,4.037,0,0,1,5.48-5.908l28.5,26.6a4.01,4.01,0,0,1,.187,5.694,4.143,4.143,0,0,1-1.764,1.256Z" transform="translate(-45.686 28.422)" fill="#e0e0e0"/>
          <path id="Path_5431" data-name="Path 5431" d="M440.159,131.893a4.2,4.2,0,0,1-2.085,0l-37.961-8.8a4.063,4.063,0,0,1-3.021-4.839,4.01,4.01,0,0,1,4.839-3.021l37.961,8.8a4.037,4.037,0,0,1,.267,7.779Z" transform="translate(-34.992 8.078)" fill="#e0e0e0"/>
          <path id="Path_5432" data-name="Path 5432" d="M439.017,105.011l-37.293,11.362a4.025,4.025,0,0,1-2.353-7.7L436.8,97.312a4.037,4.037,0,0,1,2.353,7.7Z" transform="translate(-35.775 -21.902)" fill="#e0e0e0"/>
          <path id="Path_5433" data-name="Path 5433" d="M394.477,115.488a4.037,4.037,0,0,1-4.144-6.6l26.6-28.471a4.038,4.038,0,1,1,5.908,5.507l-26.6,28.471a4.009,4.009,0,0,1-1.764,1.1Z" transform="translate(-47.936 -52.161)" fill="#e0e0e0"/>
          <path id="Path_5434" data-name="Path 5434" d="M382.327,115.125a4.117,4.117,0,0,1-2.058,0,4.01,4.01,0,0,1-3.021-4.839l8.8-37.961a4.037,4.037,0,1,1,7.859,1.818l-8.8,37.961A4.117,4.117,0,0,1,382.327,115.125Z" transform="translate(-68.214 -69.042)" fill="#e0e0e0"/>
          <path id="Path_5435" data-name="Path 5435" d="M322.89,151.114c7.672-9.731,8.02-15.853,13.955-20.638s12.03-5.079,20.959-2.513c6.71,1.925,14.6.962,17.323,3.449.775.535-.428,4.839-3.582,6.389-3.8,1.871-9.945,1.417-14.463,1.444-10.319,0-1.845,10.159-11.789,20.424C341.1,167.02,322.89,151.114,322.89,151.114Z" transform="translate(-158.989 26.871)" fill="#ffa8a7"/>
        </g>
      </g>
    </g>
    <g id="freepik--paper-planes--inject-110" transform="translate(75.977 54.46)">
      <g id="freepik--paper-plane--inject-110" transform="translate(735.885)">
        <path id="Path_5436" data-name="Path 5436" d="M411.2,231.407l94.582-60.577,41.65,13.367Z" transform="translate(-173.066 182.661)" fill="#ff5b36"/>
        <path id="Path_5437" data-name="Path 5437" d="M411.2,249.295l81.75-68.169L474.771,160.14Z" transform="translate(-173.066 164.774)" fill="#ff5b36"/>
        <path id="Path_5438" data-name="Path 5438" d="M492.95,167.99v15.8l-81.75,52.37Z" transform="translate(-173.066 177.909)" fill="#ff5b36"/>
        <path id="Path_5439" data-name="Path 5439" d="M492.95,167.99v15.8l-81.75,52.37Z" transform="translate(-173.066 177.909)" opacity="0.25"/>
        <path id="Path_5440" data-name="Path 5440" d="M450.682,170.632a2.666,2.666,0,0,1-1.738-4.7c1.631-1.417,3.261-2.887,4.839-4.384a2.673,2.673,0,0,1,3.689,3.85c-1.657,1.577-3.315,3.1-5.053,4.6A2.673,2.673,0,0,1,450.682,170.632Z" transform="translate(-111.497 166.098)" fill="#e0e0e0"/>
        <path id="Path_5441" data-name="Path 5441" d="M663.835,361.322a2.674,2.674,0,0,1-2.005-4.438c2.673-3.208,5.534-6.6,8.02-10.105a2.676,2.676,0,1,1,4.3,3.181c-2.673,3.636-5.507,7.138-8.394,10.453A2.673,2.673,0,0,1,663.835,361.322ZM679.5,340.149a2.672,2.672,0,0,1-2.245-4.09c2.245-3.609,4.438-7.405,6.469-11.255a2.673,2.673,0,0,1,4.732,2.486c-2.112,3.983-4.357,7.886-6.683,11.6A2.674,2.674,0,0,1,679.5,340.149Zm12.324-23.284a2.486,2.486,0,0,1-1.069-.241,2.673,2.673,0,0,1-1.363-3.529c1.711-3.93,3.368-8.02,4.839-12.057a2.673,2.673,0,0,1,5.026,1.818c-1.524,4.2-3.208,8.367-5,12.4A2.673,2.673,0,0,1,691.825,316.864Zm9.036-24.782a2.4,2.4,0,0,1-.748,0,2.673,2.673,0,0,1-1.818-3.315c1.2-4.117,2.3-8.367,3.261-12.591a2.737,2.737,0,1,1,5.347,1.176c-.989,4.331-2.112,8.688-3.342,12.912a2.673,2.673,0,0,1-2.7,1.818Zm5.8-25.717h-.428a2.673,2.673,0,0,1-2.219-3.074c.668-4.251,1.23-8.581,1.631-12.912a2.685,2.685,0,1,1,5.347.508c-.428,4.438-1.016,8.9-1.711,13.367A2.673,2.673,0,0,1,706.662,266.366Zm2.486-26.252h0a2.673,2.673,0,0,1-2.673-2.673V224.421a2.673,2.673,0,0,1,5.347,0v13.367a2.673,2.673,0,0,1-2.673,2.379Zm-.936-26.332a2.673,2.673,0,0,1-2.673-2.406c-.454-4.331-1.043-8.661-1.791-12.885a2.712,2.712,0,0,1,5.347-.909c.775,4.331,1.39,8.8,1.845,13.367a2.673,2.673,0,0,1-2.379,2.941ZM703.641,187.8a2.673,2.673,0,0,1-2.673-2c-1.069-4.224-2.3-8.394-3.662-12.458a2.673,2.673,0,1,1,5.053-1.711c1.417,4.2,2.673,8.5,3.8,12.859a2.673,2.673,0,0,1-2.673,3.315Zm-8.5-24.969a2.673,2.673,0,0,1-2.459-1.6,127.078,127.078,0,0,0-5.641-11.656,2.706,2.706,0,1,1,4.7-2.673c2.112,3.9,4.063,8.02,5.855,12.083a2.673,2.673,0,0,1-1.417,3.5,2.433,2.433,0,0,1-1.043.348Zm-12.484-23.178a2.674,2.674,0,0,1-2.246-1.2,129.048,129.048,0,0,0-7.539-10.56,2.672,2.672,0,1,1,4.17-3.342c2.673,3.449,5.347,7.111,8.02,10.854a2.673,2.673,0,0,1-2.219,4.144Zm-16.468-20.584a2.673,2.673,0,0,1-1.925-.829c-2.941-3.074-6.068-6.122-9.33-9.036a2.688,2.688,0,0,1,3.609-3.983c3.342,3.021,6.576,6.175,9.6,9.33a2.673,2.673,0,0,1-1.952,4.518Zm-19.542-17.7a2.807,2.807,0,0,1-1.657-.561c-3.342-2.673-6.87-5.347-10.453-7.753a2.673,2.673,0,1,1,3.021-4.384c3.716,2.673,7.325,5.347,10.693,8.02a2.592,2.592,0,0,1-1.524,4.678ZM624.992,86.345a2.674,2.674,0,0,1-1.39-.4c-3.662-2.219-7.458-4.411-11.308-6.5a2.673,2.673,0,0,1,2.513-4.705c3.957,2.139,7.859,4.357,11.575,6.657a2.673,2.673,0,0,1-1.39,4.946Zm-23.2-12.538a2.674,2.674,0,0,1-1.15-.267c-3.9-1.845-8.02-3.636-11.923-5.347a2.678,2.678,0,1,1,2.058-4.946c4.09,1.711,8.18,3.555,12.164,5.347a2.673,2.673,0,0,1-1.15,5.079Zm-270-6.63a2.673,2.673,0,0,1-.882-5.213c4.17-1.5,8.394-2.914,12.565-4.251a2.673,2.673,0,1,1,1.631,5.079c-4.09,1.31-8.26,2.673-12.4,4.224a2.673,2.673,0,0,1-.775.16Zm245.73-3.449a2.219,2.219,0,0,1-.909-.187c-4.01-1.47-8.18-2.887-12.377-4.224a2.673,2.673,0,1,1,1.6-5.079c4.277,1.363,8.528,2.807,12.618,4.3a2.657,2.657,0,0,1-.936,5.186ZM357.02,59.184a2.7,2.7,0,1,1-.749-5.347c4.2-1.2,8.528-2.353,12.832-3.449a2.673,2.673,0,0,1,1.283,5.186c-4.251,1.069-8.5,2.219-12.645,3.4a2.247,2.247,0,0,1-.7.107Zm195.392-3.475a2.914,2.914,0,0,1-.7,0c-4.144-1.123-8.394-2.192-12.7-3.181a2.737,2.737,0,0,1,1.176-5.347c4.384,1.016,8.715,2.085,12.912,3.235a2.7,2.7,0,0,1-.7,5.347ZM382.63,52.662a2.688,2.688,0,0,1-.561-5.347c4.3-.936,8.688-1.791,12.992-2.673a2.716,2.716,0,1,1,.962,5.347c-4.251.775-8.581,1.631-12.832,2.673Zm144.091-2.887h-.508c-4.2-.8-8.555-1.524-12.912-2.139a2.675,2.675,0,0,1,.775-5.293c4.438.642,8.849,1.363,13.126,2.165a2.684,2.684,0,1,1-.481,5.347Zm-118.16-1.818a2.681,2.681,0,0,1-.4-5.347c4.384-.642,8.822-1.2,13.179-1.684a2.689,2.689,0,0,1,.588,5.347c-4.3.481-8.661,1.043-12.992,1.684Zm92.015-1.978h-.267c-4.277-.454-8.661-.829-13.046-1.123a2.68,2.68,0,1,1,.374-5.347c4.464.321,8.9.7,13.233,1.176a2.653,2.653,0,0,1-.294,5.293Zm-65.843-.962a2.677,2.677,0,0,1-.214-5.347c4.438-.321,8.875-.588,13.367-.775a2.673,2.673,0,1,1,0,5.347c-4.3.187-8.715.454-13.073.775Zm39.538-.882h0c-3.823,0-7.672-.187-11.442-.187h-1.657a2.673,2.673,0,1,1,0-5.347h1.684c3.823,0,7.726,0,11.6.187a2.673,2.673,0,1,1,0,5.347Z" transform="translate(-310.509 -38.6)" fill="#e0e0e0"/>
        <path id="Path_5442" data-name="Path 5442" d="M324.764,57a2.673,2.673,0,0,1-1.016-5.133l6.229-2.673a2.683,2.683,0,1,1,1.951,5l-6.149,2.486A2.833,2.833,0,0,1,324.764,57Z" transform="translate(-322.122 -21.181)" fill="#e0e0e0"/>
      </g>
      <g id="freepik--paper-plane--inject-110-2" data-name="freepik--paper-plane--inject-110" transform="translate(0 219.265)">
        <path id="Path_5443" data-name="Path 5443" d="M100.44,180.876,223.385,120.62l-88.647,84.316Z" transform="translate(42.822 -120.62)" fill="#ff5b36"/>
        <path id="Path_5444" data-name="Path 5444" d="M252.718,120.62,117.155,165.211,82.91,141.151Z" transform="translate(13.489 -120.62)" fill="#ff5b36"/>
        <path id="Path_5445" data-name="Path 5445" d="M95.72,165.211l5.373,34.432,7.245-18.767L231.283,120.62Z" transform="translate(34.924 -120.62)" fill="#ff5b36"/>
        <path id="Path_5446" data-name="Path 5446" d="M95.72,165.211l5.373,34.432,7.245-18.767L231.283,120.62Z" transform="translate(34.924 -120.62)" opacity="0.25"/>
        <path id="Path_5447" data-name="Path 5447" d="M97.73,161.927l18.686-10.747-11.442-8.02Z" transform="translate(38.288 -82.904)" fill="#ff5b36"/>
        <path id="Path_5448" data-name="Path 5448" d="M100.44,143.16l11.442,8.02-2.994,1.711Z" transform="translate(42.822 -82.904)" opacity="0.25"/>
        <path id="Path_5449" data-name="Path 5449" d="M199.362,500.681a2.673,2.673,0,0,1-.909-.16c-4.331-1.55-8.555-3.154-12.591-4.732a2.676,2.676,0,0,1,1.978-4.972c3.957,1.55,8.02,3.128,12.431,4.678a2.673,2.673,0,0,1-.909,5.186Zm-24.835-9.865a2.673,2.673,0,0,1-1.069-.214c-4.17-1.845-8.26-3.743-12.217-5.667a2.678,2.678,0,0,1,2.353-4.812c3.876,1.9,8.02,3.769,12.03,5.587a2.673,2.673,0,0,1-1.1,5.106Zm-24.06-11.763a2.674,2.674,0,0,1-1.283-.321c-3.983-2.192-8.02-4.464-11.682-6.79a2.673,2.673,0,0,1,2.673-4.545c3.689,2.272,7.539,4.491,11.442,6.63a2.673,2.673,0,0,1-1.283,5.026Zm-22.723-14.035a2.674,2.674,0,0,1-1.524-.481c-3.743-2.673-7.378-5.347-10.854-8.02a2.758,2.758,0,1,1,3.449-4.3c3.368,2.673,6.924,5.347,10.693,7.859a2.673,2.673,0,0,1-1.524,4.865Zm-20.879-16.628a2.674,2.674,0,0,1-1.791-.7c-3.368-3.074-6.6-6.256-9.651-9.517a2.673,2.673,0,0,1,3.876-3.662c2.967,3.154,6.122,6.255,9.383,9.223a2.673,2.673,0,0,1-1.818,4.652ZM88.58,428.983a2.673,2.673,0,0,1-2.085-1.016c-2.834-3.5-5.534-7.164-8.02-10.907a2.677,2.677,0,0,1,4.438-2.994c2.433,3.609,5.079,7.164,7.806,10.693a2.538,2.538,0,0,1-2.032,4.224ZM73.61,406.9a2.673,2.673,0,0,1-2.326-1.363c-2.192-3.9-4.277-8.02-6.175-12.083a2.679,2.679,0,1,1,4.865-2.246c1.818,3.983,3.85,8.02,5.961,11.682a2.673,2.673,0,0,1-1.016,3.662,2.807,2.807,0,0,1-1.2.348ZM62.542,382.708a2.673,2.673,0,0,1-2.513-1.738c-1.551-4.17-2.967-8.5-4.224-12.885a2.673,2.673,0,1,1,5.133-1.47c1.23,4.251,2.673,8.448,4.09,12.511a2.654,2.654,0,0,1-2.486,3.582Zm-7.459-25.637a2.673,2.673,0,0,1-2.673-2.112c-.936-4.3-1.791-8.768-2.486-13.367a2.679,2.679,0,0,1,5.293-.829c.668,4.411,1.5,8.768,2.406,12.992a2.673,2.673,0,0,1-2.032,3.181,2.2,2.2,0,0,1-.508.08Zm-4.17-26.386a2.673,2.673,0,0,1-2.673-2.406c-.454-4.3-.829-8.822-1.1-13.367a2.677,2.677,0,0,1,5.347-.294c.267,4.518.615,8.956,1.069,13.206a2.673,2.673,0,0,1-2.379,2.914Zm-1.39-26.733h0a2.673,2.673,0,0,1-2.673-2.673,135.534,135.534,0,0,1,.8-13.554,2.673,2.673,0,1,1,5.32.535c-.428,4.358-.7,8.768-.775,13.126a2.673,2.673,0,0,1-2.673,2.566ZM52.2,277.38h-.481a2.673,2.673,0,0,1-2.139-3.1c.8-4.438,1.818-8.875,2.967-13.367A2.672,2.672,0,0,1,57.7,262.3c-1.123,4.224-2.085,8.555-2.887,12.832A2.673,2.673,0,0,1,52.2,277.38Zm6.9-25.664a2.683,2.683,0,0,1-2.513-3.582c1.5-4.224,3.181-8.474,5.026-12.618a2.673,2.673,0,1,1,4.865,2.192c-1.764,3.983-3.422,8.02-4.865,12.217A2.673,2.673,0,0,1,59.094,251.716Zm10.854-24.407a2.673,2.673,0,0,1-2.326-3.956c2.139-3.956,4.491-8.02,6.951-11.656a2.673,2.673,0,0,1,4.464,2.914c-2.379,3.662-4.652,7.458-6.737,11.308a2.673,2.673,0,0,1-2.353,1.256ZM84.677,204.8a2.673,2.673,0,0,1-2.112-4.3c2.673-3.582,5.694-7.084,8.715-10.4a2.678,2.678,0,0,1,3.957,3.609c-2.914,3.208-5.774,6.6-8.448,10.052a2.673,2.673,0,0,1-2.112,1.043Zm17.991-19.729a2.673,2.673,0,0,1-1.818-4.625c3.288-3.1,6.763-6.068,10.292-8.849a2.674,2.674,0,0,1,3.315,4.2c-3.422,2.673-6.763,5.56-9.971,8.555a2.673,2.673,0,0,1-1.952.722Zm20.959-16.548A2.673,2.673,0,0,1,122.1,163.5c3.743-2.486,7.646-4.839,11.6-7.031a2.694,2.694,0,1,1,2.673,4.678c-3.823,2.112-7.619,4.411-11.228,6.817a2.673,2.673,0,0,1-1.657.561Zm23.2-13.046a2.673,2.673,0,0,1-1.1-5.106c4.09-1.845,8.314-3.582,12.565-5.106a2.673,2.673,0,0,1,1.818,5.026c-4.117,1.5-8.207,3.154-12.19,4.946A2.673,2.673,0,0,1,146.832,155.477Z" transform="translate(-46.85 -79.608)" fill="#e0e0e0"/>
      </g>
    </g>
    <g id="freepik--Icon--inject-110" transform="translate(587.351 988.497)">
      <g id="freepik--At--inject-110">
        <path id="Path_5450" data-name="Path 5450" d="M497.078,461.2a2.673,2.673,0,0,0-1.39-2.379,8.715,8.715,0,0,0-5.881-1.738,13.716,13.716,0,0,0-6.2,1.5l-10.693,5.694a19.087,19.087,0,0,0,1.952-4.892,16.758,16.758,0,0,0,.428-4.01V439.5a18.712,18.712,0,0,0-1.6-7.378,28.446,28.446,0,0,0-9.57-10.827c-3.288-2.513-7.218-5.347-11.843-8.314s-8.8-5.56-12.565-7.672a154.566,154.566,0,0,0-31.652-12.618,131.793,131.793,0,0,0-36.624-4.678,170.135,170.135,0,0,0-41.6,5.935,216.543,216.543,0,0,0-46.542,18.713q-20.932,11.068-31.572,23.017a50.365,50.365,0,0,0-12.912,23.552,34.053,34.053,0,0,0-.668,7.111v16.04a34.753,34.753,0,0,0,3.8,15.585,57.556,57.556,0,0,0,16.574,19.515c1.577,1.23,3.85,2.86,6.844,4.919s6.175,4.2,9.6,6.416,6.683,4.357,9.918,6.362,5.828,3.582,7.859,4.732a133.111,133.111,0,0,0,31.786,11.709,157.433,157.433,0,0,0,37.426,4.117,176.178,176.178,0,0,0,40.581-5.133,200.1,200.1,0,0,0,68.7-32.989,93.267,93.267,0,0,0,15.532-14.89,42.023,42.023,0,0,0,7.458-13.179,80.6,80.6,0,0,0,2.807-11.682,3.664,3.664,0,0,0,0-.508C497.078,476.6,497.078,461.363,497.078,461.2Zm-40.1,19.194a44.759,44.759,0,0,1-6.149,6.95,88.209,88.209,0,0,1-10.4,8.02,179.839,179.839,0,0,1-16.28,9.544,127.468,127.468,0,0,1-28.284,11.094,125.938,125.938,0,0,1-28.177,4.037,114.712,114.712,0,0,1-26.733-2.379,97.737,97.737,0,0,1-23.846-8.207,78.854,78.854,0,0,1-7.806-4.411c-3.021-1.871-6.1-3.823-9.223-5.881s-6.1-4.037-8.875-5.962a57.778,57.778,0,0,1-6.309-4.839,42.132,42.132,0,0,1-11.576-14.97c-.24-.615-.481-1.2-.695-1.818a38.736,38.736,0,0,1,9.116-13.848A86.611,86.611,0,0,1,303.4,442.3a183.3,183.3,0,0,1,31.518-13.367,127.579,127.579,0,0,1,16.04-3.85l-2.673,1.47a4.946,4.946,0,0,0-2.967,3.475,3.475,3.475,0,0,0,1.871,3.5L349,434.71a57.819,57.819,0,0,0-14.249,0,51.115,51.115,0,0,0-17.136,6.122,36.09,36.09,0,0,0-12.966,10.426,17.377,17.377,0,0,0-3.582,10.292v16.414a13.983,13.983,0,0,0,0,1.5,24.542,24.542,0,0,0,5.347,12.4,56.7,56.7,0,0,0,14.088,12.324,83.577,83.577,0,0,0,19.462,9.49,85.335,85.335,0,0,0,20.825,4.25,78.3,78.3,0,0,0,20.665-1.123,66.835,66.835,0,0,0,19.007-6.63,70.762,70.762,0,0,0,11.5-7.271,27.181,27.181,0,0,0,5.8-6.149,11.925,11.925,0,0,0,1.9-5.347,28.591,28.591,0,0,0,0-4.785,71.929,71.929,0,0,0,16.281-1.15,73.7,73.7,0,0,0,21.386-8.02l1.23-.722A8.89,8.89,0,0,1,456.978,480.4Zm-95.41-15.746a46.489,46.489,0,0,1,19.756,7.646,45.949,45.949,0,0,1,5.961,4.6,30.2,30.2,0,0,1-3.128,1.925,30.983,30.983,0,0,1-18.366,3.342,45.207,45.207,0,0,1-19.782-7.539,39.358,39.358,0,0,1-6.1-4.759,21.171,21.171,0,0,1,2.807-1.764,31.01,31.01,0,0,1,18.927-3.448ZM436.073,448.8a26.333,26.333,0,0,1-9.57,2.139,18.551,18.551,0,0,1-11.121-2.887l-36.2-23.712a92.525,92.525,0,0,1,10.827,1.871,112.063,112.063,0,0,1,25.423,9.517,135.146,135.146,0,0,1,11.816,6.9c3.261,2.085,6.149,4.2,8.9,6.175Z" transform="translate(-238.139 -387.991)" fill="#ff5b36"/>
        <path id="Path_5451" data-name="Path 5451" d="M497.078,461.2a2.673,2.673,0,0,0-1.39-2.379,8.715,8.715,0,0,0-5.881-1.738,13.716,13.716,0,0,0-6.2,1.5l-10.693,5.694a19.087,19.087,0,0,0,1.952-4.892,16.758,16.758,0,0,0,.428-4.01V439.5a18.712,18.712,0,0,0-1.6-7.378,28.446,28.446,0,0,0-9.57-10.827c-3.288-2.513-7.218-5.347-11.843-8.314s-8.8-5.56-12.565-7.672a154.566,154.566,0,0,0-31.652-12.618,131.793,131.793,0,0,0-36.624-4.678,170.135,170.135,0,0,0-41.6,5.935,216.543,216.543,0,0,0-46.542,18.713q-20.932,11.068-31.572,23.017a50.365,50.365,0,0,0-12.912,23.552,34.053,34.053,0,0,0-.668,7.111v16.04a34.753,34.753,0,0,0,3.8,15.585,57.556,57.556,0,0,0,16.574,19.515c1.577,1.23,3.85,2.86,6.844,4.919s6.175,4.2,9.6,6.416,6.683,4.357,9.918,6.362,5.828,3.582,7.859,4.732a133.111,133.111,0,0,0,31.786,11.709,157.433,157.433,0,0,0,37.426,4.117,176.178,176.178,0,0,0,40.581-5.133,200.1,200.1,0,0,0,68.7-32.989,93.267,93.267,0,0,0,15.532-14.89,42.023,42.023,0,0,0,7.458-13.179,80.6,80.6,0,0,0,2.807-11.682,3.664,3.664,0,0,0,0-.508C497.078,476.6,497.078,461.363,497.078,461.2Zm-40.1,19.194a44.759,44.759,0,0,1-6.149,6.95,88.209,88.209,0,0,1-10.4,8.02,179.839,179.839,0,0,1-16.28,9.544,127.468,127.468,0,0,1-28.284,11.094,125.938,125.938,0,0,1-28.177,4.037,114.712,114.712,0,0,1-26.733-2.379,97.737,97.737,0,0,1-23.846-8.207,78.854,78.854,0,0,1-7.806-4.411c-3.021-1.871-6.1-3.823-9.223-5.881s-6.1-4.037-8.875-5.962a57.778,57.778,0,0,1-6.309-4.839,42.132,42.132,0,0,1-11.576-14.97c-.24-.615-.481-1.2-.695-1.818a38.736,38.736,0,0,1,9.116-13.848A86.611,86.611,0,0,1,303.4,442.3a183.3,183.3,0,0,1,31.518-13.367,127.579,127.579,0,0,1,16.04-3.85l-2.673,1.47a4.946,4.946,0,0,0-2.967,3.475,3.475,3.475,0,0,0,1.871,3.5L349,434.71a57.819,57.819,0,0,0-14.249,0,51.115,51.115,0,0,0-17.136,6.122,36.09,36.09,0,0,0-12.966,10.426,17.377,17.377,0,0,0-3.582,10.292v16.414a13.983,13.983,0,0,0,0,1.5,24.542,24.542,0,0,0,5.347,12.4,56.7,56.7,0,0,0,14.088,12.324,83.577,83.577,0,0,0,19.462,9.49,85.335,85.335,0,0,0,20.825,4.25,78.3,78.3,0,0,0,20.665-1.123,66.835,66.835,0,0,0,19.007-6.63,70.762,70.762,0,0,0,11.5-7.271,27.181,27.181,0,0,0,5.8-6.149,11.925,11.925,0,0,0,1.9-5.347,28.591,28.591,0,0,0,0-4.785,71.929,71.929,0,0,0,16.281-1.15,73.7,73.7,0,0,0,21.386-8.02l1.23-.722A8.89,8.89,0,0,1,456.978,480.4Zm-95.41-15.746a46.489,46.489,0,0,1,19.756,7.646,45.949,45.949,0,0,1,5.961,4.6,30.2,30.2,0,0,1-3.128,1.925,30.983,30.983,0,0,1-18.366,3.342,45.207,45.207,0,0,1-19.782-7.539,39.358,39.358,0,0,1-6.1-4.759,21.171,21.171,0,0,1,2.807-1.764,31.01,31.01,0,0,1,18.927-3.448ZM436.073,448.8a26.333,26.333,0,0,1-9.57,2.139,18.551,18.551,0,0,1-11.121-2.887l-36.2-23.712a92.525,92.525,0,0,1,10.827,1.871,112.063,112.063,0,0,1,25.423,9.517,135.146,135.146,0,0,1,11.816,6.9c3.261,2.085,6.149,4.2,8.9,6.175Z" transform="translate(-238.139 -387.991)" opacity="0.2"/>
        <path id="Path_5452" data-name="Path 5452" d="M251.972,459.586a38.735,38.735,0,0,1,9.116-13.848,86.616,86.616,0,0,1,21.654-15.425,183.3,183.3,0,0,1,31.518-13.367A127.6,127.6,0,0,1,330.3,413.1l9.731-5.16a12.67,12.67,0,0,1,6.175-1.363,10.532,10.532,0,0,1,5.721,1.47l6.416,4.2a92.548,92.548,0,0,1,10.827,1.871,112.058,112.058,0,0,1,25.423,9.517,135.17,135.17,0,0,1,11.816,6.9c3.181,2.085,6.068,4.144,8.822,6.175a13.64,13.64,0,0,0,1.55-.7,9.623,9.623,0,0,0,5.587-6.149c.535-2.406-1.176-5.106-5.133-8.02-3.288-2.513-6.9-5.079-10.693-7.646a122.981,122.981,0,0,0-11.816-6.9A109.6,109.6,0,0,0,369.3,397.78a93.557,93.557,0,0,0-26.519-2.433,116.13,116.13,0,0,0-28.471,5.347A183.547,183.547,0,0,0,282.8,414.06a85.92,85.92,0,0,0-21.654,15.4,36.44,36.44,0,0,0-9.784,16.04,24.488,24.488,0,0,0,1.363,16.04,36.622,36.622,0,0,0,4.6,7.7,36.622,36.622,0,0,1-4.6-7.7C252.426,460.79,252.186,460.2,251.972,459.586Z" transform="translate(-217.297 -375.896)" opacity="0.1"/>
        <path id="Path_5453" data-name="Path 5453" d="M320.527,418.361a46.545,46.545,0,0,0-19.756-7.672,31.037,31.037,0,0,0-18.713,3.475c-5.614,2.967-8.02,6.443-7.459,10.453a14.168,14.168,0,0,0,4.678,7.726h0a23.028,23.028,0,0,1,2.807-1.765A31.01,31.01,0,0,1,300.8,427.13a46.491,46.491,0,0,1,19.756,7.646,45.94,45.94,0,0,1,5.962,4.6l-1.417.936q7.058-4.331,6.309-9.544C330.793,426.862,327.21,422.639,320.527,418.361Z" transform="translate(-177.262 -350.443)" opacity="0.1"/>
        <path id="Path_5454" data-name="Path 5454" d="M321.567,456.108a86.028,86.028,0,0,1-40.287-13.741,56.139,56.139,0,0,1-14.088-12.35,24.46,24.46,0,0,1-5.347-12.378,17.686,17.686,0,0,1,0-2.379v17.27a14.015,14.015,0,0,0,0,1.5,24.54,24.54,0,0,0,5.347,12.4,56.7,56.7,0,0,0,14.088,12.324,83.567,83.567,0,0,0,19.462,9.49,85.342,85.342,0,0,0,20.825,4.25Z" transform="translate(-198.539 -342.369)" opacity="0.1"/>
        <path id="Path_5455" data-name="Path 5455" d="M306.22,419.56v16.414a71.937,71.937,0,0,0,16.28-1.15V418.41a70.416,70.416,0,0,1-16.28,1.149Z" transform="translate(-124.219 -337.098)" opacity="0.1"/>
        <path id="Path_5456" data-name="Path 5456" d="M324.538,486.529a131.957,131.957,0,0,1-31.786-11.709c-2.032-1.123-4.651-2.673-7.859-4.705s-6.523-4.144-9.918-6.363-6.6-4.384-9.6-6.416-5.347-3.689-6.844-4.919a57.635,57.635,0,0,1-16.574-19.542,34.754,34.754,0,0,1-3.769-15.666v16.414a34.753,34.753,0,0,0,3.8,15.585,57.555,57.555,0,0,0,16.574,19.515c1.577,1.23,3.85,2.86,6.844,4.919s6.175,4.2,9.6,6.416,6.683,4.357,9.918,6.362,5.828,3.582,7.859,4.732a133.113,133.113,0,0,0,31.786,11.709,157.434,157.434,0,0,0,37.426,4.117V490.592A157.409,157.409,0,0,1,324.538,486.529Z" transform="translate(-238.054 -339.106)" opacity="0.1"/>
        <path id="Path_5457" data-name="Path 5457" d="M464.071,421.293a28.446,28.446,0,0,1,9.57,10.827A17.083,17.083,0,0,1,474.818,443a22.374,22.374,0,0,1-5.747,10.025,42.615,42.615,0,0,1-11.228,8.314,72.955,72.955,0,0,1-21.386,8.02,70.416,70.416,0,0,1-16.28,1.15v4.785a11.708,11.708,0,0,1-1.9,5.347,26.736,26.736,0,0,1-5.8,6.149,70.647,70.647,0,0,1-11.5,7.3,67.713,67.713,0,0,1-19.007,6.63,78.3,78.3,0,0,1-20.665,1.123A86.028,86.028,0,0,1,321.022,488.1a56.14,56.14,0,0,1-14.088-12.351,24.46,24.46,0,0,1-5.347-12.377,17.056,17.056,0,0,1,3.5-11.816,36.089,36.089,0,0,1,12.966-10.426,51.115,51.115,0,0,1,17.136-6.122,57.819,57.819,0,0,1,14.249,0l-1.818-1.176a3.475,3.475,0,0,1-1.871-3.5,4.946,4.946,0,0,1,2.967-3.475l12.484-6.63a12.673,12.673,0,0,1,6.175-1.363,10.532,10.532,0,0,1,5.721,1.47l42.613,27.909a18.5,18.5,0,0,0,11.121,2.887,25.61,25.61,0,0,0,11.121-2.834,9.623,9.623,0,0,0,5.587-6.149c.535-2.406-1.176-5.106-5.133-8.02-3.288-2.513-6.9-5.079-10.693-7.646a122.93,122.93,0,0,0-11.816-6.9,109.6,109.6,0,0,0-25.423-9.517,93.566,93.566,0,0,0-26.492-2.433,116.1,116.1,0,0,0-28.5,5.346,183.553,183.553,0,0,0-31.518,13.367,85.923,85.923,0,0,0-21.654,15.4,36.438,36.438,0,0,0-9.784,16.04,24.487,24.487,0,0,0,1.363,16.04,42.129,42.129,0,0,0,11.575,14.97,57.748,57.748,0,0,0,6.309,4.839c2.673,1.925,5.748,3.9,8.875,5.961s6.2,4.01,9.223,5.881a78.858,78.858,0,0,0,7.806,4.411,97.739,97.739,0,0,0,23.846,8.207,114.721,114.721,0,0,0,26.733,2.379,125.937,125.937,0,0,0,28.177-4.037,127.461,127.461,0,0,0,28.284-11.094A179.831,179.831,0,0,0,441,495.8a88.218,88.218,0,0,0,10.4-8.02,40.528,40.528,0,0,0,9.6-12.912,24.639,24.639,0,0,1,1.925-3.743,9.57,9.57,0,0,1,3.5-2.673l17.216-9.865a13.714,13.714,0,0,1,6.2-1.5,8.715,8.715,0,0,1,5.881,1.738,2.674,2.674,0,0,1,1.337,2.86,80.6,80.6,0,0,1-2.807,11.682,42.319,42.319,0,0,1-7.459,13.18,94.349,94.349,0,0,1-15.532,14.863A181.249,181.249,0,0,1,444.4,518.28a179.11,179.11,0,0,1-41.837,16.04,176.249,176.249,0,0,1-40.581,5.16,157.4,157.4,0,0,1-37.426-4.144,131.953,131.953,0,0,1-31.786-11.709c-2.032-1.123-4.651-2.673-7.859-4.705s-6.523-4.144-9.918-6.362-6.6-4.384-9.6-6.416-5.347-3.689-6.844-4.919a57.639,57.639,0,0,1-16.574-19.542,34.351,34.351,0,0,1-3.128-22.4,50.365,50.365,0,0,1,12.912-23.552q10.693-11.95,31.572-23.017A216.54,216.54,0,0,1,329.871,394a170.137,170.137,0,0,1,41.49-5.988,131.794,131.794,0,0,1,36.544,4.571A154.567,154.567,0,0,1,439.557,405.2q5.641,3.155,12.565,7.672C456.906,416,460.783,418.78,464.071,421.293ZM346.018,474.625a45.2,45.2,0,0,0,19.782,7.539,30.983,30.983,0,0,0,18.366-3.342c5.908-3.128,8.581-6.656,8.02-10.533s-4.17-8.02-10.854-12.377a46.544,46.544,0,0,0-19.756-7.672,31.037,31.037,0,0,0-18.713,3.475c-5.614,2.967-8.02,6.443-7.459,10.453S339.495,470.348,346.018,474.625Z" transform="translate(-238.067 -387.994)" fill="#ff5b36"/>
      </g>
    </g>
    <g id="freepik--Envelope--inject-110" transform="translate(817.097 838.027)">
      <g id="freepik--Mail--inject-110">
        <path id="Path_5458" data-name="Path 5458" d="M324.08,442.606v1.952A10.907,10.907,0,0,0,329,453.112l105.81,61.112a10.88,10.88,0,0,0,9.865,0L619.881,413.066a10.907,10.907,0,0,0,4.919-8.555V402.56A10.907,10.907,0,0,0,619.881,394L514.072,332.92a10.881,10.881,0,0,0-9.865,0L329,434.024A10.907,10.907,0,0,0,324.08,442.606Z" transform="translate(-324.08 -331.658)" fill="#ff5b36"/>
        <path id="Path_5459" data-name="Path 5459" d="M324.08,442.606v1.952A10.907,10.907,0,0,0,329,453.112l105.81,61.112a10.88,10.88,0,0,0,9.865,0L619.881,413.066a10.907,10.907,0,0,0,4.919-8.555V402.56A10.907,10.907,0,0,0,619.881,394L514.072,332.92a10.881,10.881,0,0,0-9.865,0L329,434.024A10.907,10.907,0,0,0,324.08,442.606Z" transform="translate(-324.08 -331.658)" fill="#ff5b36"/>
        <path id="Path_5460" data-name="Path 5460" d="M439.727,346.09,329,410.009a10.907,10.907,0,0,0-4.919,8.555v1.952A10.907,10.907,0,0,0,329,429.069l105.81,61.138a10.213,10.213,0,0,0,4.919,1.176h0Z" transform="translate(-324.08 -307.642)" opacity="0.2"/>
        <path id="Path_5461" data-name="Path 5461" d="M439.727,346.09,329,410.009a10.907,10.907,0,0,0-4.919,8.555v1.952A10.907,10.907,0,0,0,329,429.069l105.81,61.138a10.213,10.213,0,0,0,4.919,1.176h0Z" transform="translate(-324.08 -307.642)" opacity="0.15"/>
        <path id="Path_5462" data-name="Path 5462" d="M547.494,393.975,441.685,332.89a10.881,10.881,0,0,0-9.865,0L367.34,370.1V515.37h0a10.239,10.239,0,0,0,4.946-1.176L547.494,413.036a10.907,10.907,0,0,0,4.919-8.555V402.53a10.908,10.908,0,0,0-4.919-8.555Z" transform="translate(-251.693 -331.708)" opacity="0.2"/>
        <path id="Path_5463" data-name="Path 5463" d="M416.075,491.063l-88.861-51.3a2.994,2.994,0,0,1,0-5.694L502.423,332.91a10.88,10.88,0,0,1,9.865,0L618.1,393.942a2.994,2.994,0,0,1,0,5.694l-29.086,16.788-10.159,5.881L442.888,500.874a10.88,10.88,0,0,1-9.865,0l-8.635-4.972Z" transform="translate(-322.295 -331.674)" fill="#ff5b36"/>
        <path id="Path_5464" data-name="Path 5464" d="M496.716,405.848l121.341-11.9-120.3,6.817,14.463-67.9a10.133,10.133,0,0,0-5.347-1.123l-22.7,91.775L325.17,436.725a3.315,3.315,0,0,0,2,3.074l128.319-7.459-17.7,69.72,22.616-69.987h0l21.921-1.283a11.976,11.976,0,0,0,7.245-3.021h0a11.815,11.815,0,0,0,3.689-6.362Z" transform="translate(-322.256 -331.684)" opacity="0.15"/>
        <path id="Path_5465" data-name="Path 5465" d="M363.1,433.5l121.074-9.971,4.331-17.35,2.406-9.651,16.04-64.774a9.784,9.784,0,0,0-4.491,1.123l-87.6,50.579L327.175,434a3.582,3.582,0,0,0-2.005,2.673l24.3-2Z" transform="translate(-322.256 -331.637)" fill="#fff" opacity="0.3"/>
      </g>
    </g>
  </g>
</svg>
