<svg xmlns="http://www.w3.org/2000/svg" width="1534.125" height="969.257" viewBox="0 0 1534.125 969.257">
  <g id="Time_management-pana_1_" data-name="Time management-pana (1)" transform="translate(0 0)">
    <g id="freepik--background-complete--inject-162" transform="translate(71.287 14.435)">
      <rect id="Rectangle_1285" data-name="Rectangle 1285" width="214.211" height="310.506" transform="translate(10.764 45.252)" fill="#e0e0e0"/>
      <rect id="Rectangle_1286" data-name="Rectangle 1286" width="214.211" height="310.506" transform="translate(0.023 45.252)" fill="#f5f5f5"/>
      <rect id="Rectangle_1287" data-name="Rectangle 1287" width="160.997" height="243.235" transform="translate(26.642 78.876)" fill="#fff"/>
      <path id="Path_4497" data-name="Path 4497" d="M264.417,329.783V311.8c0-11.675,0-28.65-.163-50.109,0-42.894-.14-103.65-.257-175.124l.537.537H103.56l.584-.584V329.783l-.467-.467,117.193.234,32.363.117H221.15l-117.473.234h-.467V85.59H265.328v.957c0,71.684-.21,132.534-.257,175.521,0,21.412-.117,38.34-.163,49.969v16.625A1.4,1.4,0,0,1,264.417,329.783Z" transform="translate(-76.778 -7.648)" fill="#e0e0e0"/>
      <path id="Path_4498" data-name="Path 4498" d="M200.571,71.59a38.385,38.385,0,0,1-3.829,5.627c-2.475,3.316-6.024,7.846-10.04,12.749s-7.8,9.223-10.6,12.305a37.056,37.056,0,0,1-4.67,4.81,39.979,39.979,0,0,1,4.086-5.347l10.321-12.516,10.274-12.586a39.694,39.694,0,0,1,4.46-5.044Z" transform="translate(14.295 -26.338)" fill="#e0e0e0"/>
      <path id="Path_4499" data-name="Path 4499" d="M172.6,189.83a199.617,199.617,0,0,0,28.02,35.025" transform="translate(15.857 131.511)" fill="#fff"/>
      <path id="Path_4500" data-name="Path 4500" d="M200.7,224.948a29.539,29.539,0,0,1-4.9-4.46,157.322,157.322,0,0,1-10.6-11.932c-3.876-4.88-7.122-9.527-9.34-12.959a33.831,33.831,0,0,1-3.269-5.767,44.756,44.756,0,0,1,3.946,5.3c2.335,3.316,5.7,7.846,9.55,12.679s7.589,9.083,10.3,12.119a46.192,46.192,0,0,1,4.32,5.02Z" transform="translate(15.843 131.511)" fill="#e0e0e0"/>
      <path id="Path_4501" data-name="Path 4501" d="M91.89,224.244l28.02-34.6" transform="translate(-91.89 131.257)" fill="#fff"/>
      <path id="Path_4502" data-name="Path 4502" d="M119.956,189.64a218.646,218.646,0,0,1-13.59,17.676A206.455,206.455,0,0,1,91.89,224.244a218.645,218.645,0,0,1,13.59-17.676,206.46,206.46,0,0,1,14.477-16.929Z" transform="translate(-91.89 131.257)" fill="#e0e0e0"/>
      <path id="Path_4503" data-name="Path 4503" d="M91.9,71.59a194.439,194.439,0,0,1,13.636,16.345,192.193,192.193,0,0,1,12.7,17.022,194.679,194.679,0,0,1-13.613-16.345A193.4,193.4,0,0,1,91.9,71.59Z" transform="translate(-91.877 -26.338)" fill="#e0e0e0"/>
      <rect id="Rectangle_1288" data-name="Rectangle 1288" width="53.915" height="153.058" transform="translate(83.569 128.261)" fill="#e0e0e0"/>
      <path id="Path_4504" data-name="Path 4504" d="M427.606,52.21V188.2h-195.3L225.28,53.167Z" transform="translate(86.184 -52.21)" fill="#e0e0e0"/>
      <rect id="Rectangle_1289" data-name="Rectangle 1289" width="134.729" height="195.298" transform="translate(311.44 135.686) rotate(-90)" fill="#fff"/>
      <path id="Path_4505" data-name="Path 4505" d="M422.023,188.817H224.88V52.22H422.023Zm-195.275-1.845h193.43V54.041H226.748Z" transform="translate(85.65 -52.197)" fill="#e0e0e0"/>
      <rect id="Rectangle_1290" data-name="Rectangle 1290" width="152.988" height="101.245" transform="translate(332.619 17.699)" fill="#fff"/>
      <path id="Path_4506" data-name="Path 4506" d="M387.769,60.044H344.9l-110.118.49.444-.444V161.335h0l-.467-.467H387.745l-.4.374c0-30.8.163-56.04.21-73.669V67.049c0,4.67,0,11.535.117,20.291,0,17.652.117,43.01.187,73.9v.4H234.01v-.49h0V59.6h.444l110.421.21,31.429.14h11.138Z" transform="translate(97.838 -42.344)" fill="#e0e0e0"/>
      <path id="Path_4507" data-name="Path 4507" d="M225.28,52.46a16.018,16.018,0,0,1,3.362,2.172c1.985,1.448,4.67,3.5,7.659,5.837s5.511,4.67,7.332,6.234a17.348,17.348,0,0,1,2.8,2.872,133.231,133.231,0,0,1-10.741-8.359A107.055,107.055,0,0,1,225.28,52.46Z" transform="translate(86.184 -51.876)" fill="#e0e0e0"/>
      <path id="Path_4508" data-name="Path 4508" d="M321.015,52.62a94.551,94.551,0,0,1-10.274,8.756,95.735,95.735,0,0,1-10.881,7.986,94.544,94.544,0,0,1,10.274-8.756,93.394,93.394,0,0,1,10.881-7.986Z" transform="translate(185.747 -51.663)" fill="#e0e0e0"/>
      <path id="Path_4509" data-name="Path 4509" d="M321.305,120.422,299.52,102.77" transform="translate(185.293 15.287)" fill="#fff"/>
      <path id="Path_4510" data-name="Path 4510" d="M299.52,102.77a106.753,106.753,0,0,1,11.208,8.453,104.277,104.277,0,0,1,10.577,9.2,100.408,100.408,0,0,1-11.184-8.453,99.915,99.915,0,0,1-10.6-9.2Z" transform="translate(185.293 15.287)" fill="#e0e0e0"/>
      <path id="Path_4511" data-name="Path 4511" d="M225.28,119.785a92.175,92.175,0,0,1,10.157-8.639A94.548,94.548,0,0,1,246.2,103.23a88.5,88.5,0,0,1-10.157,8.663A92.473,92.473,0,0,1,225.28,119.785Z" transform="translate(86.184 15.901)" fill="#e0e0e0"/>
      <rect id="Rectangle_1291" data-name="Rectangle 1291" width="33.904" height="96.271" transform="translate(363.674 83.149) rotate(-90)" fill="#e0e0e0"/>
      <path id="Path_4512" data-name="Path 4512" d="M746.716,313.548s-17.536-8.172-31.289,32.923-17.839,64.235-17.839,64.235-3.946,8.78-10.227,4.366-16.018-18.12-24.961-14.01-10.858,15.5-6.631,31.125S668,482.344,668.7,485.473s-.4,7.916-5.137,5.6-33.741-26.245-44.365-11.838,8.383,56.04,10.367,60.57,1.354,6.771-.747,8.289-11.044-7.448-19.567-14.01-19.521-12.469-24.914-3.643-2.592,41.726,36.332,90.014l19.5,21.178,28.323-5.861c59.846-16.228,81.421-41.213,82.238-51.533s-11.675-11.908-22.3-11.675-23.21,2.218-24-.257,0-4.67,4.25-7.005,44.014-25.1,43.968-42.964S715.076,506.862,709.869,506s-3.246-5.487-.887-7.565,29.164-25.381,41.75-35.539,17.956-20.221,12.913-29.071-20.781-3.176-28.44-3.292-5.721-9.55-5.721-9.55,10.274-21.015,23.35-62.461-6.491-45.018-6.491-45.018" transform="translate(562.744 295.789)" fill="#ebebeb"/>
      <path id="Path_4513" data-name="Path 4513" d="M605.48,626.094c9.667-30.355,27.74-83.943,43.034-130.059s29.094-87.842,38.924-118.1c4.88-15.131,8.826-27.366,11.675-35.865,1.378-4.2,2.335-7.5,3.176-9.76l.841-2.522c.187-.584.3-.864.3-.864a2.713,2.713,0,0,1-.233.887c-.234.584-.42,1.448-.747,2.545-.7,2.335-1.7,5.581-3.012,9.807-2.615,8.523-6.468,20.8-11.325,35.959-9.667,30.355-23.35,72.1-38.644,118.2s-33.484,99.7-43.314,129.965" transform="translate(593.745 317.194)" fill="#e0e0e0"/>
      <path id="Path_4514" data-name="Path 4514" d="M622.09,359.08a11.651,11.651,0,0,1,1,1.821c.607,1.191,1.424,2.965,2.335,5.137,1.985,4.366,4.67,10.461,7.262,17.232s5.043,12.726,7,17.349c.817,2.078,1.541,3.853,2.1,5.254a7.9,7.9,0,0,1,.7,1.961,11.672,11.672,0,0,1-1-1.821c-.607-1.191-1.424-2.942-2.335-5.137-1.938-4.39-4.437-10.507-7.145-17.279s-5.137-12.7-7-17.3l-2.148-5.254A8.309,8.309,0,0,1,622.09,359.08Z" transform="translate(615.919 357.457)" fill="#e0e0e0"/>
      <path id="Path_4515" data-name="Path 4515" d="M632,394.475c-.117-.234,12.212-6.071,27.529-13.076s27.786-12.469,28.02-12.235S675.314,375.235,660,382.217,632,394.732,632,394.475Z" transform="translate(629.148 370.909)" fill="#e0e0e0"/>
      <path id="Path_4516" data-name="Path 4516" d="M620.54,415.58a9.34,9.34,0,0,1,2.1-.42l5.721-.841c4.81-.7,11.488-1.7,18.8-3.105s13.87-2.825,18.68-3.946l5.627-1.284a8.5,8.5,0,0,1,2.1-.374,11.661,11.661,0,0,1-2.008.7c-1.308.4-3.2.957-5.557,1.588-4.67,1.261-11.3,2.825-18.68,4.2s-14.01,2.335-18.89,2.849c-2.335.28-4.39.467-5.767.56A12.213,12.213,0,0,1,620.54,415.58Z" transform="translate(613.849 419.574)" fill="#e0e0e0"/>
      <path id="Path_4517" data-name="Path 4517" d="M607.44,392.91a8.541,8.541,0,0,1,1.354,1.424l3.432,4.11c2.872,3.479,6.772,8.336,11.044,13.73s8.126,10.3,10.858,13.893l3.2,4.273a9.937,9.937,0,0,1,1.1,1.635,7.475,7.475,0,0,1-1.354-1.424l-3.432-4.086c-2.872-3.5-6.772-8.336-11.068-13.73s-8.1-10.321-10.834-13.893l-3.2-4.273a8.5,8.5,0,0,1-1.1-1.658Z" transform="translate(596.361 402.619)" fill="#e0e0e0"/>
      <path id="Path_4518" data-name="Path 4518" d="M594,418a12.017,12.017,0,0,1,1.7,1.845c1.167,1.354,2.639,3.129,4.413,5.23,3.713,4.436,8.756,10.624,14.313,17.489s10.531,13.1,14.01,17.653l4.2,5.394a14.164,14.164,0,0,1,1.424,2.078,15.94,15.94,0,0,1-1.7-1.845l-4.413-5.23c-3.689-4.46-8.756-10.624-14.313-17.489s-10.531-13.1-14.01-17.652c-1.681-2.172-3.106-3.993-4.18-5.417A12.809,12.809,0,0,1,594,418Z" transform="translate(578.419 436.114)" fill="#e0e0e0"/>
      <path id="Path_4519" data-name="Path 4519" d="M611,446.9a17.706,17.706,0,0,1,2.615-.584l7.215-1.308c6.094-1.121,14.5-2.709,23.723-4.67s17.536-4.016,23.537-5.534l7.122-1.775a16.707,16.707,0,0,1,2.639-.56,14.805,14.805,0,0,1-2.545.887c-1.658.514-4.063,1.237-7,2.055-5.978,1.681-14.267,3.806-23.513,5.791s-17.676,3.5-23.794,4.46c-3.059.49-5.557.841-7.262,1.051A14.338,14.338,0,0,1,611,446.9Z" transform="translate(601.114 455.431)" fill="#e0e0e0"/>
    </g>
    <g id="freepik--Floor--inject-162" transform="translate(0 956.275)">
      <path id="Path_4520" data-name="Path 4520" d="M1494.2,456.177c0,.327-320.8.607-716.42.607s-716.42-.21-716.42-.607,320.733-.607,716.513-.607S1494.2,455.85,1494.2,456.177Z" transform="translate(-61.36 -455.57)" fill="#263238"/>
    </g>
    <g id="freepik--Stopwatch--inject-162" transform="translate(821.977)">
      <rect id="Rectangle_1292" data-name="Rectangle 1292" width="29.234" height="45.626" transform="translate(150.501 163.296) rotate(-40.539)" fill="#263238"/>
      <path id="Path_4521" data-name="Path 4521" d="M540.048,128.03,494.329,167.3l-32.059-37.36c12.609-17.7,27.646-31.055,45.649-39.274Z" transform="translate(-348.128 13.569)" fill="#455a64"/>
      <path id="Path_4522" data-name="Path 4522" d="M498.528,142.78c-.257.233-7.986-8.266-17.279-18.937s-16.625-19.5-16.345-19.731,7.986,8.266,17.279,18.937S498.785,142.57,498.528,142.78Z" transform="translate(-344.621 31.508)" fill="#263238"/>
      <path id="Path_4523" data-name="Path 4523" d="M502.13,140.573a54.057,54.057,0,0,1-5.137-5.767c-3.082-3.619-7.262-8.639-11.862-14.243l-11.675-14.383-3.5-4.366c-.841-1.074-1.284-1.564-1.284-1.634.467-.42,8.242,8.429,17.442,19.614,4.67,5.6,8.686,10.718,11.675,14.477A43.41,43.41,0,0,1,502.13,140.573Z" transform="translate(-339.584 26.243)" fill="#263238"/>
      <path id="Path_4524" data-name="Path 4524" d="M507.17,136.642a52.684,52.684,0,0,1-5.207-5.767c-3.106-3.666-7.309-8.78-11.932-14.454L478.357,101.8l-3.5-4.46a11.977,11.977,0,0,1-1.214-1.7,32.992,32.992,0,0,1,5.37,5.627c3.152,3.619,7.4,8.71,12,14.384s8.733,10.881,11.675,14.687a46,46,0,0,1,4.483,6.3Z" transform="translate(-332.949 20.204)" fill="#263238"/>
      <path id="Path_4525" data-name="Path 4525" d="M511.591,131.564c-.257.21-7.939-8.359-17.162-19.147s-16.462-19.731-16.2-19.964,7.916,8.359,17.139,19.17S511.848,131.354,511.591,131.564Z" transform="translate(-326.839 15.942)" fill="#263238"/>
      <rect id="Rectangle_1293" data-name="Rectangle 1293" width="29.234" height="45.626" transform="matrix(0.691, 0.723, -0.723, 0.691, 543.766, 146.766)" fill="#263238"/>
      <path id="Path_4526" data-name="Path 4526" d="M679.119,171.161,637.51,127.614,673.072,93.64c18.306,11.675,32.456,25.988,41.586,43.547Z" transform="translate(-114.185 17.534)" fill="#455a64"/>
      <path id="Path_4527" data-name="Path 4527" d="M640.493,131.695c-.233-.257,7.822-8.429,18-18.26s18.68-17.606,18.843-17.372-7.822,8.406-18,18.26S640.726,131.928,640.493,131.695Z" transform="translate(-110.21 20.761)" fill="#263238"/>
      <path id="Path_4528" data-name="Path 4528" d="M643.89,135.242a48.893,48.893,0,0,1,5.417-5.464c3.432-3.269,8.242-7.729,13.589-12.632L676.65,104.7l4.18-3.736c1-.887,1.494-1.331,1.564-1.354.444.444-7.986,8.686-18.68,18.446-5.347,4.88-10.251,9.34-13.846,12.352a48.842,48.842,0,0,1-5.978,4.833Z" transform="translate(-105.668 25.504)" fill="#263238"/>
      <path id="Path_4529" data-name="Path 4529" d="M648.41,140.012A49.045,49.045,0,0,1,653.9,134.5c3.479-3.292,8.359-7.775,13.8-12.679l14.01-12.469,4.273-3.736a19.836,19.836,0,0,1,1.635-1.308,32.9,32.9,0,0,1-5.324,5.674c-3.456,3.339-8.336,7.846-13.753,12.749s-10.414,9.34-14.01,12.422A50.761,50.761,0,0,1,648.41,140.012Z" transform="translate(-99.634 31.778)" fill="#263238"/>
      <path id="Path_4530" data-name="Path 4530" d="M652.643,144.139c-.233-.257,7.939-8.359,18.236-18.143s18.843-17.489,19.077-17.232-7.939,8.359-18.236,18.119S652.876,144.349,652.643,144.139Z" transform="translate(-93.99 37.715)" fill="#263238"/>
      <rect id="Rectangle_1294" data-name="Rectangle 1294" width="34.604" height="54.008" transform="translate(342.947 66.996)" fill="#263238"/>
      <path id="Path_4531" data-name="Path 4531" d="M623.717,117.645H552.5V59.434c24.961-6.164,48.778-6.538,71.287,0Z" transform="translate(-227.672 -34.491)" fill="#ff5b36"/>
      <path id="Path_4532" data-name="Path 4532" d="M624.921,56.82a14.893,14.893,0,0,1-2.639,1.308,63.907,63.907,0,0,1-7.5,2.755,89.564,89.564,0,0,1-11.675,2.755,98.606,98.606,0,0,1-14.5,1.214,96.483,96.483,0,0,1-14.5-1.074,87.569,87.569,0,0,1-11.675-2.639,68.429,68.429,0,0,1-7.519-2.685,12.33,12.33,0,0,1-2.638-1.284c0-.21,3.923,1.4,10.391,3.129a100.41,100.41,0,0,0,11.535,2.335,108.645,108.645,0,0,0,14.337.981,107.97,107.97,0,0,0,14.337-1.121,103.113,103.113,0,0,0,11.488-2.335C621,58.268,624.828,56.61,624.921,56.82Z" transform="translate(-227.966 -31.644)" fill="#263238"/>
      <path id="Path_4533" data-name="Path 4533" d="M562.927,110.112c-.327,0-.607-11.185-.607-24.961s.28-24.961.607-24.961.607,11.161.607,24.961S563.277,110.112,562.927,110.112Z" transform="translate(-214.563 -27.121)" fill="#263238"/>
      <path id="Path_4534" data-name="Path 4534" d="M568.737,110.372c-.327,0-.607-11.231-.607-25.078s.28-25.054.607-25.054.607,11.208.607,25.054S569.087,110.372,568.737,110.372Z" transform="translate(-206.807 -27.055)" fill="#263238"/>
      <path id="Path_4535" data-name="Path 4535" d="M574.547,110.3c-.327,0-.607-11.231-.607-25.078s.28-25.078.607-25.078.607,11.231.607,25.078S574.9,110.3,574.547,110.3Z" transform="translate(-199.05 -27.188)" fill="#263238"/>
      <path id="Path_4536" data-name="Path 4536" d="M579.347,112.618c-.35,0-.607-12.142-.607-27.109S579,58.4,579.347,58.4s.607,12.142.607,27.109S579.767,112.618,579.347,112.618Z" transform="translate(-192.642 -29.511)" fill="#263238"/>
      <path id="Path_4537" data-name="Path 4537" d="M557.437,112.468c-.327,0-.607-12.142-.607-27.109s.28-27.109.607-27.109.607,12.142.607,27.109S557.787,112.468,557.437,112.468Z" transform="translate(-221.892 -29.711)" fill="#263238"/>
      <circle id="Ellipse_45" data-name="Ellipse 45" cx="251.781" cy="251.781" r="251.781" transform="translate(0 356.074) rotate(-45)" fill="#ff5b36"/>
      <circle id="Ellipse_46" data-name="Ellipse 46" cx="211.456" cy="211.456" r="211.456" transform="translate(144.614 142.626)" fill="#fafafa"/>
      <path id="Path_4538" data-name="Path 4538" d="M898.58,318.723s0-1.144-.163-3.409,0-5.651-.444-10.064a210.315,210.315,0,0,0-6.024-38.154,207.154,207.154,0,0,0-8.663-26.525,204.779,204.779,0,0,0-14.71-29.748,214,214,0,0,0-53.7-59.986,210.616,210.616,0,0,0-88.846-39.414,214.959,214.959,0,0,0-82.682.957,227.769,227.769,0,0,0-28.207,8.056,211.479,211.479,0,0,0-98.069,73.529,206.528,206.528,0,0,0-17.186,27.693c-2.592,4.833-4.81,9.854-7,14.9a153.758,153.758,0,0,0-5.814,15.6,201.693,201.693,0,0,0-8.032,32.69,227.479,227.479,0,0,0-2.779,33.927,231.169,231.169,0,0,0,2.755,33.951,207.6,207.6,0,0,0,8.032,32.69c1.681,5.3,3.783,10.437,5.814,15.574a158.219,158.219,0,0,0,7.005,14.921A204.31,204.31,0,0,0,517.067,443.6a211.408,211.408,0,0,0,98.069,73.552,227.761,227.761,0,0,0,28.207,8.056,212.151,212.151,0,0,0,28.277,3.946,210.556,210.556,0,0,0,143.251-42.4,213.631,213.631,0,0,0,53.7-59.986,205.963,205.963,0,0,0,14.711-29.748,209.846,209.846,0,0,0,14.687-64.679c.4-4.413.327-7.8.444-10.064s.163-3.432.163-3.432v3.432c0,2.265,0,5.651-.327,10.064a207.167,207.167,0,0,1-14.407,64.889,204.216,204.216,0,0,1-14.663,29.888,214.024,214.024,0,0,1-53.7,60.313A211.681,211.681,0,0,1,671.619,530.2a213.652,213.652,0,0,1-28.417-3.946,225.124,225.124,0,0,1-28.37-8.079,212.484,212.484,0,0,1-98.653-73.9A206.283,206.283,0,0,1,498.9,416.442c-2.615-4.857-4.857-9.947-7.145-15.014a139.9,139.9,0,0,1-5.838-15.668,207.416,207.416,0,0,1-8.079-32.83,211.084,211.084,0,0,1,0-68.275,207.814,207.814,0,0,1,8.079-32.69c1.7-5.347,3.806-10.507,5.861-15.668a144.394,144.394,0,0,1,7.122-14.991,208.794,208.794,0,0,1,17.3-27.833,212.3,212.3,0,0,1,98.63-73.879,225.921,225.921,0,0,1,28.346-8.079,214.534,214.534,0,0,1,28.44-3.946,211.663,211.663,0,0,1,143.835,42.777A212.574,212.574,0,0,1,892.509,267.19a209.41,209.41,0,0,1,5.814,38.27c.35,4.413.234,7.8.327,10.064A17.207,17.207,0,0,1,898.58,318.723Z" transform="translate(-331.054 35.359)" fill="#263238"/>
      <path id="Path_4539" data-name="Path 4539" d="M650.119,195.826c-6.7.28-12.165,0-12.189-.584s5.37-1.378,12.072-1.751,12.165-.14,12.212.56S656.773,195.546,650.119,195.826Z" transform="translate(-113.625 150.597)" fill="#263238"/>
      <path id="Path_4540" data-name="Path 4540" d="M647.895,217.547c-6.538-1.541-11.675-3.246-11.675-3.829s5.557.117,12.119,1.541,11.675,3.152,11.675,3.829S654.386,219.065,647.895,217.547Z" transform="translate(-115.908 177.561)" fill="#263238"/>
      <path id="Path_4541" data-name="Path 4541" d="M639.564,238.719c-5.908-3.222-10.437-6.281-10.157-6.795s5.324,1.611,11.255,4.67,10.484,6.211,10.157,6.818S645.448,241.964,639.564,238.719Z" transform="translate(-125.019 202.038)" fill="#263238"/>
      <path id="Path_4542" data-name="Path 4542" d="M625.871,257c-4.81-4.67-8.383-8.826-7.962-9.34s4.67,2.965,9.573,7.589,8.429,8.756,7.962,9.34S630.658,261.692,625.871,257Z" transform="translate(-140.397 223.079)" fill="#263238"/>
      <path id="Path_4543" data-name="Path 4543" d="M607.8,270.866c-3.362-5.814-5.7-10.764-5.184-11.068s3.736,4.133,7.192,9.877,5.791,10.694,5.207,11.068S611.19,276.634,607.8,270.866Z" transform="translate(-160.857 239.333)" fill="#263238"/>
      <path id="Path_4544" data-name="Path 4544" d="M586.7,279.41c-1.681-6.515-2.592-11.908-2.008-12.049s2.475,4.974,4.273,11.441,2.685,11.862,2.008,12.049S588.38,285.9,586.7,279.41Z" transform="translate(-184.934 249.446)" fill="#263238"/>
      <path id="Path_4545" data-name="Path 4545" d="M564.669,281.955c0-6.725.677-12.165,1.261-12.165S567,275.254,567,281.955s-.584,12.165-1.261,12.165S564.553,288.7,564.669,281.955Z" transform="translate(-211.448 252.691)" fill="#263238"/>
      <path id="Path_4546" data-name="Path 4546" d="M545.457,278.36c1.915-6.445,3.923-11.511,4.506-11.348s-.444,5.534-2.335,12-3.829,11.675-4.506,11.348S543.425,284.8,545.457,278.36Z" transform="translate(-240.476 248.978)" fill="#263238"/>
      <path id="Path_4547" data-name="Path 4547" d="M528,268.835c3.573-5.674,6.865-10.04,7.378-9.737s-1.915,5.23-5.394,10.974-6.795,10.087-7.378,9.737S524.431,274.533,528,268.835Z" transform="translate(-267.692 238.398)" fill="#263238"/>
      <path id="Path_4548" data-name="Path 4548" d="M513.451,254.115c4.974-4.53,9.34-7.846,9.714-7.4s-3.222,4.507-8.126,9.106-9.223,7.916-9.714,7.425S508.5,258.645,513.451,254.115Z" transform="translate(-290.709 221.83)" fill="#263238"/>
      <path id="Path_4549" data-name="Path 4549" d="M502.743,235.275c6-3.012,11.091-5.044,11.348-4.53s-4.32,3.479-10.274,6.608-11.021,5.16-11.348,4.53S496.766,238.311,502.743,235.275Z" transform="translate(-307.834 200.461)" fill="#263238"/>
      <path id="Path_4550" data-name="Path 4550" d="M496.677,213.737c6.608-1.308,12.048-1.891,12.165-1.308s-5.114,2.195-11.675,3.6S485.142,218.01,485,217.333,490.139,215.045,496.677,213.737Z" transform="translate(-317.785 175.814)" fill="#263238"/>
      <path id="Path_4551" data-name="Path 4551" d="M495.712,192.195c6.7.49,12.1,1.378,12.072,1.961s-5.51.747-12.212.35-12.119-1.261-12.072-1.961S489.011,191.588,495.712,192.195Z" transform="translate(-319.786 148.648)" fill="#263238"/>
      <path id="Path_4552" data-name="Path 4552" d="M499.865,173.248c6.328,2.335,11.278,4.67,11.091,5.16s-5.51-.771-11.862-2.965-11.3-4.483-11.091-5.137S493.561,170.96,499.865,173.248Z" transform="translate(-313.783 119.657)" fill="#263238"/>
      <path id="Path_4553" data-name="Path 4553" d="M508.876,156.41c5.464,3.9,9.62,7.449,9.34,7.939s-5.09-2.218-10.624-6.024-9.69-7.355-9.34-7.939S503.389,152.51,508.876,156.41Z" transform="translate(-300.12 93.182)" fill="#263238"/>
      <path id="Path_4554" data-name="Path 4554" d="M522.074,142.6c4.226,5.207,7.285,9.737,6.842,10.134s-4.343-3.5-8.64-8.663-7.378-9.667-6.841-10.11S517.848,137.392,522.074,142.6Z" transform="translate(-279.905 71.314)" fill="#263238"/>
      <path id="Path_4555" data-name="Path 4555" d="M538.5,132.839c2.662,6.164,4.413,11.348,3.853,11.675s-3.222-4.53-5.978-10.648-4.506-11.3-3.876-11.675S535.772,126.7,538.5,132.839Z" transform="translate(-254.539 55.623)" fill="#263238"/>
      <path id="Path_4556" data-name="Path 4556" d="M557.021,127.852c.911,6.655,1.191,12.119.584,12.212s-1.891-5.23-2.9-11.862-1.284-12.119-.607-12.212S556.11,121.2,557.021,127.852Z" transform="translate(-226.028 47.37)" fill="#263238"/>
      <path id="Path_4557" data-name="Path 4557" d="M577.807,127.983c-.887,6.655-2.078,12-2.662,11.932s-.444-5.557.35-12.212,1.985-12.025,2.662-11.932S578.694,121.3,577.807,127.983Z" transform="translate(-197.92 47.076)" fill="#263238"/>
      <path id="Path_4558" data-name="Path 4558" d="M599.643,133.2c-2.639,6.188-5.23,11-5.791,10.764s1.1-5.441,3.643-11.675,5.16-11.021,5.791-10.741S602.3,127.034,599.643,133.2Z" transform="translate(-172.613 54.773)" fill="#263238"/>
      <path id="Path_4559" data-name="Path 4559" d="M619.09,143.188c-4.2,5.254-7.986,9.2-8.453,8.826s2.5-4.974,6.631-10.274,7.892-9.34,8.453-8.8S623.223,137.958,619.09,143.188Z" transform="translate(-150.124 69.931)" fill="#263238"/>
      <path id="Path_4560" data-name="Path 4560" d="M634.679,157.167c-5.464,3.923-10.157,6.725-10.507,6.234s3.736-4.11,9.13-8.126,10.087-6.795,10.507-6.234S640.143,153.244,634.679,157.167Z" transform="translate(-132.019 91.397)" fill="#263238"/>
      <path id="Path_4561" data-name="Path 4561" d="M645.247,174.161c-6.3,2.335-11.675,3.713-11.815,3.176s4.67-2.965,11-5.37,11.535-3.829,11.792-3.176S651.551,171.826,645.247,174.161Z" transform="translate(-119.634 117.647)" fill="#263238"/>
      <path id="Path_4562" data-name="Path 4562" d="M649.982,193.04c-6.7.537-12.165.49-12.212,0s5.324-1.564,12-2.335,12.165-.584,12.212.117S656.614,192.5,649.982,193.04Z" transform="translate(-113.838 146.448)" fill="#263238"/>
      <path id="Path_4563" data-name="Path 4563" d="M622.881,99.7l-.724.327-2.148.864c-1.868.794-4.67,1.751-8.243,3.316A245.165,245.165,0,0,0,582.51,118.8c-5.978,3.456-12.305,7.589-18.96,12.235a214.194,214.194,0,0,0-20.244,16.158,238.611,238.611,0,0,0-66.29,96.972c-3.2,8.546-5.6,16.905-7.682,24.728a210.8,210.8,0,0,0-4.53,22.112,247.34,247.34,0,0,0-2.965,32.55c-.187,3.876,0,6.865,0,8.9v2.335a5.011,5.011,0,0,1,0,.794,3.241,3.241,0,0,1,0-.771v-2.335c0-2.031-.257-5.02-.14-8.9a229.572,229.572,0,0,1,2.592-32.69c.981-6.865,2.5-14.313,4.39-22.229a253.531,253.531,0,0,1,7.612-24.868,236.253,236.253,0,0,1,66.617-97.439c6.841-6.094,13.8-11.348,20.384-16.135a195.754,195.754,0,0,1,19.124-12.165,231.742,231.742,0,0,1,29.491-14.29c3.573-1.494,6.445-2.335,8.359-3.105l2.195-.747a3.2,3.2,0,0,1,.42-.21Z" transform="translate(-348.933 25.624)" fill="#fff"/>
      <path id="Path_4564" data-name="Path 4564" d="M589.232,93.934a49.636,49.636,0,0,1-7.285.957c-4.53.467-10.741,1.144-17.606,2.031s-13.053,1.821-17.536,2.522a48.828,48.828,0,0,1-7.285.934,40.1,40.1,0,0,1,7.145-1.775c4.46-.911,10.648-1.985,17.512-2.872s13.146-1.448,17.7-1.7a39.27,39.27,0,0,1,7.355-.093Z" transform="translate(-245 17.754)" fill="#fff"/>
      <g id="Group_2529" data-name="Group 2529" transform="translate(187.064 261.15)" opacity="0.4">
        <path id="Path_4565" data-name="Path 4565" d="M493.5,377.919s109.581,172.929,279.568,84.363c177.459-92.465,79.389-304.412,79.389-304.412s83.5,168.913-89.477,279.031c-43.081,27.436-89.99,27.459-125.762,23.864C545.8,451.611,493.5,377.919,493.5,377.919Z" transform="translate(-493.5 -157.87)"/>
      </g>
      <path id="Path_4566" data-name="Path 4566" d="M626.764,149.54a726.54,726.54,0,0,1-2.8,92.956c-1.074,11.185-2.335,22.486-6.655,32.877s-11.675,19.917-22.042,24.307-23.63,2.569-30.845-6.024Z" transform="translate(-211.759 92.159)" fill="#e0e0e0"/>
      <path id="Path_4567" data-name="Path 4567" d="M563.91,264.515l76.844-129.4-46.373,146.1-23.7,7.075Z" transform="translate(-212.44 72.896)" fill="#ff5b36"/>
      <g id="Group_2530" data-name="Group 2530" transform="translate(371.317 208.006)" opacity="0.4">
        <path id="Path_4568" data-name="Path 4568" d="M629.407,135.11l-57,132.23,10.624,13.87Z" transform="translate(-572.41 -135.11)"/>
      </g>
      <circle id="Ellipse_47" data-name="Ellipse 47" cx="24.727" cy="24.727" r="24.727" transform="translate(333.514 336.453)" fill="#fafafa"/>
      <path id="Path_4569" data-name="Path 4569" d="M606,215.082a53.667,53.667,0,0,0-1-5.978,24.7,24.7,0,0,0-9.013-13.333,24.261,24.261,0,0,0-22.953-3.386,22.42,22.42,0,0,0-6.094,3.292,22.726,22.726,0,0,0-5.114,5.137,24.121,24.121,0,0,0,0,28.533,24.391,24.391,0,0,0,43.244-8.289,51.764,51.764,0,0,0,1-5.978,19.407,19.407,0,0,1-.537,6.094,24.657,24.657,0,0,1-8.966,14.01,24.913,24.913,0,0,1-10.577,4.787,25.289,25.289,0,0,1-13.263-1.027,23.068,23.068,0,0,1-6.421-3.432,23.909,23.909,0,0,1-5.37-5.371,25.1,25.1,0,0,1,0-29.935,24.406,24.406,0,0,1,5.37-5.37,23.982,23.982,0,0,1,6.421-3.409,25.012,25.012,0,0,1,32.807,17.652,19.416,19.416,0,0,1,.467,6Z" transform="translate(-223.027 146.098)" fill="#263238"/>
      <circle id="Ellipse_48" data-name="Ellipse 48" cx="18.4" cy="18.4" r="18.4" transform="translate(336.641 375.626) rotate(-78.57)" fill="#455a64"/>
    </g>
    <g id="freepik--Calendar--inject-162" transform="translate(307.377 406.155)">
      <path id="Path_4570" data-name="Path 4570" d="M483.32,734.356H604.973L548.256,245.55Z" transform="translate(194.573 -185.824)" fill="#e0e0e0"/>
      <path id="Path_4571" data-name="Path 4571" d="M272.243,245.55l-79.2,494.573,675.861,8.8L935.775,245.55Z" transform="translate(-192.947 -185.824)" fill="#fafafa"/>
      <path id="Path_4572" data-name="Path 4572" d="M881.14,394.644H211.42l14.57-91.064H893.235Z" transform="translate(-168.41 -108.355)" fill="#ebebeb"/>
      <path id="Path_4573" data-name="Path 4573" d="M881.227,394.741H211.39l14.594-91.064H893.346Zm-669.7-.117h669.6l12.072-91.064H226.1Z" transform="translate(-168.45 -108.381)" fill="#263238"/>
      <path id="Path_4574" data-name="Path 4574" d="M239.375,245.55l-21.715,135.5H884.905l18-135.5Z" transform="translate(-160.079 -185.824)" fill="#ff5b36"/>
      <path id="Path_4575" data-name="Path 4575" d="M272.389,245.87l663.533-.56h.63v.63C917.009,393.3,894.826,560.416,871.383,736.918v.537h-8.126l-669.6-.187H193v-.584L272.389,245.87c-.654,4.063-30.822,193.687-78.152,491.047l-.49-.584H870.683l-.584.514c23.467-176.5,45.7-343.593,65.38-490.954l.537.607Z" transform="translate(-193 -186.144)" fill="#263238"/>
      <path id="Path_4576" data-name="Path 4576" d="M884.905,303.927c0,.327-149.439.607-333.6.607s-333.646-.28-333.646-.607,149.439-.607,333.646-.607S884.905,303.577,884.905,303.927Z" transform="translate(-160.079 -108.702)" fill="#263238"/>
      <path id="Path_4577" data-name="Path 4577" d="M881.875,342.927c0,.35-150.233.607-335.491.607s-335.514-.257-335.514-.607,150.186-.607,335.514-.607S881.875,342.6,881.875,342.927Z" transform="translate(-169.144 -56.637)" fill="#263238"/>
      <path id="Path_4578" data-name="Path 4578" d="M876.074,378.817c0,.35-150.209.607-335.467.607S205,379.167,205,378.817s150.186-.607,335.514-.607S876.074,378.49,876.074,378.817Z" transform="translate(-176.98 -8.725)" fill="#263238"/>
      <path id="Path_4579" data-name="Path 4579" d="M870.2,414.707c0,.327-150.233.607-335.49.607s-335.514-.28-335.514-.607,150.186-.607,335.514-.607S870.2,414.38,870.2,414.707Z" transform="translate(-184.723 39.188)" fill="#263238"/>
      <path id="Path_4580" data-name="Path 4580" d="M233.674,659.805c-.327,0,11.932-79.856,27.413-178.206S289.34,303.51,289.667,303.58s-11.932,79.81-27.389,178.206S234.024,659.852,233.674,659.805Z" transform="translate(-138.71 -108.355)" fill="#263238"/>
      <path id="Path_4581" data-name="Path 4581" d="M277.9,659.805c-.35,0,11.932-79.856,27.389-178.206S333.547,303.51,333.9,303.58s-11.932,79.81-27.413,178.206S278.138,659.852,277.9,659.805Z" transform="translate(-79.664 -108.355)" fill="#263238"/>
      <path id="Path_4582" data-name="Path 4582" d="M319,656.233c-.327,0,11.815-79.039,27.109-176.408s28.02-176.315,28.323-176.245S362.621,382.6,347.327,480.011,319.307,656.28,319,656.233Z" transform="translate(-24.796 -108.355)" fill="#263238"/>
      <path id="Path_4583" data-name="Path 4583" d="M359.654,659.058c-.327,0,11.908-79.693,27.343-177.832S415.2,303.51,415.53,303.58s-11.908,79.646-27.343,177.832S359.981,659.1,359.654,659.058Z" transform="translate(29.472 -108.355)" fill="#263238"/>
      <path id="Path_4584" data-name="Path 4584" d="M400.5,659.058c-.327,0,11.908-79.693,27.343-177.832S456.053,303.51,456.38,303.58s-11.885,79.646-27.319,177.832S400.854,659.1,400.5,659.058Z" transform="translate(84.006 -108.355)" fill="#263238"/>
      <path id="Path_4585" data-name="Path 4585" d="M441.324,659.532c-.327,0,11.932-79.786,27.389-178.089s28.23-177.973,28.58-177.9S485.361,383.3,469.9,481.629,441.651,659.672,441.324,659.532Z" transform="translate(138.5 -108.408)" fill="#263238"/>
      <g id="Group_2531" data-name="Group 2531" transform="translate(500.06 59.586)" opacity="0.2">
        <path id="Path_4586" data-name="Path 4586" d="M426.914,387.48c11.488-5.09,18.68-17.045,21.645-29.257s2.5-24.961,2.942-37.547,1.938-25.545,8.359-36.356c3.806-6.375,9.153-11.675,13.38-17.816s7.355-13.613,5.791-21.015l-71.871.374Z" transform="translate(-407.16 -245.49)"/>
      </g>
      <path id="Path_4587" data-name="Path 4587" d="M333.857,345.47a3.8,3.8,0,0,1-.7.841l-2.148,2.335c-1.891,1.938-4.67,4.67-8.172,8.079-7,6.725-16.742,15.878-27.833,25.685s-21.365,18.353-28.907,24.424c-3.783,3.035-6.865,5.464-9.013,7l-2.5,1.868a3.457,3.457,0,0,1-.934.584,9.209,9.209,0,0,1,.77-.771l2.335-2.055,8.756-7.4c7.425-6.234,17.606-14.9,28.674-24.657s21.015-18.82,28.02-25.381l8.429-7.775,2.335-2.078a4.488,4.488,0,0,1,.887-.7Z" transform="translate(-112.033 -52.432)" fill="#263238"/>
      <path id="Path_4588" data-name="Path 4588" d="M324.832,417.6a27.55,27.55,0,0,1-2.779-2.8l-7.309-7.8c-6.3-6.7-14.757-15.714-24.074-25.685L266.34,355.861l-7.379-7.729a28.142,28.142,0,0,1-2.592-2.942,21.782,21.782,0,0,1,2.942,2.615c1.821,1.728,4.436,4.273,7.635,7.449,6.4,6.351,15.131,15.247,24.587,25.241s17.863,19.194,23.84,25.942c2.989,3.362,5.394,6.118,7,8.032a21.607,21.607,0,0,1,2.452,3.129Z" transform="translate(-108.402 -52.806)" fill="#263238"/>
      <path id="Path_4589" data-name="Path 4589" d="M296.775,367.517s.234-.607.724-1.8a29.6,29.6,0,0,1,2.8-4.927,35.516,35.516,0,0,1,17.326-12.912,36.728,36.728,0,0,1,15.621-2.055,40.838,40.838,0,0,1,17.746,6.048,47.4,47.4,0,0,1,15.294,15.177,39.7,39.7,0,0,1,6.375,23.186,26.527,26.527,0,0,1-3.993,12.469,31.8,31.8,0,0,1-9.62,9.714,46.4,46.4,0,0,1-27.74,7.262,47.912,47.912,0,0,1-14.944-3.246,35.586,35.586,0,0,1-13.076-8.873,30.521,30.521,0,0,1-4.53-6.795,29.633,29.633,0,0,1-2.335-7.892,37.732,37.732,0,0,1,1.424-16.648,45.835,45.835,0,0,1,21.622-26.269,39.9,39.9,0,0,1,35.142-1.611,36.847,36.847,0,0,1,14.734,11.278,35.352,35.352,0,0,1,7,17.489,34.206,34.206,0,0,1-3.012,18.867,31.661,31.661,0,0,1-5.557,8.032,37.966,37.966,0,0,1-7.705,6.048,47.283,47.283,0,0,1-37.57,3.5,42.893,42.893,0,0,1-16.345-9.34,30.052,30.052,0,0,1-9.083-16.135,26.6,26.6,0,0,1,2.452-17.979,22.323,22.323,0,0,1,5.931-7,27.832,27.832,0,0,1,7.939-4.18,49.854,49.854,0,0,1,17.372-2.335,66.172,66.172,0,0,1,16.952,2.335,35.958,35.958,0,0,1,14.734,7.892,26.455,26.455,0,0,1,7.892,14.15,30.775,30.775,0,0,1-.911,15.761,32.69,32.69,0,0,1-8.149,12.959,40.138,40.138,0,0,1-26.175,11.395,35.024,35.024,0,0,1-13.543-1.961,27.646,27.646,0,0,1-10.928-7.215,29.583,29.583,0,0,1-6.328-10.764,31.4,31.4,0,0,1-1.7-11.675,31.009,31.009,0,0,1,8.266-19.707A36.87,36.87,0,0,1,326.593,359.6a36.1,36.1,0,0,1,15.691-1.494,42.239,42.239,0,0,1,20.1,8.1,39.035,39.035,0,0,1,4.32,3.689c.911.911,1.354,1.4,1.354,1.4s-.514-.444-1.424-1.308a45.713,45.713,0,0,0-4.39-3.6,42.638,42.638,0,0,0-20.011-7.822,35.912,35.912,0,0,0-30.845,11.675,30.191,30.191,0,0,0-8.009,19.264,30.846,30.846,0,0,0,1.7,11.441,28.93,28.93,0,0,0,6.188,10.438,27.015,27.015,0,0,0,10.6,7,34.58,34.58,0,0,0,13.193,1.868,39.157,39.157,0,0,0,25.521-11.185,31.639,31.639,0,0,0,7.869-12.539,29.747,29.747,0,0,0,.841-15.224,25.5,25.5,0,0,0-7.589-13.59,35.258,35.258,0,0,0-14.29-7.612,65.894,65.894,0,0,0-16.672-2.335,49.243,49.243,0,0,0-16.952,2.335,23.023,23.023,0,0,0-13.216,10.531,25.474,25.474,0,0,0-2.335,17.186A28.767,28.767,0,0,0,307,403.312a41.422,41.422,0,0,0,15.878,9.153,45.976,45.976,0,0,0,36.566-3.409,35.446,35.446,0,0,0,7.449-5.838,30.591,30.591,0,0,0,5.347-7.705,32.947,32.947,0,0,0,2.919-18.213,34.207,34.207,0,0,0-6.7-16.905,35.655,35.655,0,0,0-14.243-10.9,38.69,38.69,0,0,0-34.114,1.541A44.669,44.669,0,0,0,299.087,376.6a36.985,36.985,0,0,0-1.424,16.158A28.627,28.627,0,0,0,300,400.37a30.05,30.05,0,0,0,4.343,6.538A34.465,34.465,0,0,0,317,415.5a47.094,47.094,0,0,0,14.617,3.222,45.532,45.532,0,0,0,27.179-7.005,28.02,28.02,0,0,0,13.286-21.482,38.948,38.948,0,0,0-6.188-22.7A46.7,46.7,0,0,0,350.9,352.527a40.4,40.4,0,0,0-17.442-6.048A36.849,36.849,0,0,0,300.768,361a29.607,29.607,0,0,0-2.9,4.857A14.255,14.255,0,0,0,296.775,367.517Z" transform="translate(-55.408 -53.021)" fill="#ff5b36"/>
      <path id="Path_4590" data-name="Path 4590" d="M371.226,382.272c.21.257-18.306,16.088-41.376,35.375s-42.03,34.674-42.17,34.418,18.306-16.088,41.376-35.352S371.016,382.015,371.226,382.272Z" transform="translate(-66.604 -3.307)" fill="#263238"/>
      <path id="Path_4591" data-name="Path 4591" d="M368.283,446.273a21.533,21.533,0,0,1-3.106-2.218l-8.219-6.4c-6.888-5.464-16.345-13.076-26.759-21.529s-19.777-16.158-26.525-21.785l-7.962-6.725a21.206,21.206,0,0,1-2.8-2.568,23.364,23.364,0,0,1,3.105,2.218l8.2,6.4c6.888,5.464,16.345,13.076,26.759,21.529s19.777,16.158,26.549,21.785l7.939,6.7a26.592,26.592,0,0,1,2.825,2.592Z" transform="translate(-59.622 0.407)" fill="#263238"/>
      <path id="Path_4592" data-name="Path 4592" d="M452.611,382.663c.187.257-17.512,13.823-39.578,30.355s-40.092,29.584-40.3,29.3,17.512-13.823,39.578-30.355S452.4,382.382,452.611,382.663Z" transform="translate(46.936 -2.787)" fill="#263238"/>
      <path id="Path_4593" data-name="Path 4593" d="M457.553,437.648c-.163.28-18.983-11.371-42.03-26.058s-41.516-26.782-41.353-27.086,18.983,11.395,42.03,26.058S457.833,437.367,457.553,437.648Z" transform="translate(48.859 -0.331)" fill="#263238"/>
      <path id="Path_4594" data-name="Path 4594" d="M324.762,504.571c-.257-.234,18.143-19.52,41.072-43.034s41.726-42.45,42.03-42.216-18.143,19.52-41.072,43.057S324.995,504.8,324.762,504.571Z" transform="translate(-17.104 46.155)" fill="#ff5b36"/>
      <path id="Path_4595" data-name="Path 4595" d="M399.575,501.356a7.2,7.2,0,0,1-.771-.817l-1.961-2.335c-1.821-2.335-4.25-5.347-7.215-9.036-6.094-7.612-14.734-17.956-24.751-28.954s-19.52-20.548-26.525-27.319l-8.313-8.172-2.335-2.195a5.108,5.108,0,0,1-.724-.817,6.032,6.032,0,0,1,.887.63l2.335,2.031c2.078,1.775,5.02,4.413,8.616,7.729,7.145,6.631,16.765,16.111,26.829,27.133s18.68,21.482,24.517,29.234c2.989,3.876,5.347,7,7.005,9.34l1.8,2.569a4.67,4.67,0,0,1,.607.981Z" transform="translate(-14.139 49.347)" fill="#ff5b36"/>
      <path id="Path_4596" data-name="Path 4596" d="M334.509,418.272s.747,57.371-13.73,91.718L232.54,494.953s26.572-54.358,19.334-84.573Z" transform="translate(-140.215 34.222)" fill="#ebebeb"/>
      <path id="Path_4597" data-name="Path 4597" d="M336.541,420.289s-11.068,70.423-17.839,91.438L231,494.308s18.049-68.088,17.816-87.048Z" transform="translate(-142.271 30.057)" fill="#ff5b36"/>
      <path id="Path_4598" data-name="Path 4598" d="M242.44,420.8c0,.327,13.029,3.362,29.257,6.771s29.421,5.907,29.491,5.6-13.029-3.362-29.257-6.771S242.51,420.469,242.44,420.8Z" transform="translate(-126.998 48.089)" fill="#fff"/>
      <path id="Path_4599" data-name="Path 4599" d="M241.48,427.193c0,.327,13.029,3.339,29.257,6.771s29.421,5.907,29.491,5.6-13.029-3.362-29.257-6.771S241.55,426.8,241.48,427.193Z" transform="translate(-128.28 56.613)" fill="#fff"/>
      <path id="Path_4600" data-name="Path 4600" d="M247,434.4a20.591,20.591,0,0,0,4.67,1.4c3.012.724,7.192,1.681,11.792,2.662s8.826,1.775,11.885,2.335a20.2,20.2,0,0,0,5,.607,22.529,22.529,0,0,0-4.833-1.424c-2.989-.747-7.168-1.7-11.792-2.662s-8.826-1.8-11.862-2.335A20.294,20.294,0,0,0,247,434.4Z" transform="translate(-120.911 66.288)" fill="#fff"/>
      <path id="Path_4601" data-name="Path 4601" d="M505.583,344.77s9.036,55.9-.117,91.555l-88.356-1.891s18.073-56.927,6.608-85.39Z" transform="translate(106.183 -53.367)" fill="#ebebeb"/>
      <path id="Path_4602" data-name="Path 4602" d="M507.629,343.87s-.584,70.306-4.156,91.765l-88.192-4.18s7.729-69.116,4.67-87.585Z" transform="translate(103.74 -54.568)" fill="#455a64"/>
      <path id="Path_4603" data-name="Path 4603" d="M422.64,357.578c0,.327,13.263.607,29.631.63s29.654-.21,29.654-.537-13.263-.607-29.654-.63S422.64,357.251,422.64,357.578Z" transform="translate(113.566 -36.987)" fill="#fff"/>
      <path id="Path_4604" data-name="Path 4604" d="M423,363.948c0,.327,13.263.607,29.631.63s29.654-.21,29.654-.537-13.263-.607-29.654-.63S423,363.621,423,363.948Z" transform="translate(114.046 -28.483)" fill="#fff"/>
      <path id="Path_4605" data-name="Path 4605" d="M429.77,369.835a20.427,20.427,0,0,0,4.95.444c3.059,0,7.285.163,11.955.187s8.873,0,11.932-.164a20.7,20.7,0,0,0,4.95-.4,19.846,19.846,0,0,0-4.95-.42c-3.059-.117-7.262-.187-11.932-.21s-8.9,0-11.955.163A20.71,20.71,0,0,0,429.77,369.835Z" transform="translate(123.084 -20.664)" fill="#fff"/>
      <path id="Path_4606" data-name="Path 4606" d="M492.092,350.191c-16.485,0-33.087-10.344-41.82-26.619a79.388,79.388,0,0,1-7.449-52.771c4.833-23.35,20.291-42.5,39.391-48.614,16.228-5.207,45.229-2.335,58.912,20.571a69.094,69.094,0,0,1,9.34,36.963,7.02,7.02,0,1,1-14.01-.934,56.367,56.367,0,0,0-7.519-28.837c-10.554-17.629-33.694-17.279-42.614-14.43-16.345,5.23-26.806,22.906-29.958,38.107a65.147,65.147,0,0,0,6.094,43.337c6.888,12.842,20.828,20.828,33.18,18.937a7,7,0,1,1,2.125,13.847A37.6,37.6,0,0,1,492.092,350.191Z" transform="translate(138.354 -219.971)" fill="#263238"/>
      <path id="Path_4607" data-name="Path 4607" d="M298.421,349.972c-16.508,0-33.087-10.344-41.82-26.619a79.389,79.389,0,0,1-7.472-52.771c4.086-19.707,17.909-42.4,39.695-48.661a51.37,51.37,0,0,1,31.8,1.611l-5.044,13.076a37.663,37.663,0,0,0-22.883-1.238c-16.065,4.67-26.525,22.463-29.748,38.037a65.147,65.147,0,0,0,6.094,43.337c6.888,12.866,20.851,20.828,33.18,18.937l2.125,13.846a37.815,37.815,0,0,1-5.931.444Z" transform="translate(-120.215 -219.753)" fill="#263238"/>
      <path id="Path_4608" data-name="Path 4608" d="M464.215,245.71l-6.445,35.282h94.824l8.429-34.931Z" transform="translate(160.464 -185.61)" fill="#ff5b36"/>
      <path id="Path_4609" data-name="Path 4609" d="M296.858,281.961A15.084,15.084,0,1,1,281.8,266.9,15.084,15.084,0,0,1,296.858,281.961Z" transform="translate(-94.625 -157.322)" fill="#263238"/>
      <path id="Path_4610" data-name="Path 4610" d="M490.368,281.961A15.084,15.084,0,1,1,475.308,266.9,15.084,15.084,0,0,1,490.368,281.961Z" transform="translate(163.708 -157.322)" fill="#263238"/>
    </g>
    <g id="freepik--Character--inject-162" transform="translate(483.459 43.792)">
      <path id="Path_4611" data-name="Path 4611" d="M429.668,148.32l-24.8,94.053-85.6,9.2V266.75l120.275,4.226,22.6-105.518Z" transform="translate(-200.513 46.738)" fill="#ffbe9d"/>
      <path id="Path_4612" data-name="Path 4612" d="M494.022,206.379S360.274,200,322.191,229.729s-19.637,78.526-19.637,78.526l215.239-.56L536.8,198.58Z" transform="translate(-228.791 113.835)" fill="#263238"/>
      <path id="Path_4613" data-name="Path 4613" d="M497.708,252.57a10,10,0,0,1-1.938-.14c-1.261-.14-3.105-.327-5.487-.63-4.67-.584-11.675-1.564-20.081-2.989A572.641,572.641,0,0,1,404.822,233.7c-12.562-3.713-24.447-7.449-35.422-10.181a155.132,155.132,0,0,0-29.584-4.67,88.871,88.871,0,0,0-20.151,1.168c-2.335.28-4.133.887-5.394,1.1a16.338,16.338,0,0,1-1.891.35,9.688,9.688,0,0,1,1.845-.584,47.467,47.467,0,0,1,5.347-1.331,83.311,83.311,0,0,1,20.268-1.564,152.287,152.287,0,0,1,30.028,4.46c11.044,2.662,22.953,6.4,35.468,10.111a639.9,639.9,0,0,0,64.936,15.388c8.429,1.541,15.271,2.638,20.011,3.386l5.464.864A11.955,11.955,0,0,1,497.708,252.57Z" transform="translate(-209.711 139.631)" fill="#455a64"/>
      <path id="Path_4614" data-name="Path 4614" d="M353.008,227.621a88.724,88.724,0,0,0-11.838-8.242,89.7,89.7,0,0,0-13.52-5.044,11.675,11.675,0,0,1,4.273.42,38.688,38.688,0,0,1,9.807,3.549,39.3,39.3,0,0,1,8.5,6.048,11.675,11.675,0,0,1,2.779,3.269Z" transform="translate(-189.326 134.809)" fill="#455a64"/>
      <path id="Path_4615" data-name="Path 4615" d="M393.593,326.43l1.8,56.2-11.3,44.878a5.744,5.744,0,0,0,4.67,7.005h0a5.744,5.744,0,0,0,5.044-1.541c8.5-8.312,39.695-39.041,39.3-43.127-.42-4.67,2.031-59.449,2.031-59.449Z" transform="translate(-114.189 284.512)" fill="#ff5b36"/>
      <g id="Group_2532" data-name="Group 2532" transform="translate(274.361 670.648)" opacity="0.6">
        <path id="Path_4616" data-name="Path 4616" d="M385.91,400.474,430.275,352v2.335a8.639,8.639,0,0,1-2.008,5.651c-3.526,4.226-13.543,15.691-37.1,38.9a5.744,5.744,0,0,1-5.207,1.541Z" transform="translate(-385.91 -352)" fill="#fff"/>
      </g>
      <g id="Group_2533" data-name="Group 2533" transform="translate(305.522 652.15)" opacity="0.6">
        <path id="Path_4617" data-name="Path 4617" d="M400.69,344.527a3.5,3.5,0,0,0-.911,4.67,3.362,3.362,0,0,0,4.506.934,3.642,3.642,0,0,0,.934-4.833,3.456,3.456,0,0,0-4.787-.467" transform="translate(-399.255 -344.078)" fill="#fff"/>
      </g>
      <path id="Path_4618" data-name="Path 4618" d="M397.875,365.809c-.327.163-1.635-2.755-4.974-4.32a16.9,16.9,0,0,0-6.491-1.168c0-.14.654-.584,1.961-.794a9.13,9.13,0,0,1,8.873,4.273C397.9,364.945,397.992,365.763,397.875,365.809Z" transform="translate(-110.882 328.609)" fill="#263238"/>
      <path id="Path_4619" data-name="Path 4619" d="M395.637,367.716a44.185,44.185,0,0,0-5-2.335,49.257,49.257,0,0,0-5.511-.654,6.351,6.351,0,0,1,5.838-.537C394.283,365.077,395.918,367.552,395.637,367.716Z" transform="translate(-112.591 334.291)" fill="#263238"/>
      <path id="Path_4620" data-name="Path 4620" d="M403.521,361.648a58.765,58.765,0,0,0-7.472-4.18,55.761,55.761,0,0,0-8.359-1.868,15.668,15.668,0,0,1,15.831,6.048Z" transform="translate(-109.173 323.009)" fill="#263238"/>
      <path id="Path_4621" data-name="Path 4621" d="M403.247,351.98c-.14.35-3.269-.934-7.309-1.027s-7.238.887-7.379.537a14.36,14.36,0,0,1,14.687.49Z" transform="translate(-108.012 315.586)" fill="#263238"/>
      <path id="Path_4622" data-name="Path 4622" d="M403.384,345.069a28.188,28.188,0,0,0-7.589-1.284,27.579,27.579,0,0,0-7.425,1.938,4.237,4.237,0,0,1,1.8-1.588,12.515,12.515,0,0,1,11.348-.49C402.8,344.275,403.477,344.929,403.384,345.069Z" transform="translate(-108.265 305.988)" fill="#263238"/>
      <path id="Path_4623" data-name="Path 4623" d="M396.6,348.034a5.232,5.232,0,0,1,0-2.125,14.688,14.688,0,0,1,1.658-5.581,6.422,6.422,0,0,1,2.779-3.152,2.335,2.335,0,0,1,2.615.49,3.783,3.783,0,0,1,.911,2.522,8.173,8.173,0,0,1-7,7.612,9.457,9.457,0,0,1-9.34-4.857,3.269,3.269,0,0,1-.187-2.732,2.335,2.335,0,0,1,2.335-1.238,8.2,8.2,0,0,1,3.736,1.891,16.978,16.978,0,0,1,3.876,4.343,5.838,5.838,0,0,1,.887,1.938,26.34,26.34,0,0,0-5.3-5.581A7.589,7.589,0,0,0,390.3,340a1.238,1.238,0,0,0-1.308.654,2.336,2.336,0,0,0,.234,1.8,8.429,8.429,0,0,0,8.126,4.11,7,7,0,0,0,6.094-6.375,2.685,2.685,0,0,0-.56-1.775,1.237,1.237,0,0,0-1.448-.3,6,6,0,0,0-2.335,2.639A22.672,22.672,0,0,0,396.6,348.034Z" transform="translate(-109.002 298.587)" fill="#263238"/>
      <path id="Path_4624" data-name="Path 4624" d="M433.993,206.683s-57.838,109.347-58.631,128.424,0,194.924,0,194.924h89.523c2.335,0,15.761-79.226,13.029-97.462s-12.375-116.259-12.375-116.259h51.51s14.127-15.107,13.613-34.278c-.3-10.577-7.215-32.2-14.01-43.664-4.413-7.355-32.69-45.859-32.69-45.859Z" transform="translate(-126.102 105.731)" fill="#263238"/>
      <path id="Path_4625" data-name="Path 4625" d="M431,201.751a3.164,3.164,0,0,1-.257.63c-.21.467-.49,1.051-.841,1.775l-3.362,6.818c-1.518,2.965-3.316,6.561-5.417,10.741l-3.362,6.7-3.526,7.635-17.349,37.57c-3.292,7-6.748,14.5-10.344,22.182l-5.44,11.675a63.041,63.041,0,0,0-3.969,12.562,67.713,67.713,0,0,0-1.378,13.146c-.14,4.367-.234,8.686-.3,12.913,0,8.5-.163,16.672-.14,24.471,0,15.6.187,29.654.35,41.446s.3,21.248.42,28.02v10.251a1.985,1.985,0,0,1,0-.677q0-.771,0-1.961c0-1.845-.187-4.366-.327-7.612-.233-6.585-.537-16.135-.794-28.02s-.537-25.825-.607-41.446V346.1c0-4.25.14-8.569.3-12.959a68.808,68.808,0,0,1,1.378-13.356,64.331,64.331,0,0,1,4.063-12.8l5.464-11.675,10.414-22.136,17.7-37.477,3.6-7.612c1.238-2.335,2.335-4.67,3.456-6.655l5.581-10.648c1.518-2.872,2.732-5.114,3.573-6.725.4-.7.724-1.261.957-1.728A1.031,1.031,0,0,0,431,201.751Z" transform="translate(-126.982 118.065)" fill="#455a64"/>
      <path id="Path_4626" data-name="Path 4626" d="M395.543,233.439a109.068,109.068,0,0,1-4.67-13.66,107.747,107.747,0,0,1-3.993-13.87,69.633,69.633,0,0,1,5.137,13.52,70.331,70.331,0,0,1,3.526,14.01Z" transform="translate(-110.254 123.62)" fill="#455a64"/>
      <path id="Path_4627" data-name="Path 4627" d="M426.676,364.4a4.669,4.669,0,0,1-.28-1.237q-.163-1.424-.49-3.573c-.42-3.292-.957-7.775-1.635-13.216-1.284-11.3-3.012-26.642-4.927-43.594s-3.479-32.48-4.436-43.664c-.444-5.464-.817-9.947-1.1-13.239,0-1.471-.187-2.662-.257-3.619a8.684,8.684,0,0,1,0-1.261,4.225,4.225,0,0,1,.257,1.237c.117.957.28,2.148.467,3.6.374,3.292.887,7.752,1.494,13.216,1.238,11.3,2.919,26.666,4.67,43.618s3.409,32.293,4.67,43.617c.514,5.464.957,9.947,1.261,13.239.117,1.448.21,2.662.28,3.619A7.373,7.373,0,0,1,426.676,364.4Z" transform="translate(-74.677 170.465)" fill="#455a64"/>
      <path id="Path_4628" data-name="Path 4628" d="M409.509,84.344c-1.378-9.34,6.631-18.33,15.878-19.427s18.563,4.67,22.813,13.1a34.044,34.044,0,0,1,.7,27.179c-2.335,5.907-6.655,11.885-12.936,12.352s-11.091-4.32-15.247-8.733" transform="translate(-80.253 -64.783)" fill="#263238"/>
      <path id="Path_4629" data-name="Path 4629" d="M383.827,125c-18.68-40.932,25.685-61.5,49.805-54.685,22.7,6.421,32.386,17.723,36.122,32.9a74.906,74.906,0,0,1-2.335,46.093c-2.942,7.145-8.219,14.383-15.878,15.271" transform="translate(-120.3 -59.114)" fill="#263238"/>
      <path id="Path_4630" data-name="Path 4630" d="M445.7,85.332a7.682,7.682,0,0,1,6.888,7.822h0l-4.366,104.187c-.163,12.305-18.12,19.264-31.312,18.983h0c-13.286-.28-13.73-6.818-14.01-18.516-.3-19.544-.3-26.9-.3-26.782s-16.812-2.8-20.291-24.728c-1.751-10.9-1.191-28.79-.28-43.407.841-13.146,9.55-29.3,22.673-28.02Z" transform="translate(-117.889 -51.411)" fill="#ffbe9d"/>
      <path id="Path_4631" data-name="Path 4631" d="M385.21,93.63a2.8,2.8,0,0,0,2.709,2.849,2.685,2.685,0,0,0,2.9-2.545,2.825,2.825,0,0,0-2.709-2.849,2.685,2.685,0,0,0-2.9,2.545Z" transform="translate(-112.484 -29.681)" fill="#263238"/>
      <path id="Path_4632" data-name="Path 4632" d="M383.243,92.516c.35.35,2.5-1.214,5.51-1.214s5.254,1.518,5.581,1.144-.187-.817-1.167-1.518a7.775,7.775,0,0,0-4.46-1.378,7.191,7.191,0,0,0-4.366,1.424C383.407,91.675,383.08,92.352,383.243,92.516Z" transform="translate(-115.163 -31.719)" fill="#263238"/>
      <path id="Path_4633" data-name="Path 4633" d="M397.88,93.627a2.825,2.825,0,0,0,2.615,2.849,2.685,2.685,0,0,0,2.9-2.545,2.825,2.825,0,0,0-2.709-2.849A2.685,2.685,0,0,0,397.88,93.627Z" transform="translate(-95.57 -29.678)" fill="#263238"/>
      <path id="Path_4634" data-name="Path 4634" d="M396.053,92.756c.35.35,2.475-1.214,5.487-1.214s5.254,1.518,5.581,1.167-.187-.841-1.167-1.541a7.7,7.7,0,0,0-4.46-1.378,7.4,7.4,0,0,0-4.367,1.425C396.053,91.915,395.8,92.615,396.053,92.756Z" transform="translate(-98.132 -31.398)" fill="#263238"/>
      <path id="Path_4635" data-name="Path 4635" d="M395.619,115.1a20.828,20.828,0,0,0-4.9-.887c-.771,0-1.518-.234-1.635-.747a3.968,3.968,0,0,1,.514-2.335c.724-1.868,1.471-3.829,2.335-5.884a102.38,102.38,0,0,0,5.137-15.388,99.456,99.456,0,0,0-6.375,14.944l-2.195,5.931a4.506,4.506,0,0,0-.4,3.036,1.961,1.961,0,0,0,1.284,1.121,5.672,5.672,0,0,0,1.308.187A19.941,19.941,0,0,0,395.619,115.1Z" transform="translate(-108.766 -31.305)" fill="#263238"/>
      <path id="Path_4636" data-name="Path 4636" d="M390.37,120.472a55.69,55.69,0,0,0,29.491-7.822s-7.145,15.084-29.094,13.029Z" transform="translate(-105.595 -0.881)" fill="#eb996e"/>
      <path id="Path_4637" data-name="Path 4637" d="M391.985,104.958a5.464,5.464,0,0,1,4.88-2.008,4.95,4.95,0,0,1,3.456,1.845,3.152,3.152,0,0,1,.234,3.6,3.643,3.643,0,0,1-3.969,1,11.185,11.185,0,0,1-3.876-2.335,3.458,3.458,0,0,1-.864-.887,1.027,1.027,0,0,1,0-1.121" transform="translate(-103.848 -13.877)" fill="#eb996e"/>
      <path id="Path_4638" data-name="Path 4638" d="M400.594,101.57c-.49,0-.514,3.246-3.316,5.581s-6.3,1.961-6.328,2.335.771.63,2.335.677a8.266,8.266,0,0,0,5.3-1.845,7.192,7.192,0,0,0,2.569-4.67C401.177,102.364,400.8,101.547,400.594,101.57Z" transform="translate(-104.821 -15.672)" fill="#263238"/>
      <path id="Path_4639" data-name="Path 4639" d="M395.388,90.095c.3.817,3.339.42,6.888.864s6.421,1.378,6.888.654c.21-.35-.3-1.121-1.448-1.938A11.512,11.512,0,0,0,402.6,87.9a11.325,11.325,0,0,0-5.37.63C395.925,89.044,395.271,89.7,395.388,90.095Z" transform="translate(-98.915 -34.038)" fill="#263238"/>
      <path id="Path_4640" data-name="Path 4640" d="M383.743,88.826c.537.7,2.615,0,5.137,0s4.67.467,5.114-.257c.21-.35,0-1.051-1.051-1.681a7,7,0,0,0-4.156-1.144,7.192,7.192,0,0,0-4.086,1.378C383.813,87.8,383.51,88.5,383.743,88.826Z" transform="translate(-114.543 -36.809)" fill="#263238"/>
      <path id="Path_4641" data-name="Path 4641" d="M416.783,71.787a44.365,44.365,0,0,0-21.015,6.538,30.5,30.5,0,0,0-15.037,17.863,6.258,6.258,0,0,0,.187,4.95,4.81,4.81,0,0,0,6,1.284,13.707,13.707,0,0,0,4.9-4.507,9.34,9.34,0,0,0,18.213-.21,8.2,8.2,0,0,0,8.453,7.542,10.834,10.834,0,0,0,9.34-7.355,27.131,27.131,0,0,0,3.853,10.694,9.34,9.34,0,0,0,9.924,4.063,19.614,19.614,0,0,0,.14,9.807c1.167,3.082,5.814,55.83,8.943,54.755s3.012-54.872,3.713-58a73.207,73.207,0,0,0,2.335-18.376,26.923,26.923,0,0,0-21.715-27.3,71.756,71.756,0,0,0-19.1-1.751" transform="translate(-119.026 -55.519)" fill="#263238"/>
      <path id="Path_4642" data-name="Path 4642" d="M427.589,145.063a3.307,3.307,0,0,1-.677.3,9.176,9.176,0,0,1-2.031.49,17.279,17.279,0,0,1-16.742-7.845,22.626,22.626,0,0,1-2.872-13.73c.35-5.02,1.518-9.6,2.055-13.8a105.079,105.079,0,0,0,.981-11.255c0-3.222,0-5.814,0-7.635a13.019,13.019,0,0,1,0-2.8,11.817,11.817,0,0,1,.49,2.825,75.319,75.319,0,0,1,.374,7.682,91.312,91.312,0,0,1-.724,11.371c-.514,4.3-1.611,8.9-1.961,13.73a22.042,22.042,0,0,0,2.615,13.076,16.158,16.158,0,0,0,8.359,6.842,17.581,17.581,0,0,0,7.355,1.121C426.608,145.32,427.566,144.946,427.589,145.063Z" transform="translate(-85.888 -32.733)" fill="#263238"/>
      <path id="Path_4643" data-name="Path 4643" d="M404.3,70.54a9.924,9.924,0,0,1,1.144,5.207A16.742,16.742,0,0,1,389.1,92.792a9.877,9.877,0,0,1-5.23-.934c0-.21,2.008.35,5.184,0a16.765,16.765,0,0,0,15.621-16.2C404.745,72.548,404.091,70.587,404.3,70.54Z" transform="translate(-114.273 -57.097)" fill="#455a64"/>
      <path id="Path_4644" data-name="Path 4644" d="M406.112,81.6c.117,0-.163,1.494-1.845,3.129A11.138,11.138,0,0,1,396,87.557a18.236,18.236,0,0,1-8.242-2.825c-1.891-1.191-2.919-2.1-2.825-2.335a14.408,14.408,0,0,1,3.222,1.471,21.574,21.574,0,0,0,7.916,2.335,11.465,11.465,0,0,0,7.635-2.335A13.233,13.233,0,0,0,406.112,81.6Z" transform="translate(-112.861 -42.335)" fill="#455a64"/>
      <path id="Path_4645" data-name="Path 4645" d="M430.534,78.73a20.5,20.5,0,0,1-.42,6,30.168,30.168,0,0,1-5.37,13.52,18.236,18.236,0,0,1-12.562,7.145,11.93,11.93,0,0,1-4.46-.444c-1-.3-1.495-.607-1.471-.677a22.02,22.02,0,0,0,5.838.257,18.377,18.377,0,0,0,11.675-7,33.041,33.041,0,0,0,5.487-12.936,48.517,48.517,0,0,1,1.284-5.861Z" transform="translate(-84.396 -46.163)" fill="#455a64"/>
      <path id="Path_4646" data-name="Path 4646" d="M433.791,83.28a6.05,6.05,0,0,1,.35,1.868,36.813,36.813,0,0,1,.117,5.114,25.546,25.546,0,0,1-5.838,15.714,17.676,17.676,0,0,1-7.775,5.3,15.224,15.224,0,0,1-7.682.467,12.538,12.538,0,0,1-4.787-2.008c-.981-.724-1.4-1.261-1.354-1.308A17.768,17.768,0,0,0,413.1,110.9a15.341,15.341,0,0,0,7.169-.677,17.489,17.489,0,0,0,7.238-5.044,26.665,26.665,0,0,0,5.907-14.991C433.791,85.965,433.581,83.3,433.791,83.28Z" transform="translate(-83.637 -40.089)" fill="#455a64"/>
      <path id="Path_4647" data-name="Path 4647" d="M310.79,204.591l-42.38,96.925h58.351l41.563-97.7Z" transform="translate(-268.41 120.83)" fill="#455a64"/>
      <path id="Path_4648" data-name="Path 4648" d="M273.7,163.967l47.8,94.006H472.24l-6.094-12.282-43.664-1.308-35.609-79.249a13.706,13.706,0,0,0-12.516-8.1H277.946a4.67,4.67,0,0,0-4.25,6.935Z" transform="translate(-262.138 58.364)" fill="#e0e0e0"/>
      <path id="Path_4649" data-name="Path 4649" d="M312.285,181.347a5.767,5.767,0,1,1-5.767-5.767,5.767,5.767,0,0,1,5.767,5.767Z" transform="translate(-225.237 83.13)" fill="#263238"/>
      <rect id="Rectangle_1295" data-name="Rectangle 1295" width="184.277" height="8.99" transform="translate(41.89 316.524)" fill="#455a64"/>
      <path id="Path_4650" data-name="Path 4650" d="M340.96,202.27l56.063,101.408h26.806l5.837-11.6,5.37-12.212-37.313-73.108Z" transform="translate(-171.557 118.761)" fill="#455a64"/>
      <path id="Path_4651" data-name="Path 4651" d="M405.295,127.81s-32.55,11.465-39.555,47.891l34.371,17.139Z" transform="translate(-138.476 19.358)" fill="#ff5b36"/>
      <path id="Path_4652" data-name="Path 4652" d="M395.216,130.58s-22.766,51.043-21.9,78.922c.3,9.69,6.655,35.025,6.655,35.025l11.838,62.718s90.621-12.259,92.629-12.259S481.4,243.5,481.4,243.5l14.78-98.933s-6.771-13.473-37.36-18.143C440.491,123.552,395.216,130.58,395.216,130.58Z" transform="translate(-128.397 16.587)" fill="#ff5b36"/>
      <path id="Path_4653" data-name="Path 4653" d="M386.984,140.5c.21.117-2.172,3.923-5.044,10.507a93.765,93.765,0,0,0-4.2,11.862,103.063,103.063,0,0,0-2.965,15.107,105.66,105.66,0,0,0-.49,15.388,94.376,94.376,0,0,0,1.471,12.492c1.308,7,2.8,11.3,2.568,11.371a15.1,15.1,0,0,1-1.167-2.919,36.751,36.751,0,0,1-1.074-3.526c-.374-1.4-.864-2.966-1.191-4.67a89.032,89.032,0,0,1-1.728-12.609,98.7,98.7,0,0,1,.4-15.6,96.658,96.658,0,0,1,3.105-15.294,84.068,84.068,0,0,1,4.507-11.885,47.256,47.256,0,0,1,2.195-4.366,35.022,35.022,0,0,1,1.845-3.2,15.761,15.761,0,0,1,1.775-2.662Z" transform="translate(-128.758 36.299)" fill="#263238"/>
      <path id="Path_4654" data-name="Path 4654" d="M387.4,139.078l1.308-14.01a5.954,5.954,0,0,1,5.837-5.37l44.715-.677a5.347,5.347,0,0,1,5.394,4.927l1.144,15.107a38.621,38.621,0,0,1-17.956,18.213c-13.146,6.375-33.577,6.585-33.577,6.585Z" transform="translate(-109.56 7.623)" fill="#ff5b36"/>
      <path id="Path_4655" data-name="Path 4655" d="M393.661,119.368c.14,0-.514.911-.794,2.335a25.518,25.518,0,0,0,0,6.211,35.023,35.023,0,0,1,0,9.06,34.094,34.094,0,0,1-1.214-8.99,17.514,17.514,0,0,1,.28-6.491C392.7,119.881,393.591,119.251,393.661,119.368Z" transform="translate(-104.123 8.069)" fill="#263238"/>
      <path id="Path_4656" data-name="Path 4656" d="M397.715,136.757a31.805,31.805,0,0,1-1.121-8.78,38.207,38.207,0,0,1,0-6.3c.234-1.681.911-2.545,1.051-2.335s-.21.981-.187,2.522.257,3.736.257,6.071a33.2,33.2,0,0,1,0,8.826Z" transform="translate(-97.46 8.006)" fill="#263238"/>
      <path id="Path_4657" data-name="Path 4657" d="M404.11,136.419a31.754,31.754,0,0,1-1.751-8.453,31.761,31.761,0,0,1-.537-8.686,31.428,31.428,0,0,1,1.751,8.523,31.918,31.918,0,0,1,.537,8.616Z" transform="translate(-90.429 7.97)" fill="#263238"/>
      <path id="Path_4658" data-name="Path 4658" d="M408.835,137.8a29.186,29.186,0,0,1-1.681-9.34,29.118,29.118,0,0,1,.234-9.55,51.358,51.358,0,0,1,.981,9.34,51.113,51.113,0,0,1,.467,9.55Z" transform="translate(-83.572 7.476)" fill="#263238"/>
      <g id="Group_2534" data-name="Group 2534" transform="translate(333.359 198.771)" opacity="0.3">
        <path id="Path_4659" data-name="Path 4659" d="M411.954,149.91c-1.8,15.714-.607,42.8,4.95,57.627L443.01,164.41Z" transform="translate(-411.177 -149.91)"/>
      </g>
      <path id="Path_4660" data-name="Path 4660" d="M443.977,132.41l.14.14A66.593,66.593,0,0,1,459.9,160.08l4.81,21.925-51.37,7.939a63.955,63.955,0,0,1-1.961-28.72C413.9,144.692,443.977,132.41,443.977,132.41Z" transform="translate(-78.622 25.499)" fill="#ff5b36"/>
      <path id="Path_4661" data-name="Path 4661" d="M464.155,186.01a5.627,5.627,0,0,1-1.027.257l-2.942.537-11,1.8-37.22,5.651h-.654v-.677c-.117-3.106-.21-6.328-.28-9.643-.117-8.616,0-16.859.514-24.354a39.7,39.7,0,0,1,5.978-18.937,28.185,28.185,0,0,1,9.573-9.34,18.094,18.094,0,0,1,3.316-1.541,4.225,4.225,0,0,1,1.214-.35,27.029,27.029,0,0,0-4.3,2.335,28.626,28.626,0,0,0-9.083,9.34,39.952,39.952,0,0,0-5.6,18.68c-.537,7.425-.514,15.644-.374,24.26,0,3.269.163,6.515.234,9.6l-.677-.584,37.36-5.254,11.044-1.424,2.989-.35A3.622,3.622,0,0,1,464.155,186.01Z" transform="translate(-78.065 21.494)" fill="#263238"/>
      <path id="Path_4662" data-name="Path 4662" d="M395.006,146.708a34.418,34.418,0,0,1-7.145-5.534,33.509,33.509,0,0,1-6.351-6.445,67.714,67.714,0,0,1,13.5,11.978Z" transform="translate(-117.423 28.596)" fill="#fafafa"/>
      <path id="Path_4663" data-name="Path 4663" d="M391.916,151.43a24.658,24.658,0,0,1-6.281,4.67,25.847,25.847,0,0,1-7.005,3.6,50.671,50.671,0,0,1,13.239-8.219Z" transform="translate(-121.268 50.89)" fill="#fafafa"/>
      <path id="Path_4664" data-name="Path 4664" d="M396.768,165.654a40.251,40.251,0,0,1,0-9.994,42.7,42.7,0,0,1,1.214-9.9,40.772,40.772,0,0,1,0,9.97A42.029,42.029,0,0,1,396.768,165.654Z" transform="translate(-97.47 43.321)" fill="#fafafa"/>
      <path id="Path_4665" data-name="Path 4665" d="M415.9,173.86a68.587,68.587,0,0,1-6.491-7,70.318,70.318,0,0,1-6.421-7,26.315,26.315,0,0,1,7.309,6.281,27.111,27.111,0,0,1,5.6,7.729Z" transform="translate(-88.748 62.131)" fill="#fafafa"/>
      <path id="Path_4666" data-name="Path 4666" d="M418.37,141.66a30.819,30.819,0,0,1-6.795,5.324,31.942,31.942,0,0,1-7.5,4.3,30.639,30.639,0,0,1,6.818-5.324,32.691,32.691,0,0,1,7.472-4.3Z" transform="translate(-87.293 37.847)" fill="#fafafa"/>
      <path id="Path_4667" data-name="Path 4667" d="M408.284,132.91a34.277,34.277,0,0,1-7.425,5.487,35.446,35.446,0,0,1-8.079,4.483,34.77,34.77,0,0,1,7.425-5.511,37.008,37.008,0,0,1,8.079-4.46Z" transform="translate(-102.378 26.166)" fill="#fafafa"/>
      <path id="Path_4668" data-name="Path 4668" d="M412.5,145.041a28.347,28.347,0,0,1-3.549-7.332,28.4,28.4,0,0,1-2.335-7.8,27.061,27.061,0,0,1,3.549,7.355A27.2,27.2,0,0,1,412.5,145.041Z" transform="translate(-83.902 22.161)" fill="#fafafa"/>
      <path id="Path_4669" data-name="Path 4669" d="M427.983,146.24a38.223,38.223,0,0,1-9.573-9.55,19.38,19.38,0,0,1,5.207,4.343,18.844,18.844,0,0,1,4.366,5.207Z" transform="translate(-68.162 31.212)" fill="#fafafa"/>
      <path id="Path_4670" data-name="Path 4670" d="M417.7,158.727a21.134,21.134,0,0,1-1-7.145,20.8,20.8,0,0,1,.21-7.192,42.634,42.634,0,0,1,.794,14.337Z" transform="translate(-70.743 41.492)" fill="#fafafa"/>
      <path id="Path_4671" data-name="Path 4671" d="M437.281,149.912a21.388,21.388,0,0,1-8.172-.28,21.879,21.879,0,0,1-7.869-2.172,36.753,36.753,0,0,1,8.056.981A38.106,38.106,0,0,1,437.281,149.912Z" transform="translate(-64.384 45.59)" fill="#fafafa"/>
      <path id="Path_4672" data-name="Path 4672" d="M388.036,178.7a39.2,39.2,0,0,1-4.67-8.523,39.692,39.692,0,0,1-3.6-9.036,39.2,39.2,0,0,1,4.67,8.523,39.163,39.163,0,0,1,3.6,9.036Z" transform="translate(-119.746 63.853)" fill="#fafafa"/>
      <path id="Path_4673" data-name="Path 4673" d="M403.914,192.623a32.318,32.318,0,0,1-5.674-6.795,34.232,34.232,0,0,1-4.67-7.519,32.691,32.691,0,0,1,5.7,6.795,32.458,32.458,0,0,1,4.647,7.519Z" transform="translate(-101.323 86.774)" fill="#fafafa"/>
      <path id="Path_4674" data-name="Path 4674" d="M419.258,177.82a31.031,31.031,0,0,1-7.752,3.643,29.633,29.633,0,0,1-8.2,2.5,59.8,59.8,0,0,1,15.948-6.141Z" transform="translate(-88.321 86.12)" fill="#fafafa"/>
      <path id="Path_4675" data-name="Path 4675" d="M380.23,197.649a38.693,38.693,0,0,1,5.581-12.329,19.543,19.543,0,0,1-2.335,6.421,19.284,19.284,0,0,1-3.246,5.907Z" transform="translate(-119.132 96.133)" fill="#fafafa"/>
      <path id="Path_4676" data-name="Path 4676" d="M372.356,152.459a11.02,11.02,0,0,1-2.335-5.954,10.812,10.812,0,0,1,.28-6.375,37.8,37.8,0,0,1,.934,6.164,38.681,38.681,0,0,1,1.121,6.164Z" transform="translate(-133.23 35.805)" fill="#fafafa"/>
      <path id="Path_4677" data-name="Path 4677" d="M395.166,184.685a23.35,23.35,0,0,1-7-3.152,24.142,24.142,0,0,1-6.351-4.2,23.981,23.981,0,0,1,7,3.152,25.357,25.357,0,0,1,6.351,4.2Z" transform="translate(-117.023 85.466)" fill="#fafafa"/>
      <path id="Path_4678" data-name="Path 4678" d="M404.736,163.82A64.49,64.49,0,0,1,391.52,175.8a33.412,33.412,0,0,1,6.211-6.445,32.81,32.81,0,0,1,7-5.534Z" transform="translate(-104.06 67.431)" fill="#fafafa"/>
      <g id="Group_2535" data-name="Group 2535" transform="translate(286.876 230.527)" opacity="0.3">
        <path id="Path_4679" data-name="Path 4679" d="M391.27,163.51a39.7,39.7,0,0,0,10.391,21.715c5.837,5.7,14.874,8.569,22.463,5.6a5.347,5.347,0,0,0,3.619-3.362,4.343,4.343,0,0,0-2.919-4.67,17.652,17.652,0,0,0-5.861-.841,33.3,33.3,0,0,1-27.226-17.606" transform="translate(-391.27 -163.51)"/>
      </g>
      <path id="Path_4680" data-name="Path 4680" d="M421.745,183.652a7.246,7.246,0,0,1-1.564.28,21.6,21.6,0,0,1-4.343,0,27.738,27.738,0,0,1-6.281-1.494,30.354,30.354,0,0,1-12.889-8.943,27.715,27.715,0,0,1-3.572-5.371,19.261,19.261,0,0,1-1.611-4.039,4.786,4.786,0,0,1-.3-1.564c.234,0,.864,2.1,2.662,5.184a31.5,31.5,0,0,0,3.666,5.044,35.021,35.021,0,0,0,5.721,5.067,35.564,35.564,0,0,0,6.725,3.573,30.753,30.753,0,0,0,6,1.681C419.48,183.582,421.745,183.418,421.745,183.652Z" transform="translate(-104.514 65.695)" fill="#263238"/>
      <path id="Path_4681" data-name="Path 4681" d="M356,232.225l33.811-3.946,23.84,15.621,91.064-21.855,2.148-62.391,40.465-5.324v75.537a34.651,34.651,0,0,1-35.4,33.787l-133.468-3.713-5.674-11.348-28.65-.864Z" transform="translate(-167.312 54.762)" fill="#ffbe9d"/>
      <path id="Path_4682" data-name="Path 4682" d="M504.337,183.28a11.667,11.667,0,0,1-1.728.537l-4.95,1.284-18.283,4.53-60.429,14.64-5.627,1.354h-.42l-23.817-15.668h.327l-33.834,3.923.234-.14-8.966,11.371-2.335,2.989a6.119,6.119,0,0,1-.887.981,10.1,10.1,0,0,1,.724-1.1l2.335-3.082,8.686-11.535h.14l33.787-4.226h.327l23.864,15.6h-.42l5.627-1.354,60.5-14.337,18.376-4.226,5-1.1a11.676,11.676,0,0,1,1.775-.444Z" transform="translate(-168.006 93.409)" fill="#eb996e"/>
      <path id="Path_4683" data-name="Path 4683" d="M370.667,192.186a85.071,85.071,0,0,1-13.146.514h-2.335l.327-.117a60.4,60.4,0,0,1-8.523,6.538,64.671,64.671,0,0,1,7.846-7.332l.14-.14h2.592A79.967,79.967,0,0,1,370.667,192.186Z" transform="translate(-163.507 104.491)" fill="#eb996e"/>
      <path id="Path_4684" data-name="Path 4684" d="M428.665,193.549a24.939,24.939,0,0,0-6.655-7,24.424,24.424,0,0,0-9.13-2.989,5.861,5.861,0,0,1,2.942-.233,15.574,15.574,0,0,1,11.675,7.4,5.909,5.909,0,0,1,1.167,2.825Z" transform="translate(-75.545 93.345)" fill="#eb996e"/>
    </g>
    <g id="freepik--Plant--inject-162" transform="translate(26.209 544.08)">
      <rect id="Rectangle_1296" data-name="Rectangle 1296" width="152.475" height="20.945" transform="translate(73.938 285.405)" fill="#263238"/>
      <path id="Path_4685" data-name="Path 4685" d="M257.128,422.642H104.14V401.16H257.128ZM104.654,422.1H256.615V401.674H104.654Z" transform="translate(-30.458 -116.011)" fill="#263238"/>
      <path id="Path_4686" data-name="Path 4686" d="M110.31,407.26l21.926,108.273h81.211l21.225-101.292Z" transform="translate(-22.222 -107.868)" fill="#263238"/>
      <path id="Path_4687" data-name="Path 4687" d="M110.31,449.24l11.7,16.111h98.7l13.963-16.111Z" transform="translate(-22.222 -51.825)" fill="#455a64"/>
      <path id="Path_4688" data-name="Path 4688" d="M134.988,536.769c-.3,0-.677-50.156-.864-112.079s0-112.079.234-112.079.677,50.156.864,112.079S135.291,536.769,134.988,536.769Z" transform="translate(9.467 -234.224)" fill="#263238"/>
      <path id="Path_4689" data-name="Path 4689" d="M157.048,354.85a6.346,6.346,0,0,1-.42,1.167c-.35.864-.817,1.938-1.354,3.246-.3.724-.63,1.494-1,2.335s-.654,1.845-1,2.849l-1.191,3.269c-.4,1.167-.724,2.335-1.121,3.736a153.638,153.638,0,0,0-4.273,18.68,231.946,231.946,0,0,0-2.335,23.35,317.565,317.565,0,0,0,1.214,42.637c.49,5.464.981,9.854,1.354,12.889.14,1.424.28,2.592.374,3.5a8.124,8.124,0,0,1,0,1.237,4.672,4.672,0,0,1-.28-1.214c-.163-.911-.35-2.055-.584-3.456-.49-3.035-1.121-7.425-1.7-12.866a282.247,282.247,0,0,1-1.518-42.777,213.954,213.954,0,0,1,2.335-23.466,139.884,139.884,0,0,1,4.53-18.68c.42-1.307.771-2.568,1.191-3.713l1.261-3.269,1.121-2.825c.374-.864.747-1.611,1.074-2.335l1.564-3.176a4.3,4.3,0,0,1,.77-1.121Z" transform="translate(21.381 -177.835)" fill="#263238"/>
      <path id="Path_4690" data-name="Path 4690" d="M158.691,337.48a14.011,14.011,0,0,1-.49,1.658c-.4,1.144-.934,2.709-1.588,4.67l-1.168,3.362c-.374,1.261-.794,2.615-1.238,4.063-.887,2.9-1.915,6.188-2.825,9.9l-1.541,5.814c-.467,2.031-.934,4.156-1.424,6.328-1.074,4.366-1.845,9.106-2.825,14.01-1.681,9.947-3.152,21.015-4.18,32.573s-1.378,22.743-1.518,32.853,0,19.217.514,26.852c.117,3.829.374,7.262.56,10.3s.374,5.651.56,7.775.28,3.689.374,4.927a15.531,15.531,0,0,1,0,1.7,8.428,8.428,0,0,1-.28-1.681c-.14-1.238-.327-2.849-.584-4.9s-.514-4.67-.747-7.775-.537-6.468-.724-10.3c-.514-7.659-.724-16.765-.747-26.9s.467-21.272,1.448-32.923,2.545-22.7,4.273-32.69c1-4.974,1.821-9.714,2.919-14.01.514-2.195,1.027-4.32,1.494-6.351l1.611-5.791c.957-3.713,2.055-7,3.012-9.9.467-1.448.911-2.779,1.308-4.04s.864-2.335,1.261-3.339l1.775-4.67A7.566,7.566,0,0,1,158.691,337.48Z" transform="translate(15.838 -201.023)" fill="#263238"/>
      <path id="Path_4691" data-name="Path 4691" d="M146.769,541.7a2.336,2.336,0,0,1,0-.584,8.45,8.45,0,0,0-.14-1.728c-.117-1.588-.257-3.806-.444-6.631-.374-5.861-.887-14.173-1.541-24.447-1.308-20.618-3.222-49.035-6.7-80.44-1.775-15.691-3.829-30.565-5.978-44.061-1.121-6.725-2.148-13.123-3.339-19.1s-2.335-11.511-3.269-16.578-2.125-9.6-3.035-13.59-1.728-7.449-2.335-10.251-1.191-4.9-1.588-6.468c-.14-.677-.28-1.238-.374-1.681a1.588,1.588,0,0,1,0-.584,2.127,2.127,0,0,1,.21.56l.467,1.658c.444,1.541,1.027,3.689,1.8,6.421s1.681,6.188,2.639,10.2,2.125,8.523,3.176,13.59,2.335,10.577,3.409,16.555,2.335,12.375,3.456,19.123c2.195,13.5,4.273,28.393,6.048,44.061,3.479,31.382,5.277,59.892,6.4,80.534.56,10.344.957,18.68,1.191,24.471,0,2.825.187,5.044.234,6.655v1.728a2.172,2.172,0,0,1-.28.584Z" transform="translate(-11.958 -230.286)" fill="#263238"/>
      <path id="Path_4692" data-name="Path 4692" d="M161.344,330.169c-.677-7-7.846-12.469-14.991-12.539a23.56,23.56,0,0,0-18.143,9.854,57.068,57.068,0,0,0-8.756,19.4c-4.81,16.742-7.425,34.324-5.37,51.627s9.06,34.324,21.482,46.536c2.008,2.008,4.67,3.993,7.4,3.386a8.989,8.989,0,0,0,3.9-2.335,115.582,115.582,0,0,0,37.5-87.912c-.187-6.561-1.051-13.426-4.67-18.89s-12.142-11.3-18.33-9.106" transform="translate(-18.127 -227.523)" fill="#ff5b36"/>
      <path id="Path_4693" data-name="Path 4693" d="M133.3,313.4l-10.04,18.213c-.233.42-.537.911-1.027.934s-.934-.444-1.214-.887L94.45,290.989l6.118-3.479Z" transform="translate(-43.394 -267.732)" fill="#ff5b36"/>
      <g id="Group_2536" data-name="Group 2536" transform="translate(51.056 19.778)" opacity="0.2">
        <path id="Path_4694" data-name="Path 4694" d="M133.3,313.4l-10.04,18.213c-.233.42-.537.911-1.027.934s-.934-.444-1.214-.887L94.45,290.989l6.118-3.479Z" transform="translate(-94.45 -287.51)"/>
      </g>
      <path id="Path_4695" data-name="Path 4695" d="M187.38,357.519,96.736,304.024a4.2,4.2,0,0,1-2.335-2.218c-.35-1.331.654-2.639,1.611-3.643a62.578,62.578,0,0,1,48.451-19.03,55.363,55.363,0,0,1,43.8,27.249c8.733,15.621,9.036,36.309-1,51.136" transform="translate(-43.555 -279.04)" fill="#ff5b36"/>
      <path id="Path_4696" data-name="Path 4696" d="M101,282.607a3.944,3.944,0,0,1,1.191-.14c.771,0,1.938-.187,3.432-.163a69.042,69.042,0,0,1,12.562.981,75.28,75.28,0,0,1,17.933,5.44,73.505,73.505,0,0,1,40.745,47.657A66.713,66.713,0,0,1,179.2,348.8c.187,1.471.14,2.639.187,3.432a5.882,5.882,0,0,1,0,1.191s-.21-1.635-.584-4.67a77.665,77.665,0,0,0-2.545-12.259,74.042,74.042,0,0,0-58.071-52.537,77.06,77.06,0,0,0-12.445-1.331A42.068,42.068,0,0,1,101,282.607Z" transform="translate(-34.65 -274.691)" fill="#263238"/>
      <path id="Path_4697" data-name="Path 4697" d="M147.636,296.84a19.943,19.943,0,0,1-4.67,2.078c-2.9,1.144-7,2.592-11.441,4.04s-8.639,2.569-11.675,3.316a22.927,22.927,0,0,1-4.95.934,23.718,23.718,0,0,1,4.67-1.681l11.535-3.619,11.511-3.713a26.237,26.237,0,0,1,5.02-1.354Z" transform="translate(-16.094 -255.277)" fill="#263238"/>
      <path id="Path_4698" data-name="Path 4698" d="M122.924,280.42A37.827,37.827,0,0,1,124,290.53a38.222,38.222,0,0,1-.56,10.157,64.349,64.349,0,0,1-.514-10.134,64.234,64.234,0,0,1,0-10.134Z" transform="translate(-5.649 -277.197)" fill="#263238"/>
      <path id="Path_4699" data-name="Path 4699" d="M95,295.691a39.066,39.066,0,0,1,6.585-2.335c4.11-1.284,9.854-2.9,16.345-4.436s12.235-2.709,16.345-3.456a40.563,40.563,0,0,1,7-.934,51.6,51.6,0,0,1-6.771,1.681c-4.2.934-9.994,2.335-16.345,3.783s-12.119,3.012-16.345,4.086A52.813,52.813,0,0,1,95,295.691Z" transform="translate(-42.66 -271.711)" fill="#263238"/>
      <path id="Path_4700" data-name="Path 4700" d="M174.613,319.638c-7.8-5.908-16.041-7-25.825-6.7a78.665,78.665,0,0,0-28.253,7.215c-15.294,6.678-29.654,16.555-38.784,30.518s-12.329,32.456-5.487,47.68a6.842,6.842,0,0,0,3.106,3.759,7.5,7.5,0,0,0,5.114-.4c17.4-5.674,34.885-11.395,50.879-20.268s30.542-21.225,39.111-37.36a32.456,32.456,0,0,0,4.156-12.259,15.481,15.481,0,0,0-3.993-12.119" transform="translate(-72.585 -233.85)" fill="#ff5b36"/>
      <path id="Path_4701" data-name="Path 4701" d="M171.248,315a5.369,5.369,0,0,1-1.238.514l-3.643,1.261-2.639.864c-.957.35-1.985.771-3.082,1.214-2.195.887-4.67,1.775-7.449,3.082l-4.25,1.938c-1.494.677-2.965,1.518-4.53,2.335-3.152,1.541-6.328,3.526-9.737,5.534a154.414,154.414,0,0,0-38.34,33.694c-2.335,3.105-4.787,6.024-6.725,8.966-1,1.448-2.008,2.8-2.9,4.18l-2.335,3.969c-1.634,2.5-2.849,4.927-4.016,7-.56,1.027-1.121,1.985-1.588,2.9s-.841,1.728-1.191,2.5l-1.728,3.456a4.834,4.834,0,0,1-.654,1.167,6.82,6.82,0,0,1,.467-1.261l1.518-3.549c.35-.771.724-1.611,1.121-2.545s.981-1.891,1.518-2.942c1.121-2.125,2.335-4.67,3.876-7.122.794-1.284,1.588-2.639,2.335-4.04s1.868-2.755,2.849-4.226c1.915-2.989,4.273-5.931,6.678-9.083a162.719,162.719,0,0,1,17.839-18.68,159.849,159.849,0,0,1,20.781-15.294c3.432-2.008,6.655-3.969,9.83-5.487,1.588-.794,3.082-1.611,4.67-2.335l4.32-1.868c2.732-1.284,5.3-2.125,7.542-2.965,1.121-.4,2.148-.794,3.129-1.121l2.662-.794,3.713-1.051A8.177,8.177,0,0,1,171.248,315Z" transform="translate(-69.08 -231.034)" fill="#263238"/>
      <path id="Path_4702" data-name="Path 4702" d="M112.127,329.12a188.027,188.027,0,0,1-18.96,6.094,173.579,173.579,0,0,1-19.287,5.067,188.018,188.018,0,0,1,18.96-6.094A180.038,180.038,0,0,1,112.127,329.12Z" transform="translate(-70.855 -212.184)" fill="#263238"/>
      <path id="Path_4703" data-name="Path 4703" d="M90.164,370.055a32.689,32.689,0,0,1-.42-5.907c0-3.643,0-8.71,0-14.267s.467-10.624.771-14.267a29.023,29.023,0,0,1,.747-5.884,37.361,37.361,0,0,1,0,5.931c-.14,3.993-.28,8.85-.444,14.243s-.257,10.251-.374,14.243A32.315,32.315,0,0,1,90.164,370.055Z" transform="translate(-49.686 -211.369)" fill="#263238"/>
      <path id="Path_4704" data-name="Path 4704" d="M107.147,365.466c-.3,0-1.261-10.251-2.125-22.93s-1.354-22.976-1.051-22.976,1.238,10.227,2.125,22.906S107.451,365.442,107.147,365.466Z" transform="translate(-30.804 -224.946)" fill="#263238"/>
      <path id="Path_4705" data-name="Path 4705" d="M86.17,319.275a32.032,32.032,0,0,1,6.071-.187c3.736,0,8.92.14,14.64.327s10.881.42,14.617.63a36.542,36.542,0,0,1,6.048.584,32.037,32.037,0,0,1-6.071.187c-3.736,0-8.92-.117-14.64-.327s-10.881-.42-14.64-.63a35.591,35.591,0,0,1-6.024-.584Z" transform="translate(-54.448 -225.665)" fill="#263238"/>
      <path id="Path_4706" data-name="Path 4706" d="M124.789,442.711a4.669,4.669,0,0,1-.14-1.261,29.991,29.991,0,0,0-.163-3.549c-.14-3.105-.163-7.565,0-13.123s.467-12.119,1.121-19.4,1.728-15.294,3.2-23.63,3.292-16.158,5.137-23.35,3.853-13.38,5.674-18.68,3.362-9.34,4.67-12.282c.56-1.354,1-2.335,1.378-3.292a6.556,6.556,0,0,1,.537-1.121,3.831,3.831,0,0,1-.35,1.191l-1.331,3.432c-1.074,2.9-2.545,7-4.25,12.375s-3.573,11.675-5.417,18.68-3.573,14.9-5.067,23.21-2.5,16.345-3.246,23.513-1.168,13.823-1.354,19.334-.3,9.994-.3,13.1V441.4A9.346,9.346,0,0,1,124.789,442.711Z" transform="translate(-3.45 -220.327)" fill="#263238"/>
      <path id="Path_4707" data-name="Path 4707" d="M142.289,347.79a24.939,24.939,0,0,1-3.619,3.969c-2.335,2.335-5.674,5.464-9.457,8.8s-7.355,6.211-9.994,8.242a25,25,0,0,1-4.39,3.059,28.278,28.278,0,0,1,3.923-3.666l9.737-8.453,9.667-8.546A28.132,28.132,0,0,1,142.289,347.79Z" transform="translate(-16.188 -187.26)" fill="#263238"/>
      <path id="Path_4708" data-name="Path 4708" d="M153.525,378.719a42.378,42.378,0,0,1-3.853-5.324l-8.943-13.076-9.153-12.936a43.7,43.7,0,0,1-3.666-5.464,34.49,34.49,0,0,1,4.273,5c2.522,3.2,5.884,7.682,9.34,12.8s6.585,9.807,8.709,13.263a35.347,35.347,0,0,1,3.292,5.744Z" transform="translate(1.274 -195.096)" fill="#263238"/>
      <path id="Path_4709" data-name="Path 4709" d="M157.112,326.554c.163.257-9.34,6.678-21.272,14.337s-21.715,13.683-21.879,13.426,9.34-6.678,21.3-14.337S156.972,326.32,157.112,326.554Z" transform="translate(-17.35 -215.618)" fill="#263238"/>
      <path id="Path_4710" data-name="Path 4710" d="M160.046,354.633A187.5,187.5,0,0,1,145.64,341.3a177.045,177.045,0,0,1-13.66-14.01,179.573,179.573,0,0,1,14.43,13.333A169.642,169.642,0,0,1,160.046,354.633Z" transform="translate(6.707 -214.627)" fill="#263238"/>
      <path id="Path_4711" data-name="Path 4711" d="M146.85,372.976l8.172-.677a40.4,40.4,0,0,0,16.532-5.067,70.06,70.06,0,0,1,7.706-3.876c10.11-4.04,21.412-3.316,32.293-3.876a133.585,133.585,0,0,0,51.37-13.123,5.231,5.231,0,0,0,2.335-2.031c1.681-3.059-1.448-5.791-4.133-7.449-13.8-8.5-27.833-17.092-43.454-21.318s-33.39-3.5-46.7,5.674c-15.644,10.788-21.365,32.923-24,51.743" transform="translate(26.559 -233.601)" fill="#ff5b36"/>
      <path id="Path_4712" data-name="Path 4712" d="M265.22,338.839a14.171,14.171,0,0,1-1.378-.654l-3.876-2.031c-3.362-1.775-8.2-4.39-14.337-7.308a131.106,131.106,0,0,0-22.159-8.546,72.971,72.971,0,0,0-28.744-2.335,49.035,49.035,0,0,0-26.2,11.255,58.236,58.236,0,0,0-13.636,19.147,156.157,156.157,0,0,0-5.931,14.921l-1.471,4.133a8.734,8.734,0,0,1-.56,1.424,7.778,7.778,0,0,1,.35-1.494c.327-1.051.747-2.452,1.261-4.18a136.628,136.628,0,0,1,5.557-14.991,57.792,57.792,0,0,1,13.683-19.59,49.479,49.479,0,0,1,26.712-11.675,73.483,73.483,0,0,1,29.141,2.335,130.18,130.18,0,0,1,22.252,8.826c6.094,3.035,10.881,5.744,14.2,7.635l3.783,2.218A6.494,6.494,0,0,1,265.22,338.839Z" transform="translate(26.666 -229.188)" fill="#263238"/>
      <path id="Path_4713" data-name="Path 4713" d="M216.2,348.736c-.163.234-10.881-6.678-23.91-15.458s-23.467-16.111-23.35-16.345,10.858,6.678,23.887,15.458S216.364,348.479,216.2,348.736Z" transform="translate(56.048 -228.46)" fill="#263238"/>
      <path id="Path_4714" data-name="Path 4714" d="M194.432,316.484a40.254,40.254,0,0,1-16.882,1.565,47.592,47.592,0,0,1,8.429-.981A49.031,49.031,0,0,1,194.432,316.484Z" transform="translate(67.543 -229.062)" fill="#263238"/>
      <path id="Path_4715" data-name="Path 4715" d="M168.782,312.8a58.981,58.981,0,0,1-7.962,13.5,28.186,28.186,0,0,1,3.5-7,27.809,27.809,0,0,1,4.46-6.491Z" transform="translate(45.208 -233.971)" fill="#263238"/>
      <path id="Path_4716" data-name="Path 4716" d="M186.9,346.413a28.015,28.015,0,0,1-5.137-2.8c-3.106-1.868-7.285-4.67-11.675-7.869s-8.383-6.3-11.231-8.546a31.213,31.213,0,0,1-4.436-3.806,29.963,29.963,0,0,1,4.9,3.2l11.418,8.289c4.436,3.222,8.523,6.048,11.511,8.1A33.089,33.089,0,0,1,186.9,346.413Z" transform="translate(36.665 -219.833)" fill="#263238"/>
      <path id="Path_4717" data-name="Path 4717" d="M162.926,355.736c-7.8-2.078-17.115,5.511-18.68,13.426s1.378,15.995,4.833,23.35a119.084,119.084,0,0,0,32.27,42.24,79.857,79.857,0,0,0,49.291,18.1c-3.292-15.318.864-31.336-.957-46.91a61.037,61.037,0,0,0-54.055-53.495c-4.974-.537-10.741-1.307-12.726,3.292" transform="translate(22.508 -181.593)" fill="#ff5b36"/>
      <path id="Path_4718" data-name="Path 4718" d="M219.675,450.772a5.636,5.636,0,0,1-1.121-.514,22.529,22.529,0,0,1-2.919-1.961A30.539,30.539,0,0,1,207.93,438c-1.238-2.335-2.639-5.044-3.993-7.962s-2.709-6-4.2-9.34a84.06,84.06,0,0,0-5.16-9.924,76.353,76.353,0,0,0-7-9.667c-5.324-6.258-11.068-11.675-16.041-16.882a110.063,110.063,0,0,1-12.235-14.687,53.936,53.936,0,0,1-5.978-11.418c-.49-1.424-.864-2.568-1.051-3.339a4.669,4.669,0,0,1-.233-1.191s.537,1.588,1.681,4.39a59.47,59.47,0,0,0,6.211,11.138,117.455,117.455,0,0,0,12.329,14.407c5,5.137,10.764,10.554,16.158,16.882a77.191,77.191,0,0,1,7.168,9.807,89.455,89.455,0,0,1,5.16,10.064l4.11,9.34c1.308,2.9,2.662,5.557,3.876,7.962a31.523,31.523,0,0,0,7.285,10.344C218.25,449.932,219.791,450.679,219.675,450.772Z" transform="translate(33.474 -179.517)" fill="#263238"/>
      <path id="Path_4719" data-name="Path 4719" d="M163.73,409.6a24.047,24.047,0,0,1,.724-5.254c.607-3.222,1.611-7.635,2.965-12.445s2.8-9.083,3.969-12.142a22.133,22.133,0,0,1,2.125-4.857,29.791,29.791,0,0,1-1.4,5.09c-.981,3.129-2.335,7.425-3.643,12.212s-2.335,9.13-3.269,12.305a26.921,26.921,0,0,1-1.471,5.09Z" transform="translate(49.093 -151.068)" fill="#263238"/>
      <path id="Path_4720" data-name="Path 4720" d="M201.816,378.487a34.049,34.049,0,0,1-5.511-1.284c-3.362-.864-8.009-2.078-13.169-3.246s-9.877-2.055-13.286-2.709a31.6,31.6,0,0,1-5.511-1.214,26.152,26.152,0,0,1,5.627.467c3.456.444,8.219,1.237,13.4,2.335a131.134,131.134,0,0,1,13.146,3.573,27.455,27.455,0,0,1,5.3,2.078Z" transform="translate(49.908 -157.574)" fill="#263238"/>
      <path id="Path_4721" data-name="Path 4721" d="M151.33,401.452a32.7,32.7,0,0,1,.841-6.094c.7-3.713,1.775-8.85,3.246-14.43s3.012-10.6,4.226-14.2a33.3,33.3,0,0,1,2.335-5.721,38.574,38.574,0,0,1-1.494,5.954c-1.027,3.643-2.475,8.663-3.923,14.22s-2.662,10.671-3.526,14.337a36.2,36.2,0,0,1-1.7,5.931Z" transform="translate(32.539 -169.611)" fill="#263238"/>
      <path id="Path_4722" data-name="Path 4722" d="M197.537,362.24c0,.28-9.784-.49-21.762-1.775s-21.692-2.545-21.645-2.825a211.752,211.752,0,0,1,21.762,1.751,213.781,213.781,0,0,1,21.645,2.849Z" transform="translate(36.277 -174.11)" fill="#263238"/>
      <path id="Path_4723" data-name="Path 4723" d="M257.128,410.517c0,.3-34.254.537-76.494.537s-76.494-.233-76.494-.537,34.254-.537,76.494-.537S257.128,410.214,257.128,410.517Z" transform="translate(-30.458 -104.237)" fill="#455a64"/>
      <path id="Path_4724" data-name="Path 4724" d="M218.4,429.387c0,.3-23.093.56-51.556.56s-51.533-.257-51.533-.56,23.07-.537,51.533-.537S218.4,429.2,218.4,429.387Z" transform="translate(-15.547 -79.046)" fill="#455a64"/>
      <path id="Path_4725" data-name="Path 4725" d="M218.766,432.087c0,.3-23.07.537-51.533.537s-51.533-.234-51.533-.537,23.07-.537,51.533-.537S218.766,431.784,218.766,432.087Z" transform="translate(-15.026 -75.441)" fill="#455a64"/>
      <path id="Path_4726" data-name="Path 4726" d="M220.8,427.167c0,.3-23.864.537-53.308.537s-53.308-.234-53.308-.537,23.864-.537,53.308-.537S220.8,426.864,220.8,427.167Z" transform="translate(-17.055 -82.009)" fill="#455a64"/>
    </g>
  </g>
</svg>
